<?xml version="1.0" encoding="UTF-8" standalone="no"?>
<!DOCTYPE svg PUBLIC "-//W3C//DTD SVG 1.1//EN" "http://www.w3.org/Graphics/SVG/1.1/DTD/svg11.dtd">
<svg width="100%" height="100%" viewBox="0 0 300 300" version="1.1" xmlns="http://www.w3.org/2000/svg" xmlns:xlink="http://www.w3.org/1999/xlink" xml:space="preserve" xmlns:serif="http://www.serif.com/" style="fill-rule:evenodd;clip-rule:evenodd;stroke-linejoin:round;stroke-miterlimit:2;">
    <g>
        <g transform="matrix(1,0,0,1,-73.0938,-363.935)">
            <path d="M214.82,531.79C220.69,531.79 225.28,528.79 225.28,524.99C225.28,521.19 220.69,518.18 214.82,518.18L142.19,518.18C136.33,518.18 131.73,521.18 131.73,524.99C131.73,528.8 136.33,531.79 142.19,531.79L150.08,531.79L150.08,538.14L144.44,538.14C143.617,538.14 142.94,538.817 142.94,539.64C142.94,540.463 143.617,541.14 144.44,541.14L150.08,541.14L150.08,548L144.44,548C143.617,548 142.94,548.677 142.94,549.5C142.94,550.323 143.617,551 144.44,551L150.08,551L150.08,557.83L144.44,557.83C143.617,557.83 142.94,558.507 142.94,559.33C142.94,560.153 143.617,560.83 144.44,560.83L150.08,560.83L150.08,567.66L144.44,567.66C143.617,567.66 142.94,568.337 142.94,569.16C142.94,569.983 143.617,570.66 144.44,570.66L150.08,570.66L150.08,576.83L142.19,576.83C136.33,576.83 131.73,579.83 131.73,583.64C131.73,587.45 136.33,590.45 142.19,590.45L214.82,590.45C220.69,590.45 225.28,587.45 225.28,583.64C225.28,579.83 220.69,576.83 214.82,576.83L206.93,576.83L206.93,570.66L212.58,570.66C213.403,570.66 214.08,569.983 214.08,569.16C214.08,568.337 213.403,567.66 212.58,567.66L206.93,567.66L206.93,560.83L212.58,560.83C213.403,560.83 214.08,560.153 214.08,559.33C214.08,558.507 213.403,557.83 212.58,557.83L206.93,557.83L206.93,551L212.58,551C213.403,551 214.08,550.323 214.08,549.5C214.08,548.677 213.403,548 212.58,548L206.93,548L206.93,541.16L212.58,541.16C213.403,541.16 214.08,540.483 214.08,539.66C214.08,538.837 213.403,538.16 212.58,538.16L206.93,538.16L206.93,531.81L214.82,531.79ZM222.28,583.62C222.28,585.42 219.22,587.43 214.82,587.43L142.19,587.43C137.79,587.43 134.73,585.43 134.73,583.62C134.73,581.81 137.79,579.81 142.19,579.81L214.82,579.81C219.22,579.81 222.28,581.82 222.28,583.62ZM203.93,576.62L153.08,576.62L153.08,570.68L203.93,570.68L203.93,576.62ZM203.93,567.68L153.08,567.68L153.08,560.85L203.93,560.85L203.93,567.68ZM203.93,557.85L153.08,557.85L153.08,551L203.93,551L203.93,557.85ZM203.93,548.02L153.08,548.02L153.08,541.18L203.93,541.18L203.93,548.02ZM153.08,538.18L153.08,532.12L203.93,532.12L203.93,538.18L153.08,538.18ZM134.73,525C134.73,523.19 137.79,521.19 142.19,521.19L214.82,521.19C219.22,521.19 222.28,523.19 222.28,525C222.28,526.81 219.22,528.8 214.82,528.8L142.19,528.8C137.79,528.79 134.73,526.79 134.73,525Z" style="fill:white;fill-rule:nonzero;"/>
        </g>
        <g transform="matrix(1,0,0,1,-73.0938,-363.935)">
            <path d="M185.27,491.93C179.4,491.93 174.81,494.93 174.81,498.73C174.81,502.53 179.4,505.54 185.27,505.54L257.9,505.54C263.76,505.54 268.36,502.54 268.36,498.73C268.36,494.92 263.76,491.93 257.9,491.93L250,491.93L250,446.93L257.89,446.93C263.75,446.93 268.35,443.93 268.35,440.12C268.35,436.31 263.75,433.31 257.89,433.31L185.27,433.31C179.4,433.31 174.81,436.31 174.81,440.12C174.81,443.93 179.4,446.93 185.27,446.93L193.16,446.93L193.16,491.93L185.27,491.93ZM177.81,440.1C177.81,438.3 180.87,436.29 185.27,436.29L257.9,436.29C262.3,436.29 265.36,438.29 265.36,440.1C265.36,441.91 262.3,443.91 257.9,443.91L185.27,443.91C180.87,443.91 177.81,441.9 177.81,440.1ZM196.16,491.69L196.16,447.2L247,447.2L247,491.69L196.16,491.69ZM265.36,498.69C265.36,500.5 262.3,502.5 257.9,502.5L185.27,502.5C180.87,502.5 177.81,500.5 177.81,498.69C177.81,496.88 180.87,494.89 185.27,494.89L257.9,494.89C262.3,494.93 265.36,496.93 265.36,498.73L265.36,498.69Z" style="fill:white;fill-rule:nonzero;"/>
        </g>
        <g transform="matrix(1,0,0,1,-73.0938,-363.935)">
            <path d="M300.61,523.84C293.175,515.762 282.679,511.165 271.7,511.18C260.27,511.222 249.397,516.202 241.9,524.83C227.881,541.002 228.416,565.457 243.13,581C250.556,588.855 260.901,593.311 271.71,593.311C282.519,593.311 292.864,588.855 300.29,581C315.335,565.1 315.476,539.938 300.61,523.87L300.61,523.84ZM298.12,578.9C291.262,586.165 281.701,590.287 271.71,590.287C261.719,590.287 252.158,586.165 245.3,578.9C231.661,564.475 231.165,541.797 244.16,526.79C251.088,518.815 261.136,514.211 271.7,514.17C281.849,514.159 291.55,518.41 298.42,525.88C312.2,540.792 312.068,564.125 298.12,578.88L298.12,578.9Z" style="fill:white;fill-rule:nonzero;"/>
        </g>
        <g transform="matrix(1,0,0,1,-73.0938,-363.935)">
            <path d="M271.7,535.52C271.56,535.516 271.42,535.515 271.28,535.515C262.108,535.515 254.56,543.062 254.56,552.235C254.56,561.407 262.108,568.955 271.28,568.955C280.45,568.955 287.997,561.41 288,552.24L288,551.63C288.076,551.596 288.146,551.553 288.21,551.5L295.57,544.77C296.03,544.347 296.181,543.68 295.95,543.1C295.718,542.52 295.144,542.147 294.52,542.17L284.97,542.42L284.9,542.42C281.886,538.115 276.955,535.538 271.7,535.52ZM271.7,565.95C271.56,565.954 271.42,565.956 271.28,565.956C263.753,565.956 257.56,559.763 257.56,552.236C257.56,544.71 263.753,538.516 271.28,538.516C278.807,538.516 285,544.71 285,552.236C285,552.238 285,552.239 285,552.24C285.001,552.317 285.002,552.395 285.002,552.472C285.002,559.808 279.035,565.876 271.7,566L271.7,565.95ZM290.57,545.27L287.49,548.09C287.262,547.159 286.954,546.249 286.57,545.37L290.57,545.27Z" style="fill:white;fill-rule:nonzero;"/>
        </g>
        <g transform="matrix(1,0,0,1,-73.0938,-363.935)">
            <path d="M304.46,547.08C303.256,545.835 301.597,545.131 299.865,545.131C298.133,545.131 296.474,545.835 295.27,547.08C292.776,549.664 292.776,553.816 295.27,556.4C296.474,557.645 298.133,558.349 299.865,558.349C301.597,558.349 303.256,557.645 304.46,556.4C306.954,553.816 306.954,549.664 304.46,547.08ZM302.31,554.31C300.968,555.65 298.762,555.65 297.42,554.31C296.049,552.883 296.049,550.597 297.42,549.17C298.059,548.505 298.943,548.128 299.865,548.128C300.787,548.128 301.671,548.505 302.31,549.17C303.681,550.597 303.681,552.883 302.31,554.31Z" style="fill:white;fill-rule:nonzero;"/>
        </g>
        <g transform="matrix(1,0,0,1,-73.0938,-363.935)">
            <path d="M292.4,539.86C292.593,539.87 292.787,539.87 292.98,539.86C294.482,539.856 295.934,539.321 297.08,538.35C298.574,537.085 299.436,535.224 299.436,533.267C299.436,529.897 296.878,527.031 293.53,526.65C291.836,526.503 290.151,527.036 288.85,528.13C287.356,529.395 286.494,531.256 286.494,533.213C286.494,536.583 289.052,539.449 292.4,539.83L292.4,539.86ZM290.78,530.46C291.39,529.945 292.162,529.662 292.96,529.66L293.27,529.66C295.079,529.896 296.447,531.455 296.447,533.279C296.447,534.355 295.972,535.377 295.15,536.07C294.466,536.66 293.569,536.945 292.67,536.86C290.754,536.646 289.337,534.921 289.5,533C289.562,532.015 290.025,531.096 290.78,530.46Z" style="fill:white;fill-rule:nonzero;"/>
        </g>
        <g transform="matrix(1,0,0,1,-73.0938,-363.935)">
            <path d="M275,530.2C275.367,530.26 275.738,530.29 276.11,530.29C277.447,530.292 278.75,529.868 279.83,529.08C282.731,526.963 283.44,522.87 281.42,519.9C280.443,518.453 278.919,517.463 277.2,517.16C275.507,516.861 273.763,517.261 272.37,518.27C269.472,520.394 268.764,524.486 270.78,527.46C271.759,528.905 273.282,529.894 275,530.2ZM274.12,520.71C274.701,520.287 275.401,520.059 276.12,520.06C276.318,520.06 276.516,520.081 276.71,520.12C277.632,520.281 278.449,520.812 278.97,521.59C280.078,523.225 279.696,525.473 278.11,526.65C277.373,527.187 276.448,527.4 275.55,527.24C274.628,527.079 273.811,526.548 273.29,525.77C272.169,524.14 272.548,521.884 274.14,520.71L274.12,520.71Z" style="fill:white;fill-rule:nonzero;"/>
        </g>
        <g transform="matrix(1,0,0,1,-73.0938,-363.935)">
            <path d="M255.52,533.83C256.073,533.986 256.645,534.063 257.22,534.06C258.337,534.058 259.434,533.761 260.4,533.2C261.928,532.321 263.037,530.859 263.47,529.15C264.389,525.679 262.339,522.058 258.89,521.06C257.249,520.607 255.492,520.835 254.02,521.69C252.49,522.573 251.378,524.038 250.94,525.75C250.022,529.219 252.072,532.836 255.52,533.83ZM253.85,526.5C254.082,525.567 254.686,524.768 255.52,524.29C256.03,523.992 256.609,523.833 257.2,523.83C257.504,523.831 257.807,523.871 258.1,523.95C259.976,524.517 261.078,526.498 260.57,528.39C260.334,529.324 259.732,530.124 258.9,530.61C258.119,531.06 257.189,531.178 256.32,530.94C254.434,530.387 253.325,528.394 253.85,526.5Z" style="fill:white;fill-rule:nonzero;"/>
        </g>
        <g transform="matrix(1,0,0,1,-73.0938,-363.935)">
            <path d="M242.9,549C244.507,549.594 246.288,549.507 247.83,548.76C251.06,547.186 252.475,543.277 251,540C250.281,538.4 248.946,537.156 247.3,536.55C245.691,535.965 243.912,536.055 242.37,536.8C239.145,538.385 237.747,542.302 239.24,545.57C239.95,547.158 241.27,548.395 242.9,549ZM243.62,539.49C244.437,539.099 245.378,539.052 246.23,539.36C247.121,539.689 247.842,540.363 248.23,541.23C249.051,543.022 248.299,545.171 246.54,546.06C245.723,546.453 244.78,546.496 243.93,546.18C243.038,545.859 242.315,545.186 241.93,544.32C241.129,542.539 241.879,540.414 243.62,539.53L243.62,539.49Z" style="fill:white;fill-rule:nonzero;"/>
        </g>
        <g transform="matrix(1,0,0,1,-73.0938,-363.935)">
            <path d="M248.16,556.6C246.617,555.859 244.838,555.772 243.23,556.36C241.582,556.963 240.247,558.208 239.53,559.81C238.043,563.079 239.439,566.991 242.66,568.58C243.517,568.995 244.458,569.21 245.41,569.21C246.154,569.208 246.892,569.076 247.59,568.82C249.24,568.22 250.576,566.974 251.29,565.37C252.777,562.101 251.381,558.189 248.16,556.6ZM248.56,564.13C248.175,564.999 247.453,565.674 246.56,566C245.709,566.313 244.766,566.266 243.95,565.87C242.189,564.989 241.435,562.838 242.26,561.05C242.645,560.181 243.367,559.506 244.26,559.18C245.111,558.867 246.054,558.914 246.87,559.31C248.627,560.195 249.38,562.341 248.56,564.13Z" style="fill:white;fill-rule:nonzero;"/>
        </g>
        <g transform="matrix(1,0,0,1,-73.0938,-363.935)">
            <path d="M261.23,571.77C259.76,570.909 258.001,570.682 256.36,571.14C252.909,572.129 250.856,575.751 251.78,579.22C252.211,580.933 253.319,582.399 254.85,583.28C255.816,583.841 256.913,584.138 258.03,584.14C258.604,584.138 259.176,584.061 259.73,583.91C263.179,582.912 265.229,579.291 264.31,575.82C263.869,574.112 262.758,572.651 261.23,571.77ZM258.94,581C258.068,581.245 257.133,581.126 256.35,580.67C255.52,580.187 254.919,579.39 254.68,578.46C254.167,576.567 255.271,574.582 257.15,574.02C257.443,573.941 257.746,573.901 258.05,573.9C258.64,573.9 259.219,574.055 259.73,574.35C260.565,574.832 261.168,575.634 261.4,576.57C261.919,578.458 260.817,580.443 258.94,581Z" style="fill:white;fill-rule:nonzero;"/>
        </g>
        <g transform="matrix(1,0,0,1,-73.0938,-363.935)">
            <path d="M280.8,575.21C279.415,574.21 277.683,573.809 276,574.1C274.282,574.406 272.759,575.395 271.78,576.84C269.764,579.814 270.472,583.906 273.37,586.03C274.452,586.814 275.754,587.237 277.09,587.24C277.462,587.236 277.833,587.203 278.2,587.14C279.919,586.836 281.443,585.846 282.42,584.4C284.429,581.418 283.708,577.325 280.8,575.21ZM279.91,582.71C279.389,583.488 278.572,584.019 277.65,584.18C276.752,584.345 275.825,584.131 275.09,583.59C273.5,582.416 273.117,580.164 274.23,578.53C274.751,577.752 275.568,577.221 276.49,577.06C277.388,576.9 278.313,577.113 279.05,577.65C280.64,578.824 281.023,581.076 279.91,582.71Z" style="fill:white;fill-rule:nonzero;"/>
        </g>
        <g transform="matrix(1,0,0,1,-73.0938,-363.935)">
            <path d="M297.7,565.33C296.402,564.23 294.715,563.696 293.02,563.85C289.672,564.231 287.114,567.097 287.114,570.467C287.114,572.424 287.976,574.285 289.47,575.55C290.62,576.519 292.076,577.051 293.58,577.05L294.16,577.05C297.505,576.665 300.058,573.801 300.058,570.434C300.058,568.476 299.194,566.615 297.7,565.35L297.7,565.33ZM293.89,574C292.988,574.081 292.09,573.796 291.4,573.21C290.657,572.586 290.195,571.688 290.12,570.72C289.923,568.778 291.349,567.014 293.29,566.8L293.59,566.8C294.388,566.802 295.16,567.085 295.77,567.6C296.592,568.293 297.067,569.315 297.067,570.391C297.067,572.215 295.699,573.774 293.89,574.01L293.89,574Z" style="fill:white;fill-rule:nonzero;"/>
        </g>
    </g>
</svg>
