<?xml version="1.0" encoding="UTF-8" standalone="no"?>
<!DOCTYPE svg PUBLIC "-//W3C//DTD SVG 1.1//EN" "http://www.w3.org/Graphics/SVG/1.1/DTD/svg11.dtd">
<svg width="100%" height="100%" viewBox="0 0 300 300" version="1.1" xmlns="http://www.w3.org/2000/svg" xmlns:xlink="http://www.w3.org/1999/xlink" xml:space="preserve" xmlns:serif="http://www.serif.com/" style="fill-rule:evenodd;clip-rule:evenodd;stroke-linejoin:round;stroke-miterlimit:2;">
    <g transform="matrix(1,0,0,1,-1467.15,-1381.47)">
        <path d="M1691.91,1526C1683.55,1520.35 1672.04,1522.53 1666.32,1530.83C1664.23,1533.88 1663.11,1537.49 1663.11,1541.18C1663.11,1551.23 1671.38,1559.49 1681.42,1559.49C1681.43,1559.49 1681.44,1559.49 1681.45,1559.49C1687.54,1559.51 1693.27,1556.51 1696.72,1551.49C1698.82,1548.44 1699.94,1544.83 1699.94,1541.13C1699.94,1535.08 1696.93,1529.4 1691.91,1526.01L1691.91,1526ZM1694.24,1549.79C1689.43,1556.73 1679.8,1558.52 1672.81,1553.79C1668.62,1550.95 1666.11,1546.21 1666.11,1541.15C1666.11,1538.05 1667.05,1535.03 1668.81,1532.48C1673.62,1525.54 1683.25,1523.74 1690.24,1528.48C1694.42,1531.32 1696.94,1536.06 1696.94,1541.12C1696.94,1544.22 1696,1547.24 1694.24,1549.79Z" style="fill:white;fill-rule:nonzero;stroke:white;stroke-width:1px;"/>
    </g>
    <g transform="matrix(1,0,0,1,-1467.15,-1381.47)">
        <path d="M1689.55,1529.42C1687.66,1528.14 1685.05,1528.63 1683.76,1530.51C1683.29,1531.2 1683.03,1532.02 1683.03,1532.86C1683.03,1534.23 1683.71,1535.51 1684.84,1536.28C1686.74,1537.56 1689.35,1537.07 1690.64,1535.18C1691.11,1534.49 1691.37,1533.68 1691.37,1532.84C1691.37,1531.47 1690.68,1530.19 1689.55,1529.42Z" style="fill:white;fill-rule:nonzero;stroke:white;stroke-width:1px;"/>
    </g>
    <g transform="matrix(1,0,0,1,-1467.15,-1381.47)">
        <path d="M1645.93,1551.58C1647.25,1548.23 1647.17,1544.48 1645.71,1541.18C1642.65,1534.33 1634.52,1531.18 1627.64,1534.18C1624.29,1535.62 1621.66,1538.35 1620.34,1541.75C1619.01,1545.11 1619.09,1548.86 1620.55,1552.16C1622.76,1557.11 1627.7,1560.31 1633.12,1560.31C1638.76,1560.31 1643.86,1556.84 1645.93,1551.59L1645.93,1551.58ZM1623.3,1550.94C1622.16,1548.37 1622.1,1545.45 1623.13,1542.83C1624.75,1538.73 1628.74,1536.03 1633.14,1536.03C1637.38,1536.03 1641.24,1538.53 1642.97,1542.39C1643.55,1543.73 1643.85,1545.17 1643.85,1546.62C1643.85,1550.86 1641.32,1554.71 1637.43,1556.39C1632.06,1558.74 1625.7,1556.29 1623.3,1550.94Z" style="fill:white;fill-rule:nonzero;stroke:white;stroke-width:1px;"/>
    </g>
    <g transform="matrix(1,0,0,1,-1467.15,-1381.47)">
        <path d="M1635,1538.18C1633.83,1538.68 1633.06,1539.84 1633.06,1541.12C1633.06,1541.57 1633.15,1542 1633.33,1542.41C1634.05,1544.03 1635.97,1544.77 1637.59,1544.06C1638.75,1543.55 1639.51,1542.39 1639.51,1541.12C1639.51,1539.36 1638.06,1537.91 1636.3,1537.91C1635.85,1537.91 1635.41,1538 1635,1538.18Z" style="fill:white;fill-rule:nonzero;stroke:white;stroke-width:1px;"/>
    </g>
    <g transform="matrix(1,0,0,1,-1467.15,-1381.47)">
        <path d="M1559.11,1515.42C1575.03,1515.3 1588.06,1502.17 1588.06,1486.25C1588.06,1470.25 1574.89,1457.08 1558.89,1457.08C1542.89,1457.08 1529.72,1470.25 1529.72,1486.25C1529.8,1502.3 1543.06,1515.46 1559.11,1515.42ZM1559.11,1460.09C1573.38,1460.21 1585.06,1471.99 1585.06,1486.26C1585.06,1500.62 1573.25,1512.43 1558.89,1512.43C1544.53,1512.43 1532.72,1500.62 1532.72,1486.26C1532.72,1486.26 1532.72,1486.25 1532.72,1486.25C1532.8,1471.84 1544.7,1460.05 1559.11,1460.09Z" style="fill:white;fill-rule:nonzero;stroke:white;stroke-width:1px;"/>
    </g>
    <g transform="matrix(1,0,0,1,-1467.15,-1381.47)">
        <path d="M1559.11,1505.41C1569.57,1505.33 1578.13,1496.71 1578.13,1486.25C1578.13,1475.74 1569.48,1467.09 1558.97,1467.09C1548.46,1467.09 1539.81,1475.74 1539.81,1486.25C1539.85,1496.8 1548.56,1505.44 1559.11,1505.41ZM1559.11,1470.1C1567.92,1470.18 1575.13,1477.45 1575.13,1486.26C1575.13,1495.12 1567.84,1502.42 1558.97,1502.42C1550.11,1502.42 1542.81,1495.12 1542.81,1486.26C1542.81,1486.26 1542.81,1486.25 1542.81,1486.25C1542.87,1477.35 1550.21,1470.07 1559.11,1470.1Z" style="fill:white;fill-rule:nonzero;stroke:white;stroke-width:1px;"/>
    </g>
    <g transform="matrix(1,0,0,1,-1467.15,-1381.47)">
        <path d="M1553.8,1484C1555.45,1484 1556.8,1482.65 1556.8,1481C1556.8,1479.35 1555.45,1478 1553.8,1478C1552.15,1478 1550.8,1479.35 1550.8,1481C1550.8,1482.65 1552.15,1484 1553.8,1484Z" style="fill:white;fill-rule:nonzero;stroke:white;stroke-width:1px;"/>
    </g>
    <g transform="matrix(1,0,0,1,-1467.15,-1381.47)">
        <path d="M1564.42,1484C1566.07,1484 1567.42,1482.65 1567.42,1481C1567.42,1479.35 1566.07,1478 1564.42,1478C1562.77,1478 1561.42,1479.35 1561.42,1481C1561.42,1482.65 1562.77,1484 1564.42,1484Z" style="fill:white;fill-rule:nonzero;stroke:white;stroke-width:1px;"/>
    </g>
    <g transform="matrix(1,0,0,1,-1467.15,-1381.47)">
        <path d="M1553.8,1494.47C1555.45,1494.47 1556.8,1493.12 1556.8,1491.47C1556.8,1489.82 1555.45,1488.47 1553.8,1488.47C1552.15,1488.47 1550.8,1489.82 1550.8,1491.47C1550.8,1493.12 1552.15,1494.47 1553.8,1494.47Z" style="fill:white;fill-rule:nonzero;stroke:white;stroke-width:1px;"/>
    </g>
    <g transform="matrix(1,0,0,1,-1467.15,-1381.47)">
        <path d="M1564.42,1494.47C1566.07,1494.47 1567.42,1493.12 1567.42,1491.47C1567.42,1489.82 1566.07,1488.47 1564.42,1488.47C1562.77,1488.47 1561.42,1489.82 1561.42,1491.47C1561.42,1493.12 1562.77,1494.47 1564.42,1494.47Z" style="fill:white;fill-rule:nonzero;stroke:white;stroke-width:1px;"/>
    </g>
    <g transform="matrix(1,0,0,1,-1467.15,-1381.47)">
        <path d="M1706.66,1466.2C1705.8,1464.14 1704.13,1462.53 1702.05,1461.74C1697.54,1459.8 1690.65,1460.26 1684.05,1462.95C1683.12,1463.33 1682.2,1463.76 1681.31,1464.24C1681.31,1463.14 1681.31,1462.09 1681.25,1461.07C1680.51,1449.68 1675,1441.07 1668.69,1441.48C1666.59,1441.68 1664.66,1442.73 1663.33,1444.37C1660.04,1448.12 1658.33,1455.07 1658.79,1462.52C1658.86,1463.52 1658.97,1464.58 1659.15,1465.66C1658.2,1465.3 1657.24,1465 1656.26,1464.74C1649.38,1462.92 1642.48,1463.35 1638.26,1465.85C1636.3,1466.9 1634.86,1468.71 1634.26,1470.85C1632.73,1477.1 1639.96,1484.23 1650.71,1487.07C1651.7,1487.33 1652.7,1487.55 1653.71,1487.71C1653.07,1488.56 1652.47,1489.43 1651.91,1490.34C1646.01,1499.96 1645.57,1510.21 1650.91,1513.68C1652.1,1514.44 1653.5,1514.83 1654.91,1514.81C1655.63,1514.81 1656.35,1514.73 1657.05,1514.56C1661.85,1513.48 1667.2,1508.92 1671.05,1502.67C1671.59,1501.8 1672.08,1500.9 1672.52,1499.98C1673.11,1500.87 1673.71,1501.69 1674.33,1502.46C1678.95,1508.18 1684.86,1512 1689.75,1512.46C1691.89,1512.76 1694.07,1512.15 1695.75,1510.79C1700.57,1506.67 1698.75,1496.56 1691.69,1487.79C1691.02,1486.96 1690.31,1486.17 1689.56,1485.42C1690.56,1485.11 1691.56,1484.78 1692.49,1484.42C1702.76,1480.2 1709,1472.21 1706.66,1466.2ZM1691.33,1481.63C1689.67,1482.29 1687.95,1482.81 1686.2,1483.18C1685.52,1483.33 1685.02,1483.94 1685.02,1484.64C1685.02,1485.08 1685.21,1485.49 1685.53,1485.77C1686.9,1486.97 1688.17,1488.27 1689.33,1489.68C1695.19,1496.94 1697.23,1505.58 1693.77,1508.53C1692.72,1509.36 1691.37,1509.72 1690.04,1509.53C1685.98,1509.15 1680.74,1505.66 1676.68,1500.64C1675.56,1499.2 1674.55,1497.68 1673.68,1496.08C1673.41,1495.61 1672.91,1495.31 1672.37,1495.31C1671.76,1495.31 1671.21,1495.68 1670.98,1496.25C1670.31,1497.96 1669.5,1499.6 1668.55,1501.17C1665.19,1506.67 1660.44,1510.8 1656.47,1511.69C1655.18,1512.07 1653.8,1511.9 1652.64,1511.22C1648.83,1508.74 1649.71,1499.92 1654.64,1491.96C1655.6,1490.41 1656.68,1488.95 1657.89,1487.59C1658.27,1487.17 1658.37,1486.56 1658.15,1486.04C1657.94,1485.52 1657.45,1485.16 1656.89,1485.11C1655.1,1484.98 1653.33,1484.68 1651.6,1484.23C1642.75,1481.89 1636.2,1476.12 1637.3,1471.62C1637.7,1470.26 1638.64,1469.12 1639.9,1468.47C1642.39,1467.17 1645.19,1466.54 1648,1466.65C1650.57,1466.66 1653.12,1466.99 1655.6,1467.65C1657.32,1468.12 1658.99,1468.74 1660.6,1469.5C1660.8,1469.59 1661.01,1469.64 1661.23,1469.64C1662.05,1469.64 1662.73,1468.96 1662.73,1468.14C1662.73,1468.02 1662.72,1467.91 1662.69,1467.8C1662.26,1466.01 1661.97,1464.18 1661.84,1462.34C1661.41,1455.75 1662.9,1449.48 1665.65,1446.34C1666.45,1445.3 1667.63,1444.62 1668.94,1444.47C1672.94,1444.23 1677.64,1450.9 1678.32,1461.26C1678.43,1463.1 1678.38,1464.95 1678.19,1466.78C1678.13,1467.35 1678.4,1467.91 1678.89,1468.21C1679.38,1468.51 1679.99,1468.51 1680.48,1468.21C1682,1467.25 1683.59,1466.41 1685.25,1465.72C1691.11,1463.33 1697.12,1462.86 1700.91,1464.5C1702.25,1464.98 1703.34,1465.99 1703.91,1467.29C1705.54,1471.6 1699.8,1478.17 1691.33,1481.63Z" style="fill:white;fill-rule:nonzero;stroke:white;stroke-width:1px;"/>
    </g>
    <g transform="matrix(1,0,0,1,-1467.15,-1381.47)">
        <path d="M1674.42,1476.53C1674.01,1476.7 1673.61,1476.9 1673.23,1477.14C1673.27,1476.68 1673.27,1476.23 1673.23,1475.77C1673.07,1473.31 1671.9,1471.38 1670.62,1471.46C1669.34,1471.54 1668.44,1473.61 1668.62,1476.07C1668.65,1476.53 1668.72,1476.98 1668.83,1477.43C1668.42,1477.24 1668,1477.08 1667.57,1476.96C1665.24,1476.35 1663.1,1476.88 1662.79,1478.16C1662.48,1479.44 1664.11,1480.97 1666.44,1481.58C1666.87,1481.69 1667.31,1481.76 1667.75,1481.8C1667.45,1482.14 1667.18,1482.5 1666.95,1482.89C1665.67,1484.97 1665.51,1487.23 1666.59,1487.89C1667.67,1488.55 1669.59,1487.48 1670.87,1485.39C1671.11,1485 1671.31,1484.6 1671.47,1484.17C1671.69,1484.57 1671.94,1484.95 1672.23,1485.3C1673.77,1487.21 1675.81,1488.07 1676.79,1487.23C1677.77,1486.39 1677.32,1484.17 1675.79,1482.23C1675.5,1481.87 1675.19,1481.54 1674.85,1481.23C1675.28,1481.14 1675.71,1481.01 1676.12,1480.85C1678.35,1479.94 1679.77,1478.21 1679.3,1476.99C1678.83,1475.77 1676.65,1475.62 1674.42,1476.53Z" style="fill:white;fill-rule:nonzero;stroke:white;stroke-width:1px;"/>
    </g>
    <g transform="matrix(1,0,0,1,-1467.15,-1381.47)">
        <path d="M1567.81,1557C1562.69,1558.28 1558.3,1561.57 1555.62,1566.11C1552.96,1570.58 1552.2,1575.94 1553.51,1580.98C1555.82,1589.68 1563.75,1595.79 1572.76,1595.79C1579.76,1595.79 1586.27,1592.09 1589.86,1586.07C1592.52,1581.59 1593.28,1576.23 1591.97,1571.19C1589.19,1560.7 1578.32,1554.32 1567.81,1557ZM1587.28,1584.54C1584.24,1589.65 1578.71,1592.8 1572.76,1592.8C1565.11,1592.8 1558.38,1587.62 1556.42,1580.23C1555.31,1575.96 1555.95,1571.42 1558.21,1567.63C1561.26,1562.52 1566.78,1559.39 1572.73,1559.39C1580.37,1559.39 1587.1,1564.56 1589.07,1571.94C1590.17,1576.2 1589.53,1580.72 1587.28,1584.5L1587.28,1584.54Z" style="fill:white;fill-rule:nonzero;stroke:white;stroke-width:1px;"/>
    </g>
    <g transform="matrix(1,0,0,1,-1467.15,-1381.47)">
        <path d="M1605.58,1567.7C1611.58,1559.49 1611.95,1549.4 1606.19,1543.56C1600.43,1537.72 1590.26,1537.87 1581.87,1543.67C1577.72,1534.39 1569.08,1529.04 1561.12,1531.06C1553.16,1533.08 1548.18,1541.9 1549.04,1552.06C1538.88,1550.99 1529.88,1555.73 1527.66,1563.59C1525.44,1571.45 1530.66,1580.13 1539.91,1584.45C1533.91,1592.65 1533.54,1602.75 1539.29,1608.58C1545.04,1614.41 1555.22,1614.27 1563.62,1608.48C1567.17,1616.48 1574.04,1621.48 1580.95,1621.48C1582.1,1621.48 1583.25,1621.34 1584.36,1621.06C1592.36,1619.06 1597.3,1610.22 1596.44,1600.06C1606.61,1601.12 1615.6,1596.39 1617.82,1588.53C1620.04,1580.67 1614.83,1572 1605.58,1567.7ZM1614.93,1587.7C1612.99,1594.57 1604.41,1598.49 1594.93,1596.8C1594.85,1596.79 1594.76,1596.78 1594.67,1596.78C1593.85,1596.78 1593.16,1597.46 1593.16,1598.29C1593.16,1598.36 1593.17,1598.44 1593.18,1598.51C1594.68,1607.9 1590.54,1616.31 1583.57,1618.08C1576.6,1619.85 1568.88,1614.45 1565.64,1605.5C1565.47,1605.05 1565.1,1604.7 1564.64,1604.57C1564.51,1604.55 1564.37,1604.55 1564.24,1604.57C1563.9,1604.57 1563.57,1604.68 1563.3,1604.9C1555.84,1610.9 1546.42,1611.54 1541.38,1606.43C1536.34,1601.32 1537.22,1592.01 1543.38,1584.76C1543.62,1584.49 1543.74,1584.14 1543.74,1583.78C1543.74,1583.16 1543.36,1582.61 1542.78,1582.39C1533.84,1578.97 1528.55,1571.22 1530.49,1564.39C1532.43,1557.56 1541.01,1553.6 1550.49,1555.29C1550.58,1555.31 1550.66,1555.31 1550.75,1555.31C1551.58,1555.31 1552.26,1554.63 1552.26,1553.8C1552.26,1553.72 1552.25,1553.65 1552.24,1553.57C1550.75,1544.19 1554.88,1535.78 1561.85,1534.01C1568.82,1532.24 1576.54,1537.64 1579.78,1546.58C1579.99,1547.18 1580.56,1547.58 1581.19,1547.58C1581.53,1547.58 1581.86,1547.46 1582.13,1547.24C1589.59,1541.24 1599.01,1540.6 1604.05,1545.71C1609.09,1550.82 1608.21,1560.12 1602.05,1567.38C1601.82,1567.65 1601.69,1568 1601.69,1568.35C1601.69,1568.97 1602.07,1569.53 1602.65,1569.75C1611.58,1573.12 1616.87,1580.88 1614.93,1587.75L1614.93,1587.7Z" style="fill:white;fill-rule:nonzero;stroke:white;stroke-width:1px;"/>
    </g>
    <g transform="matrix(1,0,0,1,-1467.15,-1381.47)">
        <path d="M1578.6,1570.55C1576.88,1570.98 1575.66,1572.54 1575.66,1574.32C1575.66,1574.64 1575.7,1574.97 1575.78,1575.28C1576.33,1577.35 1578.47,1578.62 1580.55,1578.08C1582.25,1577.63 1583.45,1576.08 1583.45,1574.32C1583.45,1572.18 1581.69,1570.42 1579.55,1570.42C1579.21,1570.42 1578.88,1570.46 1578.55,1570.55L1578.6,1570.55Z" style="fill:white;fill-rule:nonzero;stroke:white;stroke-width:1px;"/>
    </g>
    <g transform="matrix(1,0,0,1,-1467.15,-1381.47)">
        <path d="M1564.93,1574C1563.23,1574.45 1562.04,1576 1562.04,1577.76C1562.04,1579.89 1563.8,1581.65 1565.93,1581.65C1568.06,1581.65 1569.82,1579.89 1569.82,1577.76C1569.82,1577.44 1569.78,1577.11 1569.7,1576.8C1569.15,1574.73 1567.01,1573.47 1564.93,1574Z" style="fill:white;fill-rule:nonzero;stroke:white;stroke-width:1px;"/>
    </g>
    <g transform="matrix(1,0,0,1,-1467.15,-1381.47)">
        <path d="M1616.48,1484.1C1619.92,1484.12 1623.22,1482.77 1625.65,1480.33C1626.54,1479.41 1627.31,1478.38 1627.92,1477.26C1627.98,1477.18 1628.03,1477.09 1628.07,1477C1629.46,1474.38 1630.04,1471.39 1629.71,1468.44C1629.33,1465.14 1627.64,1460.44 1621.71,1456.69C1618.3,1454.55 1615.16,1453.85 1611.82,1453.1C1606.01,1451.99 1600.46,1449.81 1595.46,1446.65C1594.99,1446.38 1594.41,1446.38 1593.94,1446.65C1593.46,1446.92 1593.17,1447.42 1593.17,1447.97C1593.17,1448.81 1593.36,1468.77 1601.97,1477.15C1607.09,1482.09 1612.13,1484.1 1616.48,1484.1ZM1611.18,1456.03C1614.39,1456.75 1617.18,1457.36 1620.12,1459.23C1625.03,1462.33 1626.43,1466.13 1626.73,1468.78C1626.94,1470.86 1626.6,1472.96 1625.73,1474.86C1622.87,1474.58 1614.07,1472.93 1607.89,1463.12C1607.63,1462.64 1607.12,1462.34 1606.57,1462.34C1605.75,1462.34 1605.07,1463.01 1605.07,1463.84C1605.07,1464.15 1605.17,1464.46 1605.36,1464.72C1611.36,1474.3 1619.76,1476.93 1623.98,1477.64C1623.82,1477.84 1623.66,1478.04 1623.48,1478.22C1618.68,1483.07 1611.05,1481.8 1604.03,1474.97C1598.03,1469.16 1596.61,1456.22 1596.26,1450.61C1600.92,1453.19 1605.95,1455.01 1611.18,1456L1611.18,1456.03Z" style="fill:white;fill-rule:nonzero;stroke:white;stroke-width:1px;"/>
    </g>
    <g transform="matrix(1,0,0,1,-1467.15,-1381.47)">
        <path d="M1638.25,1508.39C1639.73,1505.37 1639.91,1501.88 1638.76,1498.72C1638.31,1497.49 1637.69,1496.32 1636.92,1495.26C1636.89,1495.2 1636.85,1495.15 1636.81,1495.1C1635.05,1492.7 1632.61,1490.88 1629.81,1489.87C1626.66,1488.75 1621.65,1488.17 1615.65,1491.81C1612.21,1493.89 1610.19,1496.39 1608.05,1499.03C1604.49,1503.72 1600.08,1507.69 1595.05,1510.75C1594.58,1511.04 1594.31,1511.56 1594.34,1512.11C1594.37,1512.65 1594.7,1513.14 1595.19,1513.38C1595.81,1513.68 1607.94,1519.45 1618.56,1519.45C1620.9,1519.5 1623.23,1519.16 1625.46,1518.45C1631.73,1516.2 1636.16,1512.74 1638.25,1508.39ZM1598.94,1511.76C1603.31,1508.78 1607.17,1505.12 1610.39,1500.92C1612.39,1498.38 1614.22,1496.19 1617.22,1494.37C1622.22,1491.37 1626.28,1491.79 1628.81,1492.7C1630.77,1493.41 1632.52,1494.63 1633.87,1496.22C1632.36,1498.63 1627,1505.73 1615.4,1506.91C1614.61,1506.95 1613.97,1507.61 1613.97,1508.41C1613.97,1509.23 1614.65,1509.91 1615.48,1509.91C1615.5,1509.91 1615.53,1509.91 1615.55,1509.91L1615.7,1509.91C1627.05,1508.75 1633.11,1502.44 1635.62,1498.99C1635.73,1499.24 1635.84,1499.48 1635.93,1499.73C1636.81,1502.14 1636.67,1504.8 1635.54,1507.1C1633.81,1510.71 1629.97,1513.65 1624.43,1515.58C1616.53,1518.33 1604.19,1513.93 1598.94,1511.76Z" style="fill:white;fill-rule:nonzero;stroke:white;stroke-width:1px;"/>
    </g>
    <g transform="matrix(1,0,0,1,-1467.15,-1381.47)">
        <path d="M1651.25,1566.86C1640.78,1570.61 1633.75,1580.59 1633.75,1591.72C1633.75,1594.84 1634.3,1597.93 1635.38,1600.86C1640.51,1614.5 1655.89,1621.58 1669.59,1616.6C1676.25,1614.21 1681.68,1609.24 1684.64,1602.81C1687.61,1596.47 1687.9,1589.2 1685.46,1582.64C1680.35,1568.97 1664.96,1561.88 1651.25,1566.86ZM1681.92,1601.51C1679.29,1607.21 1674.48,1611.62 1668.57,1613.74C1656.4,1618.16 1642.74,1611.87 1638.2,1599.74C1636.03,1593.93 1636.29,1587.49 1638.91,1581.87C1641.55,1576.17 1646.36,1571.76 1652.27,1569.64C1664.44,1565.2 1678.11,1571.51 1682.64,1583.64C1684.81,1589.45 1684.55,1595.89 1681.92,1601.51Z" style="fill:white;fill-rule:nonzero;stroke:white;stroke-width:1px;"/>
    </g>
    <g transform="matrix(1,0,0,1,-1467.15,-1381.47)">
        <path d="M1672.91,1583.38C1672.86,1583.29 1672.8,1583.2 1672.73,1583.13C1668.8,1577.6 1661.62,1575.36 1655.24,1577.67C1649.31,1579.78 1645.33,1585.42 1645.33,1591.72C1645.33,1593.47 1645.63,1595.21 1646.24,1596.86C1649.14,1604.57 1657.82,1608.56 1665.56,1605.75C1669.32,1604.4 1672.39,1601.59 1674.06,1597.96C1675.74,1594.38 1675.9,1590.27 1674.52,1586.56C1674.12,1585.44 1673.58,1584.37 1672.91,1583.38ZM1649.46,1586.72C1650.8,1583.81 1653.25,1581.57 1656.26,1580.49C1661.27,1578.65 1666.94,1580.34 1670.13,1584.62C1670.5,1589.93 1667.27,1594.87 1662.26,1596.67C1657.23,1598.51 1651.55,1596.8 1648.38,1592.49C1648.25,1590.51 1648.62,1588.52 1649.46,1586.72ZM1671.38,1596.72C1670.04,1599.62 1667.58,1601.87 1664.57,1602.95C1659.32,1604.86 1653.38,1602.9 1650.31,1598.23C1652.67,1599.66 1655.37,1600.42 1658.13,1600.42C1664.55,1600.42 1670.3,1596.31 1672.38,1590.23C1672.66,1592.44 1672.32,1594.68 1671.38,1596.7L1671.38,1596.72Z" style="fill:white;fill-rule:nonzero;stroke:white;stroke-width:1px;"/>
    </g>
</svg>
