<?xml version="1.0" encoding="UTF-8" standalone="no"?>
<!DOCTYPE svg PUBLIC "-//W3C//DTD SVG 1.1//EN" "http://www.w3.org/Graphics/SVG/1.1/DTD/svg11.dtd">
<svg width="100%" height="100%" viewBox="0 0 300 300" version="1.1" xmlns="http://www.w3.org/2000/svg" xmlns:xlink="http://www.w3.org/1999/xlink" xml:space="preserve" xmlns:serif="http://www.serif.com/" style="fill-rule:evenodd;clip-rule:evenodd;stroke-linejoin:round;stroke-miterlimit:2;">
    <g transform="matrix(1,0,0,1,-66.3516,-0.515625)">
        <g transform="matrix(1,0,0,1,0,-1377.75)">
            <path d="M310.23,1437.94L178.08,1437.84C177.923,1437.84 177.768,1437.87 177.62,1437.92C174.95,1437.8 172.43,1437.75 170.24,1437.75C156.92,1437.75 131.73,1439.75 131.73,1447.16C131.725,1447.24 131.725,1447.33 131.73,1447.41C131.72,1447.5 131.72,1447.58 131.73,1447.67L131.73,1608.33C131.715,1608.44 131.715,1608.54 131.73,1608.65C132.44,1615.83 157.07,1617.75 170.2,1617.75C182.2,1617.75 203.99,1616.14 208.04,1610.32L310.23,1610.32C311.053,1610.32 311.73,1609.64 311.73,1608.82L311.73,1439.44C311.73,1438.62 311.053,1437.94 310.23,1437.94ZM170.23,1440.75C193.23,1440.75 205.73,1444.98 205.73,1447.16C205.73,1449.34 193.2,1453.58 170.23,1453.58C147.26,1453.58 134.72,1449.34 134.72,1447.16C134.72,1444.98 147.26,1440.75 170.24,1440.75L170.23,1440.75ZM134.72,1499.69C141.79,1503.88 159.72,1505.11 170.23,1505.11C180.74,1505.11 199.05,1503.86 205.96,1499.56L205.96,1554.11C205.813,1554.34 205.734,1554.61 205.73,1554.89C205.73,1557.07 193.2,1561.31 170.23,1561.31C147.26,1561.31 134.72,1557.07 134.72,1554.89L134.72,1499.69ZM205.96,1494.92C205.813,1495.15 205.733,1495.42 205.73,1495.7C205.73,1497.88 193.2,1502.11 170.23,1502.11C147.26,1502.11 134.72,1497.88 134.72,1495.7L134.72,1451.16C141.79,1455.35 159.72,1456.58 170.23,1456.58C180.74,1456.58 199.05,1455.32 205.96,1451.02L205.96,1494.92ZM170.23,1614.75C147.23,1614.75 134.72,1610.51 134.72,1608.33L134.72,1558.89C141.79,1563.08 159.72,1564.31 170.23,1564.31C180.74,1564.31 199.05,1563.05 205.96,1558.75L205.96,1607.55C205.813,1607.78 205.733,1608.05 205.73,1608.33C205.74,1610.51 193.21,1614.75 170.24,1614.75L170.23,1614.75ZM308.72,1607.32L209,1607.32L209,1447.67C208.998,1447.37 208.908,1447.08 208.74,1446.83C208.46,1444.18 204.93,1442.24 199.91,1440.83L308.76,1440.91L308.72,1607.32Z" style="fill:white;fill-rule:nonzero;"/>
        </g>
        <g transform="matrix(1,0,0,1,0,-1377.75)">
            <path d="M161.05,1448.33C164.1,1448.7 167.169,1448.88 170.24,1448.87C173.746,1448.88 177.248,1448.64 180.72,1448.16C181.453,1448.06 182.005,1447.42 182.005,1446.68C182.005,1446.61 182,1446.54 181.99,1446.47C181.872,1445.66 181.113,1445.08 180.3,1445.19C174.035,1446.04 167.688,1446.09 161.41,1445.35C161.35,1445.34 161.29,1445.34 161.23,1445.34C160.401,1445.34 159.719,1446.02 159.719,1446.85C159.719,1447.61 160.294,1448.26 161.05,1448.35L161.05,1448.33Z" style="fill:white;fill-rule:nonzero;"/>
        </g>
        <g transform="matrix(1,0,0,1,0,-1377.75)">
            <path d="M151.85,1539.72C151.959,1539.75 152.07,1539.76 152.182,1539.76C153.005,1539.76 153.682,1539.08 153.682,1538.26C153.682,1537.75 153.425,1537.28 153,1537C150.049,1535.77 148.119,1532.87 148.12,1529.67C148.138,1526.92 149.527,1524.35 151.82,1522.82C153.96,1521.55 156.66,1521.75 159.64,1523.37C159.862,1523.49 160.111,1523.56 160.364,1523.56C161.187,1523.56 161.864,1522.88 161.864,1522.06C161.864,1521.99 161.86,1521.92 161.85,1521.85C161.437,1519.73 161.982,1517.53 163.34,1515.85C164.707,1514.38 166.625,1513.55 168.63,1513.55C170.635,1513.55 172.553,1514.38 173.92,1515.85C175.281,1517.53 175.831,1519.73 175.42,1521.85C175.337,1522.41 175.582,1522.97 176.05,1523.29C176.516,1523.61 177.124,1523.64 177.62,1523.37C180.62,1521.75 183.31,1521.56 185.44,1522.82C187.732,1524.35 189.12,1526.92 189.14,1529.67C189.127,1532.86 187.206,1535.75 184.27,1537C183.709,1537.23 183.343,1537.79 183.343,1538.39C183.343,1538.6 183.386,1538.81 183.47,1539C183.706,1539.55 184.25,1539.91 184.85,1539.91C185.052,1539.91 185.252,1539.88 185.44,1539.8C189.486,1538.08 192.13,1534.1 192.14,1529.7C192.126,1525.89 190.177,1522.34 186.97,1520.28C184.386,1518.79 181.248,1518.58 178.49,1519.72C178.395,1517.58 177.58,1515.54 176.18,1513.92C174.243,1511.8 171.501,1510.59 168.63,1510.59C165.759,1510.59 163.017,1511.8 161.08,1513.92C159.682,1515.54 158.868,1517.59 158.77,1519.73C156.012,1518.59 152.874,1518.8 150.29,1520.29C147.083,1522.35 145.134,1525.9 145.12,1529.71C145.171,1534.08 147.822,1538.02 151.85,1539.72Z" style="fill:white;fill-rule:nonzero;"/>
        </g>
        <g transform="matrix(1,0,0,1,0,-1377.75)">
            <path d="M173.39,1537C172.72,1533.6 170.9,1531.32 168.65,1531.32C166.4,1531.32 164.58,1533.6 163.92,1537C160.55,1535.48 156.92,1535.11 155.45,1537.17C154.923,1537.91 154.744,1538.85 154.96,1539.74C155.36,1541.74 157.46,1544.12 160.43,1545.92C162.547,1547.01 164.81,1547.79 167.15,1548.23L167.15,1557.17C167.15,1557.99 167.827,1558.67 168.65,1558.67C169.473,1558.67 170.15,1557.99 170.15,1557.17L170.15,1548.23C172.49,1547.79 174.753,1547.01 176.87,1545.92C179.87,1544.12 181.94,1541.76 182.35,1539.74C182.557,1538.85 182.375,1537.92 181.85,1537.17C180.34,1535.08 176.74,1535.46 173.39,1537ZM175.32,1543.35C173.207,1544.37 170.962,1545.08 168.65,1545.47C166.338,1545.08 164.093,1544.37 161.98,1543.35C158.78,1541.42 157.74,1539.35 157.88,1538.94C158.151,1538.76 158.478,1538.69 158.8,1538.73C160.782,1538.87 162.694,1539.52 164.35,1540.62C164.803,1540.9 165.375,1540.93 165.85,1540.68C166.324,1540.43 166.63,1539.94 166.65,1539.41C166.78,1536.05 168.11,1534.32 168.65,1534.32C169.19,1534.32 170.52,1536.05 170.65,1539.41C170.683,1539.94 170.996,1540.41 171.47,1540.65C171.951,1540.89 172.526,1540.88 172.99,1540.6C176.35,1538.6 179.06,1538.52 179.42,1538.93C179.56,1539.36 178.52,1541.4 175.32,1543.33L175.32,1543.35Z" style="fill:white;fill-rule:nonzero;"/>
        </g>
    </g>
</svg>
