<?xml version="1.0" encoding="UTF-8" standalone="no"?>
<!DOCTYPE svg PUBLIC "-//W3C//DTD SVG 1.1//EN" "http://www.w3.org/Graphics/SVG/1.1/DTD/svg11.dtd">
<svg width="100%" height="100%" viewBox="0 0 300 300" version="1.1" xmlns="http://www.w3.org/2000/svg" xmlns:xlink="http://www.w3.org/1999/xlink" xml:space="preserve" xmlns:serif="http://www.serif.com/" style="fill-rule:evenodd;clip-rule:evenodd;stroke-linejoin:round;stroke-miterlimit:2;">
    <g>
        <g transform="matrix(1,0,0,1,-891.753,-367.89)">
            <path d="M1096.34,438.47C1098.91,438.835 1101.5,439.016 1104.09,439.01C1107.06,439.019 1110.02,438.781 1112.94,438.3C1113.67,438.178 1114.21,437.54 1114.21,436.8C1114.21,435.966 1113.52,435.279 1112.69,435.279C1112.61,435.279 1112.52,435.286 1112.44,435.3C1107.25,436.136 1101.97,436.19 1096.77,435.46C1096.7,435.45 1096.63,435.445 1096.56,435.445C1095.72,435.445 1095.04,436.129 1095.04,436.96C1095.04,437.71 1095.6,438.354 1096.34,438.46L1096.34,438.47Z" style="fill:white;fill-rule:nonzero;"/>
        </g>
        <g transform="matrix(1,0,0,1,-891.753,-367.89)">
            <path d="M1136.76,437.81C1136.76,437.549 1136.68,437.293 1136.55,437.07C1136.14,431.07 1120.03,427.89 1104.09,427.89C1087.95,427.89 1071.62,431.12 1071.62,437.3C1071.62,437.393 1071.62,437.487 1071.62,437.58C1071.62,437.657 1071.62,437.733 1071.62,437.81L1071.62,474.35C1066.45,470.69 1053.99,468.79 1041.62,468.79C1025.48,468.79 1009.14,472.03 1009.14,478.21L1009.14,478.49C1009.13,478.566 1009.13,478.644 1009.14,478.72L1009.14,509.22C1003.93,505.59 991.52,503.71 979.22,503.71C963.08,503.71 946.75,506.94 946.75,513.13L946.75,513.43C946.745,513.5 946.745,513.57 946.75,513.64L946.75,598.47C946.75,604.65 963.1,607.88 979.22,607.88C981.77,607.88 984.22,607.78 986.68,607.63C986.875,607.717 987.086,607.765 987.3,607.77L987.41,607.77C990.534,607.559 993.645,607.185 996.73,606.65C996.924,606.619 997.109,606.544 997.27,606.43C1002.27,605.53 1007.98,603.96 1010.45,601.32C1014.62,605.64 1028.18,607.89 1041.62,607.89C1055.06,607.89 1068.75,605.62 1072.85,601.26C1076.95,605.62 1090.58,607.89 1104.08,607.89C1119.4,607.89 1134.88,604.97 1136.42,599.39C1136.63,599.13 1136.75,598.805 1136.75,598.47L1136.76,437.81ZM1104.09,430.89C1123.17,430.89 1133.57,435.13 1133.57,437.3C1133.57,439.47 1123.17,443.72 1104.09,443.72C1085.01,443.72 1074.62,439.48 1074.62,437.3C1074.62,435.12 1085,430.89 1104.09,430.89ZM1041.63,471.79C1060.7,471.79 1071.11,476.03 1071.11,478.21C1071.11,480.39 1060.7,484.62 1041.63,484.62C1022.56,484.62 1012.15,480.39 1012.15,478.21C1012.15,476.03 1022.56,471.79 1041.63,471.79ZM979.23,506.71C998.3,506.71 1008.71,510.95 1008.71,513.13C1008.71,515.31 998.3,519.54 979.23,519.54C976.57,519.54 973.95,519.45 971.42,519.28C971.251,519.275 971.083,519.295 970.92,519.34C970.849,519.313 970.775,519.296 970.7,519.29C966.326,519.038 961.978,518.436 957.7,517.49C957.517,517.313 957.294,517.182 957.05,517.11C951.26,515.53 949.73,513.81 949.73,513.11C949.76,511 960.16,506.71 979.23,506.71ZM964.12,526.78L961.53,525.05C960.987,524.689 960.268,524.722 959.76,525.13L957.33,527.07L957.53,523.96C957.574,523.311 957.187,522.704 956.58,522.47L953.69,521.34L956.06,520.17C959.054,520.91 962.094,521.451 965.16,521.79L964.47,522.13C963.89,522.423 963.559,523.057 963.65,523.7L964.12,526.78ZM949.76,517.39C950.572,517.888 951.425,518.316 952.31,518.67L949.76,519.93L949.76,517.39ZM988.15,596.9L990.73,598.62C991.271,598.984 991.99,598.955 992.5,598.55L994.94,596.6L994.73,599.71C994.686,600.359 995.073,600.966 995.68,601.2L998.58,602.34L996,603.6C993.71,603.99 991.19,604.29 988.49,604.51C988.337,604.303 988.129,604.144 987.89,604.05L985,602.92L987.79,601.54C988.377,601.254 988.711,600.615 988.61,599.97L988.15,596.9ZM1003.72,601.72C1003.58,601.29 1003.26,600.944 1002.84,600.78L997.84,598.78L998.19,593.37C998.231,592.78 997.916,592.22 997.39,591.95C996.866,591.671 996.224,591.73 995.76,592.1L991.53,595.49L987.03,592.49C986.783,592.324 986.491,592.235 986.193,592.235C985.37,592.235 984.693,592.912 984.693,593.735C984.693,593.81 984.699,593.885 984.71,593.96L985.53,599.32L980.67,601.71C980.161,601.963 979.837,602.485 979.837,603.053C979.837,603.669 980.217,604.225 980.79,604.45L981.79,604.82L979.32,604.82C959.99,604.82 949.86,600.64 949.85,598.41L949.85,523L954.56,524.84L954.21,530.25C954.208,530.28 954.207,530.31 954.207,530.34C954.207,531.166 954.884,531.846 955.71,531.85C956.051,531.844 956.38,531.728 956.65,531.52L960.87,528.13L965.37,531.13C965.617,531.296 965.909,531.385 966.207,531.385C967.03,531.385 967.707,530.708 967.707,529.885C967.707,529.81 967.701,529.735 967.69,529.66L966.88,524.31L971.12,522.21L971.31,522.21C973.9,522.38 976.6,522.47 979.31,522.47C991.41,522.47 1003.62,520.65 1008.98,517.14L1008.98,597.69C1008.86,597.906 1008.79,598.151 1008.79,598.4C1008.71,599.2 1007.26,600.49 1003.72,601.72ZM1041.63,604.89C1022.56,604.89 1012.15,600.65 1012.15,598.47L1012.15,581.42C1012.4,581.477 1012.65,581.504 1012.9,581.5C1012.92,581.5 1012.94,581.5 1012.96,581.5C1014.96,581.5 1016.62,579.848 1016.62,577.84C1016.62,575.833 1014.96,574.18 1012.96,574.18C1012.68,574.18 1012.41,574.21 1012.15,574.27L1012.15,558C1012.41,558.057 1012.67,558.085 1012.93,558.085C1014.94,558.085 1016.59,556.433 1016.59,554.425C1016.59,552.417 1014.94,550.765 1012.93,550.765C1012.67,550.765 1012.41,550.793 1012.15,550.85L1012.15,534.55C1012.41,534.607 1012.67,534.635 1012.93,534.635C1014.94,534.635 1016.59,532.983 1016.59,530.975C1016.59,528.967 1014.94,527.315 1012.93,527.315C1012.67,527.315 1012.41,527.343 1012.15,527.4L1012.15,511.1C1012.41,511.157 1012.67,511.185 1012.93,511.185C1014.94,511.185 1016.59,509.533 1016.59,507.525C1016.59,505.517 1014.94,503.865 1012.93,503.865C1012.67,503.865 1012.41,503.893 1012.15,503.95L1012.15,482.41C1017.6,485.84 1029.67,487.62 1041.63,487.62C1053.59,487.62 1065.94,485.81 1071.29,482.29L1071.29,504C1070.97,503.899 1070.63,503.845 1070.29,503.84C1068.36,503.941 1066.82,505.559 1066.82,507.495C1066.82,509.431 1068.36,511.049 1070.29,511.15C1070.63,511.148 1070.97,511.098 1071.29,511L1071.29,527.45C1070.97,527.349 1070.63,527.295 1070.29,527.29C1068.36,527.391 1066.82,529.009 1066.82,530.945C1066.82,532.881 1068.36,534.499 1070.29,534.6C1070.63,534.598 1070.97,534.548 1071.29,534.45L1071.29,550.9C1070.97,550.799 1070.63,550.745 1070.29,550.74C1068.36,550.841 1066.82,552.459 1066.82,554.395C1066.82,556.331 1068.36,557.949 1070.29,558.05C1070.63,558.048 1070.97,557.998 1071.29,557.9L1071.29,574.35C1070.97,574.249 1070.63,574.195 1070.29,574.19C1068.36,574.291 1066.82,575.909 1066.82,577.845C1066.82,579.781 1068.36,581.399 1070.29,581.5C1070.63,581.498 1070.97,581.448 1071.29,581.35L1071.29,597.76C1071.17,597.979 1071.11,598.222 1071.11,598.47C1071.11,600.65 1060.7,604.89 1041.63,604.89ZM1104.09,604.89C1085.02,604.89 1074.62,600.65 1074.62,598.47L1074.62,441.47C1080.06,444.91 1092.13,446.69 1104.09,446.69C1116.05,446.69 1128.4,444.87 1133.76,441.36L1133.76,597.76C1133.63,597.976 1133.57,598.221 1133.57,598.47C1133.57,600.65 1123.17,604.89 1104.09,604.89Z" style="fill:white;fill-rule:nonzero;"/>
        </g>
        <g transform="matrix(1,0,0,1,-891.753,-367.89)">
            <path d="M1033.87,479.37C1036.44,479.736 1039.03,479.916 1041.63,479.91C1044.6,479.918 1047.56,479.681 1050.48,479.2C1051.21,479.078 1051.75,478.44 1051.75,477.7C1051.75,476.866 1051.06,476.179 1050.23,476.179C1050.15,476.179 1050.06,476.186 1049.98,476.2C1047.22,476.658 1044.43,476.882 1041.63,476.87C1039.18,476.876 1036.73,476.706 1034.3,476.36C1034.23,476.35 1034.16,476.345 1034.09,476.345C1033.25,476.345 1032.57,477.029 1032.57,477.86C1032.57,478.61 1033.13,479.254 1033.87,479.36L1033.87,479.37Z" style="fill:white;fill-rule:nonzero;"/>
        </g>
        <g transform="matrix(1,0,0,1,-891.753,-367.89)">
            <path d="M971.48,514.29C976.991,515.063 982.586,515.006 988.08,514.12C988.81,513.998 989.351,513.36 989.351,512.62C989.351,511.786 988.664,511.099 987.83,511.099C987.746,511.099 987.663,511.106 987.58,511.12C984.821,511.578 982.027,511.802 979.23,511.79C976.781,511.796 974.335,511.626 971.91,511.28C971.839,511.27 971.767,511.265 971.695,511.265C970.864,511.265 970.18,511.949 970.18,512.78C970.18,513.53 970.737,514.174 971.48,514.28L971.48,514.29Z" style="fill:white;fill-rule:nonzero;"/>
        </g>
        <g transform="matrix(1,0,0,1,-891.753,-367.89)">
            <path d="M1020.15,589.62C1020.14,589.62 1020.12,589.62 1020.11,589.62C1018.1,589.62 1016.45,591.272 1016.45,593.28C1016.45,595.288 1018.1,596.94 1020.11,596.94C1022.12,596.94 1023.77,595.288 1023.77,593.28C1023.77,593.277 1023.77,593.273 1023.77,593.27C1023.77,591.279 1022.14,589.636 1020.15,589.62Z" style="fill:white;fill-rule:nonzero;"/>
        </g>
        <g transform="matrix(1,0,0,1,-891.753,-367.89)">
            <path d="M1034.5,592.61C1034.49,592.61 1034.48,592.61 1034.47,592.61C1032.46,592.61 1030.81,594.262 1030.81,596.27C1030.81,598.278 1032.46,599.93 1034.47,599.93C1036.48,599.93 1038.13,598.278 1038.13,596.27C1038.14,594.271 1036.5,592.621 1034.5,592.61Z" style="fill:white;fill-rule:nonzero;"/>
        </g>
        <g transform="matrix(1,0,0,1,-891.753,-367.89)">
            <path d="M1048.9,592.61C1048.89,592.61 1048.88,592.61 1048.87,592.61C1046.86,592.61 1045.21,594.262 1045.21,596.27C1045.21,598.278 1046.86,599.93 1048.87,599.93C1050.88,599.93 1052.53,598.278 1052.53,596.27C1052.53,596.263 1052.53,596.257 1052.53,596.25C1052.53,594.257 1050.89,592.615 1048.9,592.61Z" style="fill:white;fill-rule:nonzero;"/>
        </g>
        <g transform="matrix(1,0,0,1,-891.753,-367.89)">
            <path d="M1056.78,577.85C1056.77,577.85 1056.75,577.85 1056.74,577.85C1054.73,577.85 1053.08,579.502 1053.08,581.51C1053.08,583.518 1054.73,585.17 1056.74,585.17C1058.75,585.17 1060.4,583.518 1060.4,581.51C1060.4,581.507 1060.4,581.503 1060.4,581.5C1060.41,579.507 1058.77,577.861 1056.78,577.85Z" style="fill:white;fill-rule:nonzero;"/>
        </g>
        <g transform="matrix(1,0,0,1,-891.753,-367.89)">
            <path d="M1042.45,580.34C1042.44,580.34 1042.43,580.34 1042.42,580.34C1040.41,580.34 1038.76,581.992 1038.76,584C1038.76,586.008 1040.41,587.66 1042.42,587.66C1044.43,587.66 1046.08,586.008 1046.08,584C1046.09,582.001 1044.45,580.351 1042.45,580.34Z" style="fill:white;fill-rule:nonzero;"/>
        </g>
        <g transform="matrix(1,0,0,1,-891.753,-367.89)">
            <path d="M1027.4,577.85C1027.39,577.85 1027.38,577.85 1027.37,577.85C1025.36,577.85 1023.71,579.502 1023.71,581.51C1023.71,583.518 1025.36,585.17 1027.37,585.17C1029.38,585.17 1031.03,583.518 1031.03,581.51L1031.03,581.49C1031.03,579.497 1029.39,577.855 1027.4,577.85Z" style="fill:white;fill-rule:nonzero;"/>
        </g>
        <g transform="matrix(1,0,0,1,-891.753,-367.89)">
            <path d="M1056.78,560.89C1056.79,560.89 1056.8,560.89 1056.81,560.89C1058.82,560.89 1060.47,559.238 1060.47,557.23C1060.47,555.222 1058.82,553.57 1056.81,553.57C1054.8,553.57 1053.15,555.222 1053.15,557.23C1053.15,557.237 1053.15,557.243 1053.15,557.25C1053.15,559.243 1054.79,560.885 1056.78,560.89Z" style="fill:white;fill-rule:nonzero;"/>
        </g>
        <g transform="matrix(1,0,0,1,-891.753,-367.89)">
            <path d="M1042.45,563.38C1042.46,563.38 1042.47,563.38 1042.48,563.38C1044.49,563.38 1046.14,561.728 1046.14,559.72C1046.14,557.712 1044.49,556.06 1042.48,556.06C1040.47,556.06 1038.82,557.712 1038.82,559.72L1038.82,559.74C1038.82,561.733 1040.46,563.375 1042.45,563.38Z" style="fill:white;fill-rule:nonzero;"/>
        </g>
        <g transform="matrix(1,0,0,1,-891.753,-367.89)">
            <path d="M1023.77,557.23C1023.78,559.214 1025.42,560.84 1027.4,560.84C1029.39,560.84 1031.03,559.201 1031.03,557.21C1031.03,555.219 1029.39,553.58 1027.4,553.58C1025.4,553.591 1023.77,555.235 1023.77,557.23Z" style="fill:white;fill-rule:nonzero;"/>
        </g>
        <g transform="matrix(1,0,0,1,-891.753,-367.89)">
            <path d="M1056.78,535.66C1056.79,535.66 1056.8,535.66 1056.81,535.66C1058.82,535.66 1060.47,534.008 1060.47,532C1060.47,529.992 1058.82,528.34 1056.81,528.34C1054.8,528.34 1053.15,529.992 1053.15,532C1053.15,532.007 1053.15,532.013 1053.15,532.02C1053.15,534.013 1054.79,535.655 1056.78,535.66Z" style="fill:white;fill-rule:nonzero;"/>
        </g>
        <g transform="matrix(1,0,0,1,-891.753,-367.89)">
            <path d="M1042.45,538.15C1042.46,538.15 1042.47,538.15 1042.48,538.15C1044.49,538.15 1046.14,536.498 1046.14,534.49C1046.14,532.482 1044.49,530.83 1042.48,530.83C1040.47,530.83 1038.82,532.482 1038.82,534.49C1038.82,534.493 1038.82,534.497 1038.82,534.5C1038.82,536.495 1040.45,538.139 1042.45,538.15Z" style="fill:white;fill-rule:nonzero;"/>
        </g>
        <g transform="matrix(1,0,0,1,-891.753,-367.89)">
            <path d="M1027.4,528.35C1027.38,528.35 1027.36,528.35 1027.34,528.35C1025.33,528.35 1023.68,530.002 1023.68,532.01C1023.68,534.017 1025.33,535.67 1027.34,535.67C1029.35,535.67 1031,534.017 1031,532.01C1031,532.006 1031,532.003 1031,532C1031.01,530.014 1029.38,528.372 1027.4,528.35Z" style="fill:white;fill-rule:nonzero;"/>
        </g>
        <g transform="matrix(1,0,0,1,-891.753,-367.89)">
            <path d="M1063.91,589.62C1063.9,589.62 1063.89,589.62 1063.88,589.62C1061.87,589.62 1060.22,591.272 1060.22,593.28C1060.22,595.288 1061.87,596.94 1063.88,596.94C1065.89,596.94 1067.54,595.288 1067.54,593.28L1067.54,593.26C1067.54,591.267 1065.9,589.625 1063.91,589.62Z" style="fill:white;fill-rule:nonzero;"/>
        </g>
        <g transform="matrix(1,0,0,1,-891.753,-367.89)">
            <path d="M1020.15,572.19C1020.16,572.19 1020.17,572.19 1020.18,572.19C1022.19,572.19 1023.84,570.538 1023.84,568.53C1023.84,566.522 1022.19,564.87 1020.18,564.87C1018.17,564.87 1016.52,566.522 1016.52,568.53C1016.52,568.537 1016.52,568.543 1016.52,568.55C1016.52,570.543 1018.16,572.185 1020.15,572.19Z" style="fill:white;fill-rule:nonzero;"/>
        </g>
        <g transform="matrix(1,0,0,1,-891.753,-367.89)">
            <path d="M1034.5,567.87C1034.49,567.87 1034.48,567.87 1034.47,567.87C1032.46,567.87 1030.81,569.522 1030.81,571.53C1030.81,573.538 1032.46,575.19 1034.47,575.19C1036.48,575.19 1038.13,573.538 1038.13,571.53C1038.14,569.531 1036.5,567.881 1034.5,567.87Z" style="fill:white;fill-rule:nonzero;"/>
        </g>
        <g transform="matrix(1,0,0,1,-891.753,-367.89)">
            <path d="M1048.9,567.87C1048.89,567.87 1048.88,567.87 1048.87,567.87C1046.86,567.87 1045.21,569.522 1045.21,571.53C1045.21,573.538 1046.86,575.19 1048.87,575.19C1050.88,575.19 1052.53,573.538 1052.53,571.53C1052.53,571.523 1052.53,571.517 1052.53,571.51C1052.53,569.517 1050.89,567.875 1048.9,567.87Z" style="fill:white;fill-rule:nonzero;"/>
        </g>
        <g transform="matrix(1,0,0,1,-891.753,-367.89)">
            <path d="M1063.91,564.88L1063.88,564.88C1061.87,564.88 1060.22,566.532 1060.22,568.54C1060.22,570.548 1061.87,572.2 1063.88,572.2C1065.89,572.2 1067.54,570.548 1067.54,568.54L1067.54,568.51C1067.54,566.519 1065.9,564.88 1063.91,564.88Z" style="fill:white;fill-rule:nonzero;"/>
        </g>
        <g transform="matrix(1,0,0,1,-891.753,-367.89)">
            <path d="M1020.15,546.78C1020.16,546.78 1020.17,546.78 1020.18,546.78C1022.19,546.78 1023.84,545.128 1023.84,543.12C1023.84,541.112 1022.19,539.46 1020.18,539.46C1018.17,539.46 1016.52,541.112 1016.52,543.12C1016.52,543.127 1016.52,543.133 1016.52,543.14C1016.52,545.133 1018.16,546.775 1020.15,546.78Z" style="fill:white;fill-rule:nonzero;"/>
        </g>
        <g transform="matrix(1,0,0,1,-891.753,-367.89)">
            <path d="M1034.5,542.46C1034.49,542.46 1034.48,542.46 1034.47,542.46C1032.46,542.46 1030.81,544.112 1030.81,546.12C1030.81,548.128 1032.46,549.78 1034.47,549.78C1036.48,549.78 1038.13,548.128 1038.13,546.12C1038.13,546.117 1038.13,546.113 1038.13,546.11C1038.13,544.115 1036.5,542.471 1034.5,542.46Z" style="fill:white;fill-rule:nonzero;"/>
        </g>
        <g transform="matrix(1,0,0,1,-891.753,-367.89)">
            <path d="M1048.9,542.46C1048.89,542.46 1048.88,542.46 1048.87,542.46C1046.86,542.46 1045.21,544.112 1045.21,546.12C1045.21,548.128 1046.86,549.78 1048.87,549.78C1050.88,549.78 1052.53,548.128 1052.53,546.12L1052.53,546.1C1052.53,544.107 1050.89,542.465 1048.9,542.46Z" style="fill:white;fill-rule:nonzero;"/>
        </g>
        <g transform="matrix(1,0,0,1,-891.753,-367.89)">
            <path d="M1063.91,539.47L1063.88,539.47C1061.87,539.47 1060.22,541.122 1060.22,543.13C1060.22,545.138 1061.87,546.79 1063.88,546.79C1065.89,546.79 1067.54,545.138 1067.54,543.13L1067.54,543.1C1067.54,541.109 1065.9,539.47 1063.91,539.47Z" style="fill:white;fill-rule:nonzero;"/>
        </g>
        <g transform="matrix(1,0,0,1,-891.753,-367.89)">
            <path d="M1056.78,510.43C1056.79,510.43 1056.8,510.43 1056.81,510.43C1058.82,510.43 1060.47,508.778 1060.47,506.77C1060.47,504.762 1058.82,503.11 1056.81,503.11C1054.8,503.11 1053.15,504.762 1053.15,506.77C1053.15,506.777 1053.15,506.783 1053.15,506.79C1053.15,508.783 1054.79,510.425 1056.78,510.43Z" style="fill:white;fill-rule:nonzero;"/>
        </g>
        <g transform="matrix(1,0,0,1,-891.753,-367.89)">
            <path d="M1042.45,512.92C1042.46,512.92 1042.47,512.92 1042.48,512.92C1044.49,512.92 1046.14,511.268 1046.14,509.26C1046.14,507.252 1044.49,505.6 1042.48,505.6C1040.47,505.6 1038.82,507.252 1038.82,509.26C1038.81,511.259 1040.45,512.909 1042.45,512.92Z" style="fill:white;fill-rule:nonzero;"/>
        </g>
        <g transform="matrix(1,0,0,1,-891.753,-367.89)">
            <path d="M1027.4,510.43C1027.41,510.43 1027.42,510.43 1027.43,510.43C1029.44,510.43 1031.09,508.778 1031.09,506.77C1031.09,504.762 1029.44,503.11 1027.43,503.11C1025.42,503.11 1023.77,504.762 1023.77,506.77C1023.76,508.769 1025.4,510.419 1027.4,510.43Z" style="fill:white;fill-rule:nonzero;"/>
        </g>
        <g transform="matrix(1,0,0,1,-891.753,-367.89)">
            <path d="M1020.15,496.63C1020.16,496.63 1020.17,496.63 1020.18,496.63C1022.19,496.63 1023.84,494.978 1023.84,492.97C1023.84,490.962 1022.19,489.31 1020.18,489.31C1018.17,489.31 1016.52,490.962 1016.52,492.97L1016.52,492.99C1016.52,494.983 1018.16,496.625 1020.15,496.63Z" style="fill:white;fill-rule:nonzero;"/>
        </g>
        <g transform="matrix(1,0,0,1,-891.753,-367.89)">
            <path d="M1034.5,492.31C1034.49,492.31 1034.48,492.31 1034.47,492.31C1032.46,492.31 1030.81,493.962 1030.81,495.97C1030.81,497.978 1032.46,499.63 1034.47,499.63C1036.48,499.63 1038.13,497.978 1038.13,495.97C1038.14,493.971 1036.5,492.321 1034.5,492.31Z" style="fill:white;fill-rule:nonzero;"/>
        </g>
        <g transform="matrix(1,0,0,1,-891.753,-367.89)">
            <path d="M1048.9,492.31C1048.89,492.31 1048.88,492.31 1048.87,492.31C1046.86,492.31 1045.21,493.962 1045.21,495.97C1045.21,497.978 1046.86,499.63 1048.87,499.63C1050.88,499.63 1052.53,497.978 1052.53,495.97C1052.53,495.963 1052.53,495.957 1052.53,495.95C1052.53,493.957 1050.89,492.315 1048.9,492.31Z" style="fill:white;fill-rule:nonzero;"/>
        </g>
        <g transform="matrix(1,0,0,1,-891.753,-367.89)">
            <path d="M1063.91,496.63C1063.92,496.63 1063.94,496.63 1063.95,496.63C1065.96,496.63 1067.61,494.978 1067.61,492.97C1067.61,490.962 1065.96,489.31 1063.95,489.31C1061.94,489.31 1060.29,490.962 1060.29,492.97C1060.29,492.973 1060.29,492.977 1060.29,492.98C1060.29,494.971 1061.92,496.614 1063.91,496.63Z" style="fill:white;fill-rule:nonzero;"/>
        </g>
        <g transform="matrix(1,0,0,1,-891.753,-367.89)">
            <path d="M1020.15,522.2C1020.16,522.2 1020.17,522.2 1020.18,522.2C1022.19,522.2 1023.84,520.548 1023.84,518.54C1023.84,516.532 1022.19,514.88 1020.18,514.88C1018.17,514.88 1016.52,516.532 1016.52,518.54L1016.52,518.56C1016.52,520.553 1018.16,522.195 1020.15,522.2Z" style="fill:white;fill-rule:nonzero;"/>
        </g>
        <g transform="matrix(1,0,0,1,-891.753,-367.89)">
            <path d="M1034.5,517.88C1034.49,517.88 1034.48,517.88 1034.47,517.88C1032.46,517.88 1030.81,519.532 1030.81,521.54C1030.81,523.548 1032.46,525.2 1034.47,525.2C1036.48,525.2 1038.13,523.548 1038.13,521.54C1038.14,519.541 1036.5,517.891 1034.5,517.88Z" style="fill:white;fill-rule:nonzero;"/>
        </g>
        <g transform="matrix(1,0,0,1,-891.753,-367.89)">
            <path d="M1048.9,517.88C1048.89,517.88 1048.88,517.88 1048.87,517.88C1046.86,517.88 1045.21,519.532 1045.21,521.54C1045.21,523.548 1046.86,525.2 1048.87,525.2C1050.88,525.2 1052.53,523.548 1052.53,521.54C1052.53,521.533 1052.53,521.527 1052.53,521.52C1052.53,519.527 1050.89,517.885 1048.9,517.88Z" style="fill:white;fill-rule:nonzero;"/>
        </g>
        <g transform="matrix(1,0,0,1,-891.753,-367.89)">
            <path d="M1063.91,514.89C1063.9,514.89 1063.89,514.89 1063.88,514.89C1061.87,514.89 1060.22,516.542 1060.22,518.55C1060.22,520.558 1061.87,522.21 1063.88,522.21C1065.89,522.21 1067.54,520.558 1067.54,518.55C1067.54,518.543 1067.54,518.537 1067.54,518.53C1067.54,516.537 1065.9,514.895 1063.91,514.89Z" style="fill:white;fill-rule:nonzero;"/>
        </g>
        <g transform="matrix(1,0,0,1,-891.753,-367.89)">
            <path d="M1089.64,449.27C1089.05,448.714 1088.11,448.714 1087.52,449.27L1080.22,456.58C1079.94,456.86 1079.78,457.242 1079.78,457.64C1079.78,458.038 1079.94,458.42 1080.22,458.7L1087.52,466.01C1087.8,466.289 1088.18,466.446 1088.58,466.45C1088.98,466.451 1089.36,466.292 1089.64,466.01L1096.95,458.7C1097.23,458.42 1097.39,458.038 1097.39,457.64C1097.39,457.242 1097.23,456.86 1096.95,456.58L1089.64,449.27ZM1088.58,462.83L1083.4,457.64L1088.58,452.46L1093.77,457.64L1088.58,462.83Z" style="fill:white;fill-rule:nonzero;"/>
        </g>
        <g transform="matrix(1,0,0,1,-891.753,-367.89)">
            <path d="M1122.82,449.27C1122.23,448.714 1121.29,448.714 1120.7,449.27L1113.4,456.58C1113.12,456.859 1112.96,457.242 1112.96,457.64C1112.96,458.038 1113.12,458.422 1113.4,458.7L1120.7,466.01C1120.98,466.289 1121.36,466.446 1121.76,466.45C1122.16,466.451 1122.54,466.292 1122.82,466.01L1130.13,458.7C1130.41,458.42 1130.57,458.038 1130.57,457.64C1130.57,457.242 1130.41,456.86 1130.13,456.58L1122.82,449.27ZM1121.76,462.83L1116.58,457.64L1121.76,452.46L1126.95,457.64L1121.76,462.83Z" style="fill:white;fill-rule:nonzero;"/>
        </g>
        <g transform="matrix(1,0,0,1,-891.753,-367.89)">
            <path d="M1105.67,484.16C1105.95,484.439 1106.33,484.596 1106.73,484.6C1107.13,484.601 1107.51,484.442 1107.79,484.16L1115.1,476.85C1115.38,476.57 1115.54,476.188 1115.54,475.79C1115.54,475.392 1115.38,475.01 1115.1,474.73L1107.79,467.43C1107.51,467.147 1107.13,466.987 1106.73,466.987C1106.33,466.987 1105.95,467.147 1105.67,467.43L1098.37,474.73C1097.79,475.312 1097.79,476.268 1098.37,476.85L1105.67,484.16ZM1106.73,470.61L1111.92,475.79L1106.73,480.98L1101.55,475.79L1106.73,470.61Z" style="fill:white;fill-rule:nonzero;"/>
        </g>
        <g transform="matrix(1,0,0,1,-891.753,-367.89)">
            <path d="M1089.64,488.3C1089.06,487.724 1088.1,487.724 1087.52,488.3L1080.22,495.61C1079.94,495.89 1079.78,496.272 1079.78,496.67C1079.78,497.068 1079.94,497.45 1080.22,497.73L1087.52,505.04C1087.8,505.319 1088.18,505.476 1088.58,505.48C1088.98,505.481 1089.36,505.322 1089.64,505.04L1096.95,497.73C1097.23,497.45 1097.39,497.068 1097.39,496.67C1097.39,496.272 1097.23,495.89 1096.95,495.61L1089.64,488.3ZM1088.58,501.85L1083.4,496.67L1088.58,491.48L1093.77,496.67L1088.58,501.85Z" style="fill:white;fill-rule:nonzero;"/>
        </g>
        <g transform="matrix(1,0,0,1,-891.753,-367.89)">
            <path d="M1122.82,488.3C1122.24,487.724 1121.28,487.724 1120.7,488.3L1113.4,495.61C1112.82,496.192 1112.82,497.148 1113.4,497.73L1120.7,505.04C1120.98,505.319 1121.36,505.476 1121.76,505.48C1122.16,505.481 1122.54,505.322 1122.82,505.04L1130.13,497.73C1130.41,497.45 1130.57,497.068 1130.57,496.67C1130.57,496.272 1130.41,495.89 1130.13,495.61L1122.82,488.3ZM1121.76,501.85L1116.58,496.67L1121.76,491.48L1126.95,496.67L1121.76,501.85Z" style="fill:white;fill-rule:nonzero;"/>
        </g>
        <g transform="matrix(1,0,0,1,-891.753,-367.89)">
            <path d="M1105.67,523.19C1106.25,523.771 1107.21,523.771 1107.79,523.19L1115.1,515.88C1115.38,515.6 1115.54,515.218 1115.54,514.82C1115.54,514.422 1115.38,514.04 1115.1,513.76L1107.79,506.45C1107.21,505.874 1106.25,505.874 1105.67,506.45L1098.37,513.76C1097.79,514.342 1097.79,515.298 1098.37,515.88L1105.67,523.19ZM1106.73,509.63L1111.92,514.82L1106.73,520.01L1101.55,514.82L1106.73,509.63Z" style="fill:white;fill-rule:nonzero;"/>
        </g>
        <g transform="matrix(1,0,0,1,-891.753,-367.89)">
            <path d="M1089.64,527.33C1089.36,527.047 1088.98,526.887 1088.58,526.887C1088.18,526.887 1087.8,527.047 1087.52,527.33L1080.22,534.64C1079.94,534.92 1079.78,535.302 1079.78,535.7C1079.78,536.098 1079.94,536.48 1080.22,536.76L1087.52,544.06C1087.8,544.343 1088.18,544.502 1088.58,544.5C1088.98,544.505 1089.36,544.346 1089.64,544.06L1096.95,536.76C1097.23,536.48 1097.39,536.098 1097.39,535.7C1097.39,535.302 1097.23,534.92 1096.95,534.64L1089.64,527.33ZM1088.58,540.88L1083.4,535.7L1088.58,530.51L1093.77,535.7L1088.58,540.88Z" style="fill:white;fill-rule:nonzero;"/>
        </g>
        <g transform="matrix(1,0,0,1,-891.753,-367.89)">
            <path d="M1122.82,527.33C1122.54,527.047 1122.16,526.887 1121.76,526.887C1121.36,526.887 1120.98,527.047 1120.7,527.33L1113.4,534.64C1113.12,534.918 1112.96,535.302 1112.96,535.7C1112.96,536.098 1113.12,536.481 1113.4,536.76L1120.7,544.06C1120.98,544.343 1121.36,544.502 1121.76,544.5C1122.16,544.505 1122.54,544.346 1122.82,544.06L1130.13,536.76C1130.41,536.48 1130.57,536.098 1130.57,535.7C1130.57,535.302 1130.41,534.92 1130.13,534.64L1122.82,527.33ZM1121.76,540.88L1116.58,535.7L1121.76,530.51L1126.95,535.7L1121.76,540.88Z" style="fill:white;fill-rule:nonzero;"/>
        </g>
        <g transform="matrix(1,0,0,1,-891.753,-367.89)">
            <path d="M1105.67,562.21C1105.95,562.493 1106.33,562.652 1106.73,562.65C1107.13,562.655 1107.51,562.496 1107.79,562.21L1115.1,554.91C1115.38,554.63 1115.54,554.248 1115.54,553.85C1115.54,553.452 1115.38,553.07 1115.1,552.79L1107.79,545.48C1107.51,545.197 1107.13,545.037 1106.73,545.037C1106.33,545.037 1105.95,545.197 1105.67,545.48L1098.37,552.79C1098.09,553.068 1097.93,553.452 1097.93,553.85C1097.93,554.248 1098.09,554.631 1098.37,554.91L1105.67,562.21ZM1106.73,548.66L1111.92,553.85L1106.73,559.03L1101.55,553.85L1106.73,548.66Z" style="fill:white;fill-rule:nonzero;"/>
        </g>
        <g transform="matrix(1,0,0,1,-891.753,-367.89)">
            <path d="M1089.64,566.36C1089.05,565.795 1088.11,565.795 1087.52,566.36L1080.22,573.66C1079.94,573.94 1079.78,574.322 1079.78,574.72C1079.78,575.118 1079.94,575.5 1080.22,575.78L1087.52,583.09C1087.8,583.369 1088.18,583.526 1088.58,583.53C1088.98,583.531 1089.36,583.372 1089.64,583.09L1096.95,575.78C1097.23,575.5 1097.39,575.118 1097.39,574.72C1097.39,574.322 1097.23,573.94 1096.95,573.66L1089.64,566.36ZM1088.58,579.91L1083.4,574.72L1088.58,569.54L1093.77,574.72L1088.58,579.91Z" style="fill:white;fill-rule:nonzero;"/>
        </g>
        <g transform="matrix(1,0,0,1,-891.753,-367.89)">
            <path d="M1122.82,566.36C1122.54,566.075 1122.16,565.916 1121.76,565.92C1121.36,565.917 1120.98,566.076 1120.7,566.36L1113.4,573.66C1113.12,573.939 1112.96,574.322 1112.96,574.72C1112.96,575.118 1113.12,575.502 1113.4,575.78L1120.7,583.09C1120.98,583.369 1121.36,583.526 1121.76,583.53C1122.16,583.531 1122.54,583.372 1122.82,583.09L1130.13,575.78C1130.41,575.5 1130.57,575.118 1130.57,574.72C1130.57,574.322 1130.41,573.94 1130.13,573.66L1122.82,566.36ZM1121.76,579.91L1116.58,574.72L1121.76,569.54L1126.95,574.72L1121.76,579.91Z" style="fill:white;fill-rule:nonzero;"/>
        </g>
        <g transform="matrix(1,0,0,1,-891.753,-367.89)">
            <path d="M1107.79,584.51C1107.51,584.227 1107.13,584.067 1106.73,584.067C1106.33,584.067 1105.95,584.227 1105.67,584.51L1098.37,591.81C1098.09,592.089 1097.93,592.472 1097.93,592.87C1097.93,593.268 1098.09,593.652 1098.37,593.93L1105.67,601.24C1105.95,601.519 1106.33,601.676 1106.73,601.68C1107.13,601.681 1107.51,601.522 1107.79,601.24L1115.1,593.93C1115.38,593.65 1115.54,593.268 1115.54,592.87C1115.54,592.472 1115.38,592.09 1115.1,591.81L1107.79,584.51ZM1106.73,598.06L1101.55,592.87L1106.73,587.69L1111.92,592.87L1106.73,598.06Z" style="fill:white;fill-rule:nonzero;"/>
        </g>
        <g transform="matrix(1,0,0,1,-891.753,-367.89)">
            <path d="M1004.85,535L999.8,533L1000.16,527.6C1000.16,527.565 1000.16,527.531 1000.16,527.496C1000.16,526.673 999.486,525.996 998.664,525.996C998.32,525.996 997.987,526.114 997.72,526.33L993.5,529.71L988.99,526.71C988.743,526.541 988.45,526.451 988.151,526.451C987.333,526.451 986.661,527.124 986.661,527.941C986.661,528.021 986.667,528.101 986.68,528.18L987.49,533.53L982.64,535.93C982.104,536.189 981.773,536.745 981.8,537.34C981.837,537.942 982.232,538.467 982.8,538.67L987.8,540.67L987.45,546.07C987.404,546.663 987.721,547.228 988.25,547.5C988.462,547.613 988.699,547.672 988.94,547.67C989.282,547.672 989.614,547.555 989.88,547.34L994.11,543.96L998.61,546.96C998.855,547.12 999.142,547.206 999.435,547.206C1000.26,547.206 1000.95,546.524 1000.95,545.696C1000.95,545.623 1000.94,545.551 1000.93,545.48L1000.11,540.13L1004.97,537.73C1005.48,537.477 1005.8,536.955 1005.8,536.387C1005.8,535.771 1005.42,535.215 1004.85,534.99L1004.85,535ZM997.8,538C997.211,538.283 996.876,538.925 996.98,539.57L997.45,542.64L994.86,540.91C994.317,540.549 993.598,540.582 993.09,540.99L990.66,542.93L990.86,539.83C990.898,539.165 990.488,538.551 989.86,538.33L987,537.15L989.79,535.78C990.372,535.485 990.701,534.845 990.6,534.2L990.14,531.13L992.72,532.86C993.263,533.221 993.982,533.188 994.49,532.78L996.92,530.84L996.72,533.94C996.686,534.604 997.094,535.216 997.72,535.44L1000.62,536.57L997.8,538Z" style="fill:white;fill-rule:nonzero;"/>
        </g>
        <g transform="matrix(1,0,0,1,-891.753,-367.89)">
            <path d="M977.32,549L972.32,547L972.67,541.6C972.672,541.568 972.673,541.536 972.673,541.504C972.673,540.682 971.996,540.004 971.173,540.004C970.834,540.004 970.505,540.119 970.24,540.33L966,543.71L961.5,540.71C961.004,540.38 960.356,540.38 959.86,540.71C959.359,541.028 959.092,541.614 959.18,542.2L960,547.55L955.14,549.95C954.631,550.203 954.307,550.725 954.307,551.293C954.307,551.909 954.687,552.465 955.26,552.69L960.26,554.69L959.91,560.09C959.87,560.682 960.185,561.244 960.71,561.52C960.925,561.635 961.166,561.693 961.41,561.69C961.749,561.69 962.077,561.574 962.34,561.36L966.57,557.98L971.07,560.98C971.315,561.14 971.602,561.226 971.895,561.226C972.724,561.226 973.405,560.544 973.405,559.716C973.405,559.643 973.4,559.571 973.39,559.5L972.57,554.15L977.43,551.75C977.947,551.503 978.278,550.979 978.278,550.405C978.278,549.785 977.891,549.227 977.31,549.01L977.32,549ZM970.27,551.94C969.685,552.228 969.352,552.866 969.45,553.51L969.92,556.58L967.33,554.85C966.787,554.489 966.068,554.522 965.56,554.93L963.14,556.87L963.34,553.77C963.374,553.106 962.966,552.494 962.34,552.27L959.44,551.14L962.23,549.77C962.818,549.481 963.152,548.838 963.05,548.19L962.58,545.12L965.17,546.85C965.713,547.211 966.432,547.178 966.94,546.77L969.37,544.83L969.16,547.93C969.129,548.593 969.536,549.204 970.16,549.43L973.05,550.56L970.27,551.94Z" style="fill:white;fill-rule:nonzero;"/>
        </g>
        <g transform="matrix(1,0,0,1,-891.753,-367.89)">
            <path d="M974.9,586L969.9,584L970.25,578.59C970.252,578.558 970.253,578.526 970.253,578.494C970.253,577.672 969.576,576.994 968.753,576.994C968.414,576.994 968.085,577.109 967.82,577.32L963.59,580.71L959.09,577.71C958.843,577.544 958.551,577.455 958.253,577.455C957.43,577.455 956.753,578.132 956.753,578.955C956.753,579.03 956.759,579.105 956.77,579.18L957.59,584.54L952.73,586.93C952.222,587.186 951.901,587.709 951.901,588.278C951.901,588.894 952.278,589.451 952.85,589.68L957.85,591.68L957.5,597.08C957.465,597.671 957.778,598.231 958.3,598.51C958.829,598.785 959.474,598.723 959.94,598.35L964.16,594.96L968.67,597.96C968.915,598.122 969.202,598.208 969.496,598.208C970.319,598.208 970.996,597.531 970.996,596.708C970.996,596.635 970.991,596.562 970.98,596.49L970.17,591.13L975.02,588.74C975.551,588.475 975.88,587.923 975.86,587.33C975.832,586.737 975.454,586.213 974.9,586ZM967.9,588.93C967.322,589.225 966.992,589.857 967.08,590.5L967.55,593.58L964.97,591.85C964.427,591.489 963.708,591.522 963.2,591.93L960.77,593.87L960.97,590.76C961.01,590.111 960.625,589.507 960.02,589.27L957.12,588.14L959.91,586.76C960.497,586.474 960.831,585.835 960.73,585.19L960.26,582.12L962.85,583.84C963.39,584.207 964.111,584.178 964.62,583.77L967.05,581.77L966.84,584.88C966.81,585.541 967.217,586.147 967.84,586.37L970.73,587.5L967.9,588.93Z" style="fill:white;fill-rule:nonzero;"/>
        </g>
        <g transform="matrix(1,0,0,1,-891.753,-367.89)">
            <path d="M1002.84,568.46L997.84,566.46L998.19,561.06C998.192,561.028 998.193,560.996 998.193,560.964C998.193,560.142 997.516,559.464 996.693,559.464C996.354,559.464 996.025,559.579 995.76,559.79L991.53,563.17L987.03,560.17C986.785,560.01 986.498,559.924 986.205,559.924C985.376,559.924 984.695,560.606 984.695,561.434C984.695,561.507 984.7,561.579 984.71,561.65L985.53,567L980.67,569.4C980.161,569.653 979.837,570.175 979.837,570.743C979.837,571.359 980.217,571.915 980.79,572.14L985.79,574.14L985.44,579.54C985.405,580.131 985.718,580.691 986.24,580.97C986.457,581.08 986.697,581.138 986.94,581.14C987.279,581.14 987.607,581.024 987.87,580.81L992.1,577.43L996.6,580.43C996.845,580.59 997.132,580.676 997.425,580.676C998.254,580.676 998.935,579.994 998.935,579.166C998.935,579.093 998.93,579.021 998.92,578.95L998.1,573.6L1002.96,571.2C1003.48,570.953 1003.81,570.429 1003.81,569.855C1003.81,569.235 1003.42,568.677 1002.84,568.46ZM995.79,571.39C995.206,571.697 994.885,572.35 995,573L995.47,576.07L992.88,574.34C992.337,573.979 991.618,574.012 991.11,574.42L988.69,576.36L988.89,573.26C988.924,572.596 988.516,571.984 987.89,571.76L985,570.6L987.79,569.23C988.378,568.941 988.712,568.298 988.61,567.65L988.14,564.58L990.73,566.31C991.273,566.671 991.992,566.638 992.5,566.23L994.93,564.29L994.72,567.39C994.689,568.053 995.096,568.664 995.72,568.89L998.61,570.02L995.79,571.39Z" style="fill:white;fill-rule:nonzero;"/>
        </g>
    </g>
</svg>
