<?xml version="1.0" encoding="UTF-8" standalone="no"?>
<!DOCTYPE svg PUBLIC "-//W3C//DTD SVG 1.1//EN" "http://www.w3.org/Graphics/SVG/1.1/DTD/svg11.dtd">
<svg width="100%" height="100%" viewBox="0 0 300 300" version="1.1" xmlns="http://www.w3.org/2000/svg" xmlns:xlink="http://www.w3.org/1999/xlink" xml:space="preserve" xmlns:serif="http://www.serif.com/" style="fill-rule:evenodd;clip-rule:evenodd;stroke-linejoin:round;stroke-miterlimit:2;">
    <g transform="matrix(1,0,0,1,-1740.72,-367.899)">
        <path d="M1984.5,475.17L1982.59,475.17L1982.59,473C1982.46,468.74 1979.21,465.28 1975.35,465.28L1961.35,465.28L1961.35,430.89L1969,430.89L1969,436.22C1969,437.043 1969.68,437.72 1970.5,437.72C1971.32,437.72 1972,437.043 1972,436.22L1972,429.39C1972,428.567 1971.32,427.89 1970.5,427.89L1949.06,427.89C1948.24,427.89 1947.56,428.567 1947.56,429.39C1947.56,429.512 1947.58,429.632 1947.61,429.75L1947.61,436.22C1947.61,437.043 1948.29,437.72 1949.11,437.72C1949.93,437.72 1950.61,437.043 1950.61,436.22L1950.61,430.89L1958.32,430.89L1958.32,465.26L1830.43,465.26C1825.55,465.26 1821.58,469.64 1821.58,475.08L1822.24,490.21L1818.24,490.21L1819.98,474.39C1820.26,472.011 1818.65,469.79 1816.3,469.31L1815.49,468.98C1815.38,468.93 1815.25,468.897 1815.13,468.88C1814.48,468.791 1813.82,468.968 1813.3,469.37C1812.81,469.759 1812.48,470.314 1812.37,470.93L1803.58,501.32C1803.57,501.387 1803.57,501.453 1803.58,501.52C1803.31,503.041 1803.72,504.608 1804.72,505.79C1806.15,507.186 1808.05,507.996 1810.05,508.06L1810.05,514.06C1810.07,515.413 1809.6,516.729 1808.72,517.76C1807.97,518.645 1806.88,519.163 1805.72,519.18C1803.34,519.18 1801.41,516.88 1801.41,514.06L1801.41,473.84L1804.51,471.04C1805.83,470.008 1806.6,468.416 1806.58,466.74L1806.58,462.74C1806.6,461.328 1805.79,460.028 1804.51,459.43C1803.36,458.913 1802.01,459.13 1801.08,459.98L1796.08,464.31L1791.55,468.61C1791.02,469.138 1790.71,469.859 1790.71,470.61L1790.71,515.15C1790.67,519.464 1792.22,523.645 1795.06,526.89L1795.15,526.99C1797.83,530.048 1801.69,531.815 1805.75,531.84C1814.04,531.84 1820.75,524.35 1820.75,515.12L1820.61,508.12L1823,508.12L1823.53,520.4C1823.43,523.778 1825.58,526.84 1828.79,527.9L1830.37,538.59C1830.36,540.291 1831.54,541.785 1833.2,542.16L1833.2,549.83C1832.38,549.83 1831.7,550.507 1831.7,551.33C1831.7,552.153 1832.38,552.83 1833.2,552.83L1833.2,557.69C1833.2,558.513 1833.88,559.19 1834.7,559.19C1835.52,559.19 1836.2,558.513 1836.2,557.69L1836.2,552.82C1837.02,552.82 1837.7,552.143 1837.7,551.32C1837.7,550.497 1837.02,549.82 1836.2,549.82L1836.2,542.16C1837.76,542.03 1839.01,540.54 1839.2,538.56L1840.65,528C1843.33,527.42 1845.65,525 1847.43,521.12C1850.77,513.58 1854.29,506.73 1858.89,498.12C1860.3,495.47 1862.95,492.78 1865.26,492.78L1920.89,492.78C1929.89,492.78 1937.19,501.95 1937.19,513.22L1937.19,558.82C1937.19,561.45 1935.37,563.59 1933.19,563.59L1827.34,563.59C1825.28,563.62 1823.38,564.73 1822.34,566.51C1821.06,568.615 1820.97,571.239 1822.09,573.43L1823.44,576.1C1825.05,579.587 1826.95,582.932 1829.12,586.1C1830.74,588.299 1833.3,589.618 1836.03,589.66L1848.85,589.66C1849.53,592.92 1851.67,600.76 1856.65,600.76L1860.96,600.76C1861.34,604.791 1864.77,607.908 1868.82,607.908C1872.86,607.908 1876.29,604.791 1876.67,600.76L1881.41,600.76C1885.99,600.76 1888.34,593.05 1889.16,589.66L1933.7,589.66C1934.96,592.77 1938.97,601.34 1944.58,601.34L1951.52,601.34C1952.16,605.116 1955.46,607.908 1959.29,607.908C1963.12,607.908 1966.42,605.116 1967.06,601.34L1976,601.34C1980.09,601.34 1983.41,597.69 1983.41,593.21L1983.41,578.54L1982.83,502.07L1984.54,502.07C1988.61,502.07 1990.74,495.3 1990.74,488.62C1990.74,481.94 1988.57,475.17 1984.5,475.17ZM1793.7,470.67L1798.08,466.51L1803.08,462.2C1803.19,462.1 1803.25,462.11 1803.31,462.14C1803.51,462.256 1803.62,462.48 1803.6,462.71L1803.6,466.71C1803.61,467.459 1803.28,468.174 1802.69,468.64L1793.69,476.78L1793.7,470.67ZM1805.7,528.83C1802.49,528.8 1799.44,527.394 1797.33,524.97L1796.22,525.97L1797.22,524.87C1794.87,522.176 1793.59,518.707 1793.63,515.13L1793.63,480.85L1798.36,476.56L1798.36,514.06C1798.36,518.54 1801.64,522.18 1805.67,522.18C1807.69,522.166 1809.6,521.27 1810.9,519.73C1812.25,518.152 1812.99,516.137 1812.97,514.06L1812.97,499.73C1813.05,498.547 1813.99,497.589 1815.17,497.48C1816.48,497.625 1817.47,498.774 1817.41,500.09L1817.72,515.14C1817.77,522.69 1812.37,528.83 1805.74,528.83L1805.7,528.83ZM1820.52,505.09L1820.42,500.24C1820.43,500.087 1820.44,499.934 1820.44,499.781C1820.44,496.89 1818.06,494.511 1815.17,494.511C1812.28,494.511 1809.9,496.89 1809.9,499.781C1809.9,499.934 1809.91,500.087 1809.92,500.24L1809.92,505C1808.79,504.959 1807.7,504.528 1806.85,503.78C1806.44,503.286 1806.28,502.629 1806.41,502L1815.07,472L1815.24,472.07C1815.36,472.119 1815.48,472.149 1815.6,472.16C1816.45,472.317 1817.03,473.125 1816.91,473.98L1814.98,491.47C1814.94,491.896 1815.08,492.32 1815.36,492.64C1815.65,492.954 1816.05,493.132 1816.48,493.13L1822.25,493.13L1822.77,505.02L1820.52,505.09ZM1837.52,528.09L1836.14,538.15L1836.14,538.26C1836.14,538.573 1836.04,538.877 1835.85,539.13L1833.62,539.13C1833.43,538.877 1833.33,538.573 1833.33,538.26L1831.83,528.09L1837.52,528.09ZM1831.42,584.22C1829.37,581.205 1827.57,578.024 1826.04,574.71L1824.68,572.03C1824.03,570.763 1824.09,569.248 1824.82,568.03C1825.32,567.137 1826.26,566.572 1827.28,566.55L1933.07,566.55C1936.95,566.55 1940.07,563.06 1940.07,558.78L1940.07,513.18C1940.07,500.26 1931.41,489.74 1920.77,489.74L1865.14,489.74C1861.46,489.74 1857.96,493.22 1856.14,496.66C1851.51,505.33 1847.96,512.23 1844.59,519.86C1843.89,521.43 1841.98,525.09 1839.25,525.09L1836.57,525.09L1836.57,505.14L1837.82,503.7C1839,506.092 1841.44,507.615 1844.1,507.615C1847.94,507.615 1851.1,504.455 1851.1,500.615C1851.1,496.775 1847.94,493.615 1844.1,493.615C1840.53,493.615 1837.51,496.348 1837.14,499.9L1833.78,503.77L1833.69,504C1833.55,504.35 1833.54,504.37 1833.53,525.09L1830.47,525.09C1828.24,525.09 1826.47,522.96 1826.47,520.26L1824.47,474.98C1824.47,471.26 1827.09,468.23 1830.32,468.23L1833.54,468.23L1833.54,481.3C1833.45,483.68 1835.33,485.713 1837.71,485.81L1845.45,485.81C1846.27,485.81 1846.95,485.133 1846.95,484.31C1846.95,483.487 1846.27,482.81 1845.45,482.81L1837.71,482.81C1836.99,482.697 1836.47,482.03 1836.54,481.3L1836.54,468.26L1975.23,468.26C1977.49,468.26 1979.39,470.42 1979.47,473.04L1980.28,581.77L1980.28,581.84L1979.96,586.64L1972.57,586.64L1972.57,519L1973.67,519C1975.59,519 1977.17,517.42 1977.17,515.5L1977.17,512.86C1977.17,510.94 1975.59,509.36 1973.67,509.36L1969.95,509.36L1969.95,502.56C1969.95,501.737 1969.27,501.06 1968.45,501.06C1967.63,501.06 1966.95,501.737 1966.95,502.56L1966.95,509.36L1961.24,509.36L1961.24,476.67C1961.24,475.847 1960.56,475.17 1959.74,475.17C1958.92,475.17 1958.24,475.847 1958.24,476.67L1958.24,509.39L1952.51,509.39L1952.51,502.59C1952.51,501.767 1951.83,501.09 1951.01,501.09C1950.19,501.09 1949.51,501.767 1949.51,502.59L1949.51,509.39L1945.81,509.39C1943.89,509.395 1942.32,510.972 1942.31,512.89L1942.31,515.53C1942.32,517.448 1943.89,519.025 1945.81,519.03L1947.22,519.03L1947.22,586.64L1836,586.64C1834.2,586.591 1832.53,585.706 1831.48,584.25L1831.42,584.22ZM1840.16,500.62C1840.16,498.426 1841.97,496.62 1844.16,496.62C1846.35,496.62 1848.16,498.426 1848.16,500.62C1848.16,502.814 1846.35,504.62 1844.16,504.62C1842,504.588 1840.24,502.811 1840.22,500.65L1840.16,500.62ZM1973.72,512.36C1973.99,512.365 1974.22,512.588 1974.22,512.86L1974.22,515.5C1974.22,515.774 1973.99,516 1973.72,516L1945.86,516C1945.59,516 1945.36,515.774 1945.36,515.5L1945.36,512.86C1945.37,512.588 1945.59,512.365 1945.86,512.36L1973.72,512.36ZM1950.27,519.07L1969.62,519.07L1969.62,586.61L1950.27,586.61L1950.27,519.07ZM1868.73,604.86C1868.68,604.861 1868.63,604.862 1868.58,604.862C1865.8,604.862 1863.52,602.578 1863.52,599.802C1863.52,597.026 1865.8,594.742 1868.58,594.742C1871.36,594.742 1873.64,597.025 1873.64,599.8C1873.69,602.521 1871.51,604.809 1868.79,604.89L1868.73,604.86ZM1881.33,597.71L1876.33,597.71C1875.47,594.213 1872.3,591.738 1868.7,591.738C1865.1,591.738 1861.93,594.213 1861.07,597.71L1856.54,597.71C1854.47,597.71 1852.67,593.36 1851.81,589.61L1886,589.61C1885,593.48 1883.13,597.74 1881.39,597.74L1881.33,597.71ZM1959.21,604.86C1959.16,604.861 1959.11,604.862 1959.06,604.862C1956.28,604.862 1954,602.578 1954,599.802C1954,597.026 1956.28,594.742 1959.06,594.742C1961.84,594.742 1964.12,597.025 1964.12,599.8C1964.17,602.521 1961.99,604.809 1959.27,604.89L1959.21,604.86ZM1975.92,598.29L1967,598.29C1966.35,594.527 1963.05,591.751 1959.24,591.751C1955.42,591.751 1952.12,594.527 1951.47,598.29L1944.47,598.29C1941.67,598.29 1938.63,593.57 1936.85,589.61L1980.3,589.61L1980.3,593.16C1980.39,596 1978.41,598.32 1976,598.32L1975.92,598.29ZM1984.44,499.04L1982.71,499.04L1982.55,478.14L1984.44,478.14C1985.57,478.14 1987.64,482.14 1987.64,488.59C1987.64,495.04 1985.63,499.07 1984.5,499.07L1984.44,499.04Z" style="fill:white;fill-rule:nonzero;stroke:white;stroke-width:1.25px;"/>
    </g>
</svg>
