<?xml version="1.0" encoding="UTF-8" standalone="no"?>
<!DOCTYPE svg PUBLIC "-//W3C//DTD SVG 1.1//EN" "http://www.w3.org/Graphics/SVG/1.1/DTD/svg11.dtd">
<svg width="100%" height="100%" viewBox="0 0 300 300" version="1.1" xmlns="http://www.w3.org/2000/svg" xmlns:xlink="http://www.w3.org/1999/xlink" xml:space="preserve" xmlns:serif="http://www.serif.com/" style="fill-rule:evenodd;clip-rule:evenodd;stroke-linejoin:round;stroke-miterlimit:2;">
    <g transform="matrix(1,0,0,1,-1473.93,-46.2097)">
        <path d="M1643.08,232.8L1636.7,223.74L1643.08,214.67C1643.44,214.155 1643.44,213.465 1643.08,212.95L1636.7,203.88L1643.08,194.81C1643.44,194.295 1643.44,193.605 1643.08,193.09L1636.7,184L1643.08,174.93C1643.53,174.315 1643.45,173.449 1642.89,172.93L1633.07,163.6C1632.52,163.069 1631.65,163.038 1631.07,163.53L1623.32,169.96L1614.53,163.48C1614,163.091 1613.28,163.091 1612.75,163.48L1603.94,169.97L1595.14,163.48C1594.61,163.091 1593.89,163.091 1593.36,163.48L1584.55,169.97L1575.75,163.48C1575.22,163.091 1574.5,163.091 1573.97,163.48L1565.17,169.97L1556.36,163.48C1555.83,163.091 1555.11,163.091 1554.58,163.48L1545.92,169.87L1539.58,163.61C1539,163.042 1538.06,163.042 1537.48,163.61L1527.6,173.2C1527.04,173.722 1526.97,174.591 1527.43,175.2L1533.78,184L1527.42,193.05C1527.05,193.562 1527.05,194.258 1527.42,194.77L1533.79,203.84L1527.42,212.91C1527.05,213.422 1527.05,214.118 1527.42,214.63L1533.79,223.7L1527.42,232.76C1527.05,233.276 1527.05,233.974 1527.42,234.49L1533.79,243.55L1527.42,252.61C1527.05,253.126 1527.05,253.824 1527.42,254.34L1533.82,263.45L1527.82,273.04C1527.82,273.067 1527.82,273.093 1527.82,273.12C1527.65,273.424 1527.59,273.778 1527.66,274.12C1527.68,274.247 1527.72,274.372 1527.77,274.49C1527.85,274.667 1527.97,274.827 1528.11,274.96L1537.57,284.19C1537.84,284.455 1538.19,284.609 1538.57,284.62C1538.94,284.605 1539.3,284.452 1539.57,284.19L1545.91,277.93L1554.57,284.32C1555.1,284.709 1555.82,284.709 1556.35,284.32L1565.16,277.83L1573.96,284.32C1574.49,284.709 1575.21,284.709 1575.74,284.32L1584.54,277.83L1593.35,284.32C1593.88,284.709 1594.6,284.709 1595.13,284.32L1603.93,277.83L1612.74,284.32C1613.27,284.709 1613.99,284.709 1614.52,284.32L1623.36,277.8L1631.13,283.53C1631.74,283.989 1632.61,283.91 1633.13,283.35L1642.55,273.3C1643.04,272.77 1643.08,271.958 1642.65,271.38L1636.72,263.38L1643.08,254.38C1643.44,253.861 1643.44,253.169 1643.08,252.65L1636.7,243.59L1643.08,234.53C1643.44,234.011 1643.44,233.319 1643.08,232.8ZM1633.64,242.72C1633.28,243.239 1633.28,243.931 1633.64,244.45L1640.02,253.52L1633.64,262.58C1633.26,263.104 1633.26,263.816 1633.64,264.34L1639.47,272.19L1631.83,280.34L1624.28,274.78C1623.98,274.583 1623.63,274.482 1623.28,274.49C1622.96,274.489 1622.65,274.591 1622.39,274.78L1613.59,281.27L1604.78,274.78C1604.25,274.391 1603.53,274.391 1603,274.78L1594.2,281.27L1585.39,274.78C1584.86,274.391 1584.14,274.391 1583.61,274.78L1574.81,281.27L1566.01,274.78C1565.48,274.391 1564.76,274.391 1564.23,274.78L1555.42,281.27L1546.62,274.78C1546.02,274.32 1545.15,274.38 1544.62,274.92L1538.42,281.04L1530.88,273.68L1536.78,264.68C1537.11,264.011 1537.11,263.229 1536.78,262.56L1530.41,253.5L1536.78,244.43C1537.15,243.914 1537.15,243.216 1536.78,242.7L1530.41,233.64L1536.78,224.58C1537.15,224.064 1537.15,223.366 1536.78,222.85L1530.41,213.79L1536.78,204.72C1537.15,204.208 1537.15,203.512 1536.78,203L1530.41,193.93L1536.78,184.87C1537.15,184.352 1537.15,183.648 1536.78,183.13L1530.56,174.51L1538.46,166.84L1544.66,172.96C1545.19,173.508 1546.06,173.569 1546.66,173.1L1555.46,166.61L1564.27,173.1C1564.8,173.489 1565.52,173.489 1566.05,173.1L1574.85,166.61L1583.65,173.1C1584.18,173.489 1584.9,173.489 1585.43,173.1L1594.24,166.61L1603.04,173.1C1603.57,173.489 1604.29,173.489 1604.82,173.1L1613.63,166.61L1622.43,173.1C1622.73,173.296 1623.08,173.397 1623.43,173.39C1623.79,173.4 1624.15,173.279 1624.43,173.05L1632.02,166.75L1639.93,174.27L1633.69,183.14C1633.33,183.659 1633.33,184.351 1633.69,184.87L1640,194L1633.62,203.07C1633.26,203.585 1633.26,204.275 1633.62,204.79L1640,213.86L1633.62,222.92C1633.26,223.439 1633.26,224.131 1633.62,224.65L1640,233.71L1633.64,242.72Z" style="fill:white;fill-rule:nonzero;stroke:white;stroke-width:2.08px;"/>
    </g>
    <g transform="matrix(1,0,0,1,-1473.93,-46.2097)">
        <path d="M1677.69,164.72L1671.32,155.66L1677.69,146.59C1678.15,145.976 1678.06,145.107 1677.5,144.59L1667.68,135.26C1667.13,134.729 1666.26,134.698 1665.68,135.19L1657.93,141.62L1649.14,135.14C1648.61,134.751 1647.89,134.751 1647.36,135.14L1638.55,141.63L1629.75,135.14C1629.22,134.751 1628.5,134.751 1627.97,135.14L1619.16,141.63L1610.36,135.14C1609.83,134.751 1609.11,134.751 1608.58,135.14L1599.78,141.63L1590.97,135.14C1590.44,134.751 1589.72,134.751 1589.19,135.14L1580.53,141.53L1574.19,135.27C1573.64,134.746 1572.77,134.72 1572.19,135.21L1562.31,143.81C1561.73,144.307 1561.61,145.175 1562.04,145.81L1568.42,155.54L1564.42,160.35C1564.2,160.62 1564.07,160.959 1564.07,161.31C1564.07,162.134 1564.75,162.812 1565.58,162.812C1566.02,162.812 1566.44,162.613 1566.73,162.27L1571.41,156.6C1571.83,156.098 1571.87,155.376 1571.51,154.83L1565.25,145.26L1573.1,138.43L1579.35,144.6C1579.88,145.148 1580.75,145.209 1581.35,144.74L1590.15,138.25L1598.96,144.74C1599.49,145.129 1600.21,145.129 1600.74,144.74L1609.54,138.25L1618.34,144.74C1618.87,145.129 1619.59,145.129 1620.12,144.74L1628.93,138.25L1637.73,144.74C1638.26,145.129 1638.98,145.129 1639.51,144.74L1648.32,138.25L1657.12,144.74C1657.42,144.936 1657.77,145.037 1658.12,145.03C1658.48,145.04 1658.84,144.919 1659.12,144.69L1666.71,138.39L1674.62,145.91L1668.38,154.79C1668.02,155.305 1668.02,155.995 1668.38,156.51L1674.76,165.57L1668.38,174.64C1668.02,175.159 1668.02,175.851 1668.38,176.37L1674.76,185.43L1668.38,194.49C1668.02,195.009 1668.02,195.701 1668.38,196.22L1674.76,205.28L1668.38,214.34C1668.02,214.859 1668.02,215.551 1668.38,216.07L1674.76,225.14L1668.38,234.2C1668.02,234.719 1668.02,235.411 1668.38,235.93L1674.64,244.84L1666.64,252.73L1659.07,246.45C1658.78,246.236 1658.43,246.118 1658.07,246.11C1657.71,246.097 1657.35,246.218 1657.07,246.45L1648.38,253.6C1647.98,253.88 1647.74,254.34 1647.74,254.829C1647.74,255.652 1648.42,256.329 1649.24,256.329C1649.63,256.329 1650,256.179 1650.28,255.91L1658.06,249.52L1665.76,255.91C1666.35,256.397 1667.22,256.357 1667.76,255.82L1677.57,246.07C1678.09,245.56 1678.16,244.743 1677.74,244.15L1671.36,235.07L1677.74,226C1678.1,225.481 1678.1,224.789 1677.74,224.27L1671.37,215.21L1677.74,206.15C1678.1,205.631 1678.1,204.939 1677.74,204.42L1671.37,195.36L1677.74,186.29C1678.1,185.775 1678.1,185.085 1677.74,184.57L1671.37,175.5L1677.74,166.43C1678.08,165.907 1678.06,165.223 1677.69,164.72Z" style="fill:white;fill-rule:nonzero;stroke:white;stroke-width:2.08px;"/>
    </g>
    <g transform="matrix(1,0,0,1,-1473.93,-46.2097)">
        <path d="M1706.88,174.18L1700.51,165.11L1706.88,156.05C1707.24,155.531 1707.24,154.839 1706.88,154.32L1700.51,145.26L1706.88,136.19C1707.24,135.675 1707.24,134.985 1706.88,134.47L1700.51,125.41L1706.88,116.33C1707.31,115.73 1707.23,114.895 1706.69,114.39L1696.88,105.05C1696.33,104.53 1695.46,104.504 1694.88,104.99L1687.13,111.42L1678.34,104.94C1677.82,104.541 1677.08,104.541 1676.56,104.94L1667.75,111.43L1658.95,104.94C1658.43,104.541 1657.69,104.541 1657.17,104.94L1648.36,111.43L1639.56,104.94C1639.04,104.541 1638.3,104.541 1637.78,104.94L1628.98,111.43L1620.17,104.94C1619.65,104.541 1618.91,104.541 1618.39,104.94L1609.73,111.32L1603.39,105.07C1602.84,104.541 1601.97,104.515 1601.39,105.01L1591.5,113.61C1590.91,114.105 1590.79,114.977 1591.23,115.61L1597.6,125.33L1593,130.8C1592.77,131.07 1592.65,131.412 1592.65,131.765C1592.65,132.589 1593.33,133.266 1594.15,133.266C1594.59,133.266 1595.02,133.07 1595.3,132.73L1600.64,126.37C1601.06,125.86 1601.1,125.133 1600.74,124.58L1594.48,115.02L1602.33,108.18L1608.58,114.36C1609.11,114.908 1609.98,114.969 1610.58,114.5L1619.38,108.01L1628.19,114.5C1628.72,114.889 1629.44,114.889 1629.97,114.5L1638.77,108.01L1647.57,114.5C1648.1,114.889 1648.82,114.889 1649.35,114.5L1658.16,108.01L1666.96,114.5C1667.49,114.889 1668.21,114.889 1668.74,114.5L1677.55,108.01L1686.35,114.5C1686.65,114.696 1687,114.797 1687.35,114.79C1687.71,114.8 1688.07,114.679 1688.35,114.45L1695.94,108.15L1703.85,115.67L1697.61,124.54C1697.25,125.059 1697.25,125.751 1697.61,126.27L1703.99,135.33L1697.61,144.4C1697.25,144.915 1697.25,145.605 1697.61,146.12L1703.99,155.19L1697.61,164.25C1697.25,164.769 1697.25,165.461 1697.61,165.98L1703.99,175.04L1697.61,184.1C1697.25,184.619 1697.25,185.311 1697.61,185.83L1703.99,194.89L1697.61,203.96C1697.25,204.475 1697.25,205.165 1697.61,205.68L1703.87,214.68L1695.93,222.49L1688.35,216.2C1688.06,215.983 1687.71,215.861 1687.35,215.85C1686.98,215.859 1686.62,216.009 1686.35,216.27L1682.06,220.35C1681.75,220.634 1681.57,221.039 1681.57,221.462C1681.57,222.285 1682.24,222.962 1683.07,222.962C1683.47,222.962 1683.85,222.803 1684.13,222.52L1687.49,219.32L1695.12,225.66C1695.7,226.149 1696.58,226.114 1697.12,225.58L1706.94,215.93C1707.45,215.415 1707.53,214.601 1707.12,214L1700.73,204.82L1707.11,195.75C1707.47,195.231 1707.47,194.539 1707.11,194.02L1700.74,184.95L1707.11,175.9C1707.4,175.336 1707.31,174.648 1706.88,174.18Z" style="fill:white;fill-rule:nonzero;stroke:white;stroke-width:2.08px;"/>
    </g>
    <g transform="matrix(1,0,0,1,-1473.93,-46.2097)">
        <path d="M1612.91,148.75C1612.91,148.74 1612.91,148.73 1612.91,148.72C1612.91,146.707 1611.25,145.05 1609.24,145.05C1607.23,145.05 1605.57,146.707 1605.57,148.72C1605.57,150.733 1607.23,152.39 1609.24,152.39C1609.25,152.39 1609.25,152.39 1609.26,152.39C1611.26,152.39 1612.9,150.749 1612.91,148.75Z" style="fill:white;fill-rule:nonzero;stroke:white;stroke-width:2.08px;"/>
    </g>
    <g transform="matrix(1,0,0,1,-1473.93,-46.2097)">
        <path d="M1644.47,157.32C1642.48,157.331 1640.84,158.975 1640.84,160.97C1640.84,162.972 1642.49,164.62 1644.49,164.62C1646.49,164.62 1648.14,162.972 1648.14,160.97C1648.13,158.966 1646.48,157.32 1644.48,157.32C1644.48,157.32 1644.47,157.32 1644.47,157.32Z" style="fill:white;fill-rule:nonzero;stroke:white;stroke-width:2.08px;"/>
    </g>
    <g transform="matrix(1,0,0,1,-1473.93,-46.2097)">
        <ellipse cx="1654.82" cy="170.25" rx="3.67" ry="3.64" style="fill:white;stroke:white;stroke-width:2.08px;"/>
    </g>
    <g transform="matrix(1,0,0,1,-1473.93,-46.2097)">
        <path d="M1656.32,191.94C1654.34,191.956 1652.71,193.594 1652.71,195.58C1652.71,197.577 1654.35,199.22 1656.35,199.22C1658.35,199.22 1659.99,197.577 1659.99,195.58C1659.98,193.576 1658.32,191.934 1656.32,191.94Z" style="fill:white;fill-rule:nonzero;stroke:white;stroke-width:2.08px;"/>
    </g>
    <g transform="matrix(1,0,0,1,-1473.93,-46.2097)">
        <path d="M1665.18,188.62C1667.16,188.604 1668.79,186.966 1668.79,184.98C1668.79,182.983 1667.15,181.34 1665.15,181.34C1663.15,181.34 1661.51,182.983 1661.51,184.98C1661.52,186.984 1663.18,188.626 1665.18,188.62Z" style="fill:white;fill-rule:nonzero;stroke:white;stroke-width:2.08px;"/>
    </g>
    <g transform="matrix(1,0,0,1,-1473.93,-46.2097)">
        <ellipse cx="1647.48" cy="205.35" rx="3.67" ry="3.64" style="fill:white;stroke:white;stroke-width:2.08px;"/>
    </g>
    <g transform="matrix(1,0,0,1,-1473.93,-46.2097)">
        <path d="M1665.18,228.16C1667.16,228.144 1668.79,226.506 1668.79,224.52C1668.79,222.523 1667.15,220.88 1665.15,220.88C1663.15,220.88 1661.51,222.523 1661.51,224.52C1661.52,226.524 1663.18,228.166 1665.18,228.16Z" style="fill:white;fill-rule:nonzero;stroke:white;stroke-width:2.08px;"/>
    </g>
    <g transform="matrix(1,0,0,1,-1473.93,-46.2097)">
        <path d="M1658.49,239.26C1658.49,239.27 1658.49,239.28 1658.49,239.29C1658.49,241.303 1660.15,242.96 1662.16,242.96C1664.17,242.96 1665.83,241.303 1665.83,239.29C1665.83,237.277 1664.17,235.62 1662.16,235.62C1662.15,235.62 1662.15,235.62 1662.14,235.62C1660.14,235.62 1658.5,237.261 1658.49,239.26Z" style="fill:white;fill-rule:nonzero;stroke:white;stroke-width:2.08px;"/>
    </g>
    <g transform="matrix(1,0,0,1,-1473.93,-46.2097)">
        <ellipse cx="1665.18" cy="205.35" rx="3.67" ry="3.64" style="fill:white;stroke:white;stroke-width:2.08px;"/>
    </g>
    <g transform="matrix(1,0,0,1,-1473.93,-46.2097)">
        <path d="M1651.15,244.1L1651.15,244.08C1651.15,242.067 1649.49,240.41 1647.48,240.41C1645.47,240.41 1643.81,242.067 1643.81,244.08C1643.81,246.093 1645.47,247.75 1647.48,247.75C1647.49,247.75 1647.49,247.75 1647.5,247.75C1649.5,247.75 1651.15,246.102 1651.15,244.1Z" style="fill:white;fill-rule:nonzero;stroke:white;stroke-width:2.08px;"/>
    </g>
    <g transform="matrix(1,0,0,1,-1473.93,-46.2097)">
        <path d="M1649.05,232.67C1651.04,232.654 1652.66,231.016 1652.66,229.03C1652.66,227.033 1651.02,225.39 1649.02,225.39C1647.02,225.39 1645.38,227.033 1645.38,229.03C1645.38,231.029 1647.03,232.67 1649.03,232.67C1649.04,232.67 1649.04,232.67 1649.05,232.67Z" style="fill:white;fill-rule:nonzero;stroke:white;stroke-width:2.08px;"/>
    </g>
    <g transform="matrix(1,0,0,1,-1473.93,-46.2097)">
        <path d="M1658.49,216.94C1658.49,216.93 1658.49,216.92 1658.49,216.91C1658.49,214.897 1656.83,213.24 1654.82,213.24C1652.81,213.24 1651.15,214.897 1651.15,216.91C1651.15,218.923 1652.81,220.58 1654.82,220.58C1654.83,220.58 1654.83,220.58 1654.84,220.58C1656.84,220.58 1658.49,218.939 1658.49,216.94Z" style="fill:white;fill-rule:nonzero;stroke:white;stroke-width:2.08px;"/>
    </g>
    <g transform="matrix(1,0,0,1,-1473.93,-46.2097)">
        <path d="M1578.86,158.35C1580.86,158.339 1582.49,156.695 1582.49,154.7C1582.49,152.698 1580.84,151.05 1578.84,151.05C1576.84,151.05 1575.19,152.698 1575.19,154.7C1575.19,154.703 1575.19,154.707 1575.19,154.71C1575.2,156.714 1576.86,158.356 1578.86,158.35Z" style="fill:white;fill-rule:nonzero;stroke:white;stroke-width:2.08px;"/>
    </g>
    <g transform="matrix(1,0,0,1,-1473.93,-46.2097)">
        <path d="M1594.55,147.42C1594.55,147.41 1594.55,147.4 1594.55,147.39C1594.55,145.377 1592.89,143.72 1590.88,143.72C1588.87,143.72 1587.21,145.377 1587.21,147.39C1587.21,149.403 1588.87,151.06 1590.88,151.06C1590.89,151.06 1590.89,151.06 1590.9,151.06C1592.9,151.06 1594.55,149.419 1594.55,147.42Z" style="fill:white;fill-rule:nonzero;stroke:white;stroke-width:2.08px;"/>
    </g>
    <g transform="matrix(1,0,0,1,-1473.93,-46.2097)">
        <ellipse cx="1621.79" cy="157.32" rx="3.67" ry="3.64" style="fill:white;stroke:white;stroke-width:2.08px;"/>
    </g>
    <g transform="matrix(1,0,0,1,-1473.93,-46.2097)">
        <path d="M1637.29,151.06L1637.29,151.04C1637.29,149.027 1635.63,147.37 1633.62,147.37C1631.61,147.37 1629.95,149.027 1629.95,151.04C1629.95,153.053 1631.61,154.71 1633.62,154.71C1633.63,154.71 1633.63,154.71 1633.64,154.71C1635.64,154.71 1637.29,153.062 1637.29,151.06Z" style="fill:white;fill-rule:nonzero;stroke:white;stroke-width:2.08px;"/>
    </g>
    <g transform="matrix(1,0,0,1,-1473.93,-46.2097)">
        <path d="M1652.72,147.42C1650.73,147.431 1649.09,149.075 1649.09,151.07C1649.09,153.072 1650.74,154.72 1652.74,154.72C1654.74,154.72 1656.39,153.072 1656.39,151.07C1656.39,151.067 1656.39,151.063 1656.39,151.06C1656.38,149.056 1654.72,147.414 1652.72,147.42Z" style="fill:white;fill-rule:nonzero;stroke:white;stroke-width:2.08px;"/>
    </g>
    <g transform="matrix(1,0,0,1,-1473.93,-46.2097)">
        <path d="M1665.21,151.36C1667.19,151.344 1668.82,149.706 1668.82,147.72C1668.82,145.723 1667.18,144.08 1665.18,144.08C1663.18,144.08 1661.54,145.723 1661.54,147.72C1661.55,149.719 1663.19,151.36 1665.19,151.36C1665.2,151.36 1665.2,151.36 1665.21,151.36Z" style="fill:white;fill-rule:nonzero;stroke:white;stroke-width:2.08px;"/>
    </g>
    <g transform="matrix(1,0,0,1,-1473.93,-46.2097)">
        <path d="M1665.18,169C1667.16,168.984 1668.79,167.346 1668.79,165.36C1668.79,163.363 1667.15,161.72 1665.15,161.72C1663.15,161.72 1661.51,163.363 1661.51,165.36C1661.52,167.364 1663.18,169.006 1665.18,169Z" style="fill:white;fill-rule:nonzero;stroke:white;stroke-width:2.08px;"/>
    </g>
    <g transform="matrix(1,0,0,1,-1473.93,-46.2097)">
        <path d="M1644.47,183.49C1644.47,183.5 1644.47,183.51 1644.47,183.52C1644.47,185.533 1646.13,187.19 1648.14,187.19C1650.15,187.19 1651.81,185.533 1651.81,183.52C1651.81,181.507 1650.15,179.85 1648.14,179.85C1646.14,179.844 1644.48,181.486 1644.47,183.49Z" style="fill:white;fill-rule:nonzero;stroke:white;stroke-width:2.08px;"/>
    </g>
    <g transform="matrix(1,0,0,1,-1473.93,-46.2097)">
        <path d="M1604.87,159.81C1604.87,159.8 1604.87,159.79 1604.87,159.78C1604.87,157.767 1603.21,156.11 1601.2,156.11C1599.19,156.11 1597.53,157.767 1597.53,159.78C1597.53,161.793 1599.19,163.45 1601.2,163.45C1603.2,163.456 1604.86,161.814 1604.87,159.81Z" style="fill:white;fill-rule:nonzero;stroke:white;stroke-width:2.08px;"/>
    </g>
    <g transform="matrix(1,0,0,1,-1473.93,-46.2097)">
        <path d="M1586.58,194.88C1586.18,194.88 1585.8,194.726 1585.52,194.45L1578.2,187.19C1577.92,186.905 1577.76,186.521 1577.76,186.12C1577.76,185.722 1577.92,185.341 1578.2,185.06L1585.52,177.8C1586.1,177.224 1587.06,177.224 1587.64,177.8L1594.96,185.06C1595.24,185.341 1595.4,185.722 1595.4,186.12C1595.4,186.521 1595.24,186.905 1594.96,187.19L1587.64,194.45C1587.36,194.726 1586.98,194.88 1586.58,194.88ZM1581.39,186.12L1586.58,191.27L1591.77,186.12L1586.58,180.98L1581.39,186.12Z" style="fill:white;fill-rule:nonzero;stroke:white;stroke-width:2.08px;"/>
    </g>
    <g transform="matrix(1,0,0,1,-1473.93,-46.2097)">
        <path d="M1619.82,194.88C1619.42,194.882 1619.04,194.728 1618.76,194.45L1611.44,187.19C1611.16,186.905 1611,186.521 1611,186.12C1611,185.722 1611.16,185.341 1611.44,185.06L1618.76,177.8C1619.34,177.225 1620.29,177.225 1620.87,177.8L1628.19,185.06C1628.48,185.337 1628.64,185.72 1628.64,186.12C1628.64,186.523 1628.48,186.909 1628.19,187.19L1620.87,194.45C1620.59,194.727 1620.21,194.882 1619.82,194.88ZM1614.63,186.12L1619.82,191.27L1625.01,186.12L1619.82,180.98L1614.63,186.12Z" style="fill:white;fill-rule:nonzero;stroke:white;stroke-width:2.08px;"/>
    </g>
    <g transform="matrix(1,0,0,1,-1473.93,-46.2097)">
        <path d="M1604.76,212.92C1604.38,212.905 1604.03,212.748 1603.76,212.48L1596.44,205.22C1596.15,204.943 1595.99,204.56 1595.99,204.16C1595.99,203.757 1596.15,203.371 1596.44,203.09L1603.76,195.83C1604.34,195.255 1605.29,195.255 1605.87,195.83L1613.19,203.09C1613.47,203.375 1613.63,203.759 1613.63,204.16C1613.63,204.558 1613.47,204.939 1613.19,205.22L1605.87,212.48C1605.58,212.773 1605.17,212.932 1604.76,212.92ZM1599.57,204.16L1604.76,209.31L1609.95,204.16L1604.76,199.01L1599.57,204.16Z" style="fill:white;fill-rule:nonzero;stroke:white;stroke-width:2.08px;"/>
    </g>
    <g transform="matrix(1,0,0,1,-1473.93,-46.2097)">
        <path d="M1586.58,233.66C1586.18,233.66 1585.8,233.506 1585.52,233.23L1578.2,226C1577.92,225.715 1577.76,225.331 1577.76,224.93C1577.76,224.532 1577.92,224.151 1578.2,223.87L1585.52,216.61C1586.1,216.034 1587.06,216.034 1587.64,216.61L1594.96,223.87C1595.24,224.151 1595.4,224.532 1595.4,224.93C1595.41,225.325 1595.27,225.709 1595,226L1587.68,233.26C1587.38,233.535 1586.99,233.679 1586.58,233.66ZM1581.39,224.9L1586.58,230.05L1591.77,224.9L1586.58,219.76L1581.39,224.9Z" style="fill:white;fill-rule:nonzero;stroke:white;stroke-width:2.08px;"/>
    </g>
    <g transform="matrix(1,0,0,1,-1473.93,-46.2097)">
        <path d="M1619.82,233.66C1619.42,233.662 1619.04,233.508 1618.76,233.23L1611.44,225.97C1611.16,225.685 1611,225.301 1611,224.9C1611,224.502 1611.16,224.121 1611.44,223.84L1618.76,216.58C1619.34,216.005 1620.29,216.005 1620.87,216.58L1628.19,223.84C1628.48,224.117 1628.64,224.5 1628.64,224.9C1628.64,225.303 1628.48,225.689 1628.19,225.97L1620.87,233.23C1620.59,233.507 1620.21,233.662 1619.82,233.66ZM1614.63,224.9L1619.82,230.05L1625.01,224.9L1619.82,219.76L1614.63,224.9Z" style="fill:white;fill-rule:nonzero;stroke:white;stroke-width:2.08px;"/>
    </g>
    <g transform="matrix(1,0,0,1,-1473.93,-46.2097)">
        <path d="M1604.76,251.7C1604.38,251.685 1604.03,251.528 1603.76,251.26L1596.44,244C1596.15,243.723 1595.99,243.34 1595.99,242.94C1595.99,242.537 1596.15,242.151 1596.44,241.87L1603.76,234.61C1604.34,234.035 1605.29,234.035 1605.87,234.61L1613.19,241.87C1613.47,242.155 1613.63,242.539 1613.63,242.94C1613.63,243.338 1613.47,243.719 1613.19,244L1605.87,251.26C1605.58,251.553 1605.17,251.712 1604.76,251.7ZM1599.57,242.94L1604.76,248.08L1609.95,242.94L1604.76,237.79L1599.57,242.94Z" style="fill:white;fill-rule:nonzero;stroke:white;stroke-width:2.08px;"/>
    </g>
    <g transform="matrix(1,0,0,1,-1473.93,-46.2097)">
        <path d="M1586.58,272.44C1586.18,272.44 1585.8,272.286 1585.52,272.01L1578.2,264.75C1577.92,264.465 1577.76,264.081 1577.76,263.68C1577.76,263.282 1577.92,262.901 1578.2,262.62L1585.52,255.36C1586.1,254.784 1587.06,254.784 1587.64,255.36L1594.96,262.62C1595.24,262.901 1595.4,263.282 1595.4,263.68C1595.4,264.081 1595.24,264.465 1594.96,264.75L1587.64,272.01C1587.36,272.286 1586.98,272.44 1586.58,272.44ZM1581.39,263.68L1586.58,268.83L1591.77,263.68L1586.58,258.53L1581.39,263.68Z" style="fill:white;fill-rule:nonzero;stroke:white;stroke-width:2.08px;"/>
    </g>
    <g transform="matrix(1,0,0,1,-1473.93,-46.2097)">
        <path d="M1549.69,194.88C1549.29,194.882 1548.91,194.728 1548.63,194.45L1541.31,187.19C1541.03,186.905 1540.87,186.521 1540.87,186.12C1540.87,185.722 1541.03,185.341 1541.31,185.06L1548.63,177.8C1549.21,177.225 1550.16,177.225 1550.74,177.8L1558.06,185.06C1558.35,185.337 1558.51,185.72 1558.51,186.12C1558.51,186.523 1558.35,186.909 1558.06,187.19L1550.74,194.45C1550.46,194.727 1550.08,194.882 1549.69,194.88ZM1544.5,186.12L1549.69,191.27L1554.88,186.12L1549.69,180.98L1544.5,186.12Z" style="fill:white;fill-rule:nonzero;stroke:white;stroke-width:2.08px;"/>
    </g>
    <g transform="matrix(1,0,0,1,-1473.93,-46.2097)">
        <path d="M1567.87,212.92C1567.47,212.919 1567.09,212.76 1566.81,212.48L1559.49,205.22C1559.21,204.939 1559.05,204.558 1559.05,204.16C1559.05,203.759 1559.21,203.375 1559.49,203.09L1566.81,195.83C1567.39,195.255 1568.34,195.255 1568.92,195.83L1576.24,203.09C1576.53,203.371 1576.69,203.757 1576.69,204.16C1576.69,204.56 1576.53,204.943 1576.24,205.22L1568.92,212.48C1568.64,212.76 1568.26,212.918 1567.87,212.92ZM1562.68,204.16L1567.87,209.31L1573.06,204.16L1567.87,199.01L1562.68,204.16Z" style="fill:white;fill-rule:nonzero;stroke:white;stroke-width:2.08px;"/>
    </g>
    <g transform="matrix(1,0,0,1,-1473.93,-46.2097)">
        <path d="M1549.69,233.66C1549.29,233.662 1548.91,233.508 1548.63,233.23L1541.31,225.97C1541.03,225.685 1540.87,225.301 1540.87,224.9C1540.87,224.502 1541.03,224.121 1541.31,223.84L1548.63,216.58C1549.21,216.005 1550.16,216.005 1550.74,216.58L1558.06,223.84C1558.35,224.117 1558.51,224.5 1558.51,224.9C1558.51,225.303 1558.35,225.689 1558.06,225.97L1550.74,233.23C1550.46,233.507 1550.08,233.662 1549.69,233.66ZM1544.5,224.9L1549.69,230.05L1554.88,224.9L1549.69,219.76L1544.5,224.9Z" style="fill:white;fill-rule:nonzero;stroke:white;stroke-width:2.08px;"/>
    </g>
    <g transform="matrix(1,0,0,1,-1473.93,-46.2097)">
        <path d="M1567.87,251.7C1567.47,251.699 1567.09,251.54 1566.81,251.26L1559.49,244C1559.21,243.719 1559.05,243.338 1559.05,242.94C1559.05,242.539 1559.21,242.155 1559.49,241.87L1566.81,234.61C1567.39,234.035 1568.34,234.035 1568.92,234.61L1576.24,241.87C1576.53,242.151 1576.69,242.537 1576.69,242.94C1576.69,243.34 1576.53,243.723 1576.24,244L1568.92,251.26C1568.64,251.54 1568.26,251.698 1567.87,251.7ZM1562.68,242.94L1567.87,248.08L1573.06,242.94L1567.87,237.79L1562.68,242.94Z" style="fill:white;fill-rule:nonzero;stroke:white;stroke-width:2.08px;"/>
    </g>
    <g transform="matrix(1,0,0,1,-1473.93,-46.2097)">
        <path d="M1549.69,272.44C1549.29,272.442 1548.91,272.288 1548.63,272.01L1541.31,264.75C1541.03,264.465 1540.87,264.081 1540.87,263.68C1540.87,263.282 1541.03,262.901 1541.31,262.62L1548.63,255.36C1549.21,254.785 1550.16,254.785 1550.74,255.36L1558.06,262.62C1558.35,262.897 1558.51,263.28 1558.51,263.68C1558.51,264.083 1558.35,264.469 1558.06,264.75L1550.74,272.01C1550.46,272.287 1550.08,272.442 1549.69,272.44ZM1544.5,263.68L1549.69,268.83L1554.88,263.68L1549.69,258.53L1544.5,263.68Z" style="fill:white;fill-rule:nonzero;stroke:white;stroke-width:2.08px;"/>
    </g>
    <g transform="matrix(1,0,0,1,-1473.93,-46.2097)">
        <path d="M1619.82,272.44C1619.42,272.442 1619.04,272.288 1618.76,272.01L1611.44,264.75C1611.16,264.465 1611,264.081 1611,263.68C1611,263.282 1611.16,262.901 1611.44,262.62L1618.76,255.36C1619.34,254.785 1620.29,254.785 1620.87,255.36L1628.19,262.62C1628.48,262.897 1628.64,263.28 1628.64,263.68C1628.64,264.083 1628.48,264.469 1628.19,264.75L1620.87,272.01C1620.59,272.287 1620.21,272.442 1619.82,272.44ZM1614.63,263.68L1619.82,268.83L1625.01,263.68L1619.82,258.53L1614.63,263.68Z" style="fill:white;fill-rule:nonzero;stroke:white;stroke-width:2.08px;"/>
    </g>
    <g transform="matrix(1,0,0,1,-1473.93,-46.2097)">
        <path d="M1678.41,134C1678.17,133.998 1677.93,133.94 1677.71,133.83C1677.18,133.554 1676.87,132.992 1676.91,132.4L1677.16,128.59L1673.57,127.2C1672.99,126.983 1672.6,126.425 1672.6,125.805C1672.6,125.231 1672.93,124.707 1673.45,124.46L1676.91,122.77L1676.33,119C1676.32,118.917 1676.31,118.834 1676.31,118.75C1676.31,117.932 1676.98,117.26 1677.8,117.26C1678.1,117.26 1678.39,117.351 1678.64,117.52L1681.85,119.65L1684.85,117.25C1685.12,117.039 1685.44,116.924 1685.78,116.924C1686.61,116.924 1687.28,117.601 1687.28,118.424C1687.28,118.459 1687.28,118.495 1687.28,118.53L1687.03,122.33L1690.62,123.72C1691.2,123.943 1691.58,124.501 1691.58,125.119C1691.58,125.694 1691.25,126.22 1690.73,126.47L1687.28,128.16L1687.86,131.93C1687.87,132.006 1687.88,132.082 1687.88,132.159C1687.88,132.982 1687.2,133.659 1686.38,133.659C1686.08,133.659 1685.8,133.572 1685.55,133.41L1682.34,131.28L1679.34,133.67C1679.08,133.884 1678.75,134 1678.41,134ZM1677.85,125.64L1679.27,126.19C1679.89,126.416 1680.3,127.027 1680.27,127.69L1680.17,129.22L1681.38,128.22C1681.89,127.819 1682.6,127.791 1683.14,128.15L1684.44,129L1684.21,127.49C1684.11,126.845 1684.44,126.206 1685.03,125.92L1686.4,125.25L1684.98,124.7C1684.35,124.482 1683.94,123.866 1683.98,123.2L1684.08,121.68L1682.86,122.68C1682.36,123.087 1681.64,123.119 1681.1,122.76L1679.81,121.9L1680.04,123.41C1680.14,124.058 1679.81,124.701 1679.22,124.99L1677.85,125.64Z" style="fill:white;fill-rule:nonzero;stroke:white;stroke-width:2.08px;"/>
    </g>
    <g transform="matrix(1,0,0,1,-1473.93,-46.2097)">
        <path d="M1650,133C1649.76,133.003 1649.52,132.945 1649.3,132.83C1648.78,132.558 1648.46,131.999 1648.5,131.41L1648.75,127.6L1645.16,126.21C1644.58,125.987 1644.2,125.429 1644.2,124.811C1644.2,124.236 1644.53,123.71 1645.05,123.46L1648.5,121.77L1648,118C1647.91,117.416 1648.17,116.83 1648.67,116.51C1649.17,116.19 1649.81,116.19 1650.31,116.51L1653.52,118.64L1656.52,116.25C1656.79,116.039 1657.11,115.924 1657.45,115.924C1658.28,115.924 1658.95,116.602 1658.95,117.424C1658.95,117.456 1658.95,117.488 1658.95,117.52L1658.7,121.33L1662.29,122.72C1662.86,122.923 1663.25,123.448 1663.29,124.05C1663.31,124.646 1662.98,125.202 1662.45,125.47L1658.99,127.16L1659.57,130.92C1659.58,131.003 1659.59,131.086 1659.59,131.17C1659.59,131.988 1658.92,132.66 1658.1,132.66C1657.8,132.66 1657.51,132.569 1657.26,132.4L1654.05,130.27L1651.05,132.67C1650.75,132.907 1650.38,133.025 1650,133ZM1649.44,124.65L1650.86,125.2C1651.49,125.424 1651.89,126.036 1651.86,126.7L1651.76,128.22L1652.98,127.22C1653.49,126.813 1654.2,126.781 1654.74,127.14L1656.03,128L1655.8,126.49C1655.7,125.845 1656.03,125.203 1656.62,124.92L1657.99,124.25L1656.57,123.7C1655.95,123.474 1655.54,122.863 1655.57,122.2L1655.67,120.67L1654.46,121.67C1653.95,122.068 1653.24,122.1 1652.7,121.75L1651.4,120.89L1651.63,122.4C1651.73,123.045 1651.4,123.684 1650.81,123.97L1649.44,124.65Z" style="fill:white;fill-rule:nonzero;stroke:white;stroke-width:2.08px;"/>
    </g>
    <g transform="matrix(1,0,0,1,-1473.93,-46.2097)">
        <path d="M1683.68,160.26C1683.44,160.258 1683.2,160.2 1682.98,160.09C1682.45,159.814 1682.14,159.252 1682.18,158.66L1682.43,154.85L1678.84,153.46C1678.26,153.243 1677.87,152.685 1677.87,152.065C1677.87,151.491 1678.2,150.967 1678.72,150.72L1682.18,149.03L1681.6,145.26C1681.59,145.184 1681.58,145.108 1681.58,145.031C1681.58,144.208 1682.26,143.531 1683.08,143.531C1683.38,143.531 1683.66,143.618 1683.91,143.78L1687.12,145.91L1690.12,143.51C1690.38,143.299 1690.72,143.184 1691.05,143.184C1691.88,143.184 1692.55,143.861 1692.55,144.684C1692.55,144.719 1692.55,144.755 1692.55,144.79L1692.3,148.59L1695.89,149.98C1696.47,150.203 1696.85,150.761 1696.85,151.379C1696.85,151.954 1696.52,152.48 1696,152.73L1692.55,154.42L1693.13,158.19C1693.22,158.776 1692.95,159.362 1692.45,159.68C1691.96,160.006 1691.31,160.006 1690.82,159.68L1687.6,157.55L1684.6,159.94C1684.34,160.148 1684.01,160.261 1683.68,160.26ZM1683.12,151.91L1684.54,152.45C1685.16,152.676 1685.57,153.287 1685.54,153.95L1685.43,155.48L1686.65,154.48C1687.16,154.079 1687.87,154.051 1688.41,154.41L1689.71,155.26L1689.48,153.76C1689.38,153.112 1689.71,152.469 1690.3,152.18L1691.66,151.51L1690.25,150.96C1689.62,150.743 1689.21,150.132 1689.25,149.47L1689.35,147.94L1688.13,148.94C1687.62,149.341 1686.91,149.369 1686.37,149.01L1685.08,148.15L1685.31,149.66C1685.41,150.308 1685.08,150.951 1684.49,151.24L1683.12,151.91Z" style="fill:white;fill-rule:nonzero;stroke:white;stroke-width:2.08px;"/>
    </g>
    <g transform="matrix(1,0,0,1,-1473.93,-46.2097)">
        <path d="M1683.68,186.47C1683.44,186.473 1683.19,186.415 1682.98,186.3C1682.45,186.03 1682.14,185.47 1682.18,184.88L1682.43,181.07L1678.84,179.68C1678.27,179.477 1677.88,178.952 1677.84,178.35C1677.82,177.754 1678.15,177.198 1678.68,176.93L1682.14,175.24L1681.56,171.47C1681.47,170.886 1681.73,170.3 1682.23,169.98C1682.73,169.66 1683.37,169.66 1683.87,169.98L1687.08,172.11L1690.08,169.72C1690.35,169.509 1690.67,169.394 1691.01,169.394C1691.84,169.394 1692.51,170.072 1692.51,170.894C1692.51,170.926 1692.51,170.958 1692.51,170.99L1692.26,174.8L1695.85,176.19C1696.48,176.384 1696.91,176.967 1696.91,177.623C1696.91,178.22 1696.55,178.763 1696,179L1692.55,180.69L1693.13,184.46C1693.22,185.046 1692.95,185.631 1692.45,185.95C1691.96,186.276 1691.31,186.276 1690.82,185.95L1687.6,183.82L1684.6,186.22C1684.33,186.4 1684.01,186.487 1683.68,186.47ZM1683.12,178.12L1684.54,178.67C1685.17,178.894 1685.57,179.506 1685.54,180.17L1685.43,181.7L1686.65,180.7C1687.15,180.293 1687.87,180.261 1688.41,180.62L1689.71,181.48L1689.48,179.97C1689.38,179.325 1689.71,178.683 1690.3,178.4L1691.66,177.73L1690.25,177.18C1689.62,176.959 1689.21,176.345 1689.25,175.68L1689.35,174.15L1688.13,175.15C1687.62,175.548 1686.91,175.58 1686.37,175.23L1685.08,174.37L1685.31,175.88C1685.41,176.525 1685.08,177.164 1684.49,177.45L1683.12,178.12Z" style="fill:white;fill-rule:nonzero;stroke:white;stroke-width:2.08px;"/>
    </g>
    <g transform="matrix(1,0,0,1,-1473.93,-46.2097)">
        <path d="M1683.33,213.89C1683.09,213.888 1682.85,213.83 1682.63,213.72C1682.11,213.437 1681.8,212.88 1681.83,212.29L1682.08,208.48L1678.5,207.09C1677.92,206.873 1677.53,206.315 1677.53,205.695C1677.53,205.121 1677.86,204.597 1678.38,204.35L1681.83,202.66L1681.25,198.89C1681.16,198.301 1681.43,197.713 1681.93,197.39C1682.42,197.064 1683.07,197.064 1683.56,197.39L1686.78,199.52L1689.78,197.12C1690.05,196.909 1690.38,196.794 1690.71,196.794C1691.54,196.794 1692.21,197.471 1692.21,198.294C1692.21,198.329 1692.21,198.365 1692.21,198.4L1691.96,202.2L1695.55,203.59C1696.13,203.812 1696.51,204.371 1696.51,204.991C1696.51,205.564 1696.19,206.089 1695.67,206.34L1692.21,208.03L1692.79,211.8C1692.88,212.384 1692.62,212.97 1692.12,213.29C1691.62,213.61 1690.98,213.61 1690.48,213.29L1687.27,211.16L1684.27,213.55C1684.01,213.77 1683.67,213.89 1683.33,213.89ZM1682.78,205.53L1684.2,206.08C1684.83,206.304 1685.23,206.916 1685.2,207.58L1685.1,209.11L1686.32,208.11C1686.83,207.712 1687.54,207.68 1688.08,208.03L1689.37,208.89L1689.14,207.38C1689.05,206.736 1689.38,206.1 1689.96,205.81L1691.33,205.14L1689.91,204.59C1689.3,204.355 1688.91,203.743 1688.96,203.09L1689.06,201.57L1687.84,202.57C1687.34,202.977 1686.62,203.009 1686.08,202.65L1684.78,201.79L1685.01,203.3C1685.11,203.948 1684.78,204.591 1684.19,204.88L1682.78,205.53Z" style="fill:white;fill-rule:nonzero;stroke:white;stroke-width:2.08px;"/>
    </g>
    <g transform="matrix(1,0,0,1,-1473.93,-46.2097)">
        <path d="M1618.1,133.1C1617.86,133.098 1617.62,133.04 1617.4,132.93C1616.88,132.654 1616.56,132.092 1616.6,131.5L1616.85,127.7L1613.26,126.3C1612.68,126.083 1612.29,125.525 1612.29,124.905C1612.29,124.331 1612.62,123.807 1613.14,123.56L1616.6,121.87L1616.02,118.1C1616.01,118.024 1616,117.948 1616,117.871C1616,117.048 1616.68,116.371 1617.5,116.371C1617.8,116.371 1618.09,116.458 1618.33,116.62L1621.54,118.75L1624.54,116.36C1624.81,116.149 1625.13,116.034 1625.47,116.034C1626.3,116.034 1626.97,116.712 1626.97,117.534C1626.97,117.566 1626.97,117.598 1626.97,117.63L1626.72,121.43L1630.31,122.82C1630.89,123.043 1631.27,123.601 1631.27,124.219C1631.27,124.794 1630.94,125.32 1630.42,125.57L1626.97,127.26L1627.55,131.03C1627.56,131.106 1627.57,131.182 1627.57,131.259C1627.57,132.082 1626.89,132.759 1626.07,132.759C1625.77,132.759 1625.49,132.672 1625.24,132.51L1622.03,130.38L1619.03,132.77C1618.77,132.984 1618.44,133.1 1618.1,133.1ZM1617.54,124.75L1618.96,125.3C1619.59,125.52 1619.99,126.129 1619.96,126.79L1619.86,128.32L1621.07,127.32C1621.58,126.921 1622.3,126.893 1622.84,127.25L1624.13,128.11L1623.9,126.6C1623.8,125.952 1624.13,125.309 1624.72,125.02L1626.09,124.35L1624.67,123.8C1624.05,123.58 1623.64,122.971 1623.67,122.31L1623.77,120.78L1622.55,121.78C1622.04,122.181 1621.33,122.209 1620.79,121.85L1619.5,120.99L1619.73,122.5C1619.83,123.148 1619.5,123.791 1618.91,124.08L1617.54,124.75Z" style="fill:white;fill-rule:nonzero;stroke:white;stroke-width:2.08px;"/>
    </g>
</svg>
