<?xml version="1.0" encoding="UTF-8" standalone="no"?>
<!DOCTYPE svg PUBLIC "-//W3C//DTD SVG 1.1//EN" "http://www.w3.org/Graphics/SVG/1.1/DTD/svg11.dtd">
<svg width="100%" height="100%" viewBox="0 0 300 300" version="1.1" xmlns="http://www.w3.org/2000/svg" xmlns:xlink="http://www.w3.org/1999/xlink" xml:space="preserve" xmlns:serif="http://www.serif.com/" style="fill-rule:evenodd;clip-rule:evenodd;stroke-linejoin:round;stroke-miterlimit:2;">
    <g transform="matrix(1,0,0,1,-68.2255,-1722.68)">
        <path d="M313,1902.45L313,1785.5C313,1784.68 312.323,1784 311.5,1784L131.92,1784C131.097,1784 130.42,1784.68 130.42,1785.5L130.42,1961.43C130.42,1962.25 131.097,1962.93 131.92,1962.93L311.54,1962.93C312.363,1962.93 313.04,1962.25 313.04,1961.43L313.04,1902.43C313.04,1902.43 313,1902.47 313,1902.45ZM281.52,1871L255.2,1845.21L307.85,1845.21L281.52,1871ZM310,1847.26L310,1898.94L283.63,1873.1L310,1847.26ZM193.42,1901L193.42,1845.22L250.42,1845.22L250.42,1901L193.42,1901ZM247.83,1842.22L195.83,1842.22L221.83,1817.01L247.83,1842.22ZM224,1814.91L250.43,1789.29L250.43,1840.54L224,1814.91ZM193.43,1840.38L193.43,1789.44L219.69,1814.91L193.43,1840.38ZM190.43,1898.92L164.07,1873.1L190.43,1847.28L190.43,1898.92ZM193.43,1906.92L219.67,1931.92L193.43,1956.92L193.43,1906.92ZM194.73,1904.02L249,1904.02L221.89,1929.85L194.73,1904.02ZM250.43,1906.77L250.43,1957.08L224,1931.89L250.43,1906.77ZM253.43,1847.69L279.43,1873.13L253.43,1898.57L253.43,1847.69ZM221.85,1812.85L195.21,1787L248.46,1787L221.85,1812.85ZM161.92,1871L135.59,1845.21L188.24,1845.21L161.92,1871ZM133.42,1847.28L159.77,1873.1L133.42,1898.92L133.42,1847.28ZM161.92,1875.2L188.24,1901L135.59,1901L161.92,1875.2ZM221.84,1934L249.15,1960L194.53,1960L221.84,1934ZM281.52,1875.24L307.85,1901L255.2,1901L281.52,1875.24ZM310.04,1842.24L253.42,1842.24L253.42,1787L310,1787L310.04,1842.24ZM190.42,1787L190.42,1842.21L133.42,1842.21L133.42,1787L190.42,1787ZM133.42,1904L190.42,1904L190.42,1960L133.42,1960L133.42,1904ZM253.42,1960L253.42,1904L310,1904L310,1960L253.42,1960Z" style="fill:white;fill-rule:nonzero;stroke:white;stroke-width:3.33px;"/>
    </g>
</svg>
