<?xml version="1.0" encoding="UTF-8" standalone="no"?>
<!DOCTYPE svg PUBLIC "-//W3C//DTD SVG 1.1//EN" "http://www.w3.org/Graphics/SVG/1.1/DTD/svg11.dtd">
<svg width="100%" height="100%" viewBox="0 0 300 300" version="1.1" xmlns="http://www.w3.org/2000/svg" xmlns:xlink="http://www.w3.org/1999/xlink" xml:space="preserve" xmlns:serif="http://www.serif.com/" style="fill-rule:evenodd;clip-rule:evenodd;stroke-linejoin:round;stroke-miterlimit:2;">
    <g transform="matrix(1,0,0,1,-0.820313,4.24219)">
        <g transform="matrix(1,0,0,1,-1180,-360.888)">
            <path d="M1261.46,570.71C1259.87,572.421 1258.98,574.674 1258.98,577.012C1258.98,579.603 1260.07,582.079 1261.98,583.83C1265.75,587.267 1271.66,587.034 1275.15,583.31C1276.74,581.599 1277.63,579.346 1277.63,577.008C1277.63,574.417 1276.54,571.941 1274.63,570.19C1270.87,566.742 1264.94,566.976 1261.46,570.71ZM1273,581.27C1270.63,583.796 1266.62,583.953 1264.06,581.62C1262.77,580.435 1262.04,578.762 1262.04,577.011C1262.04,575.431 1262.63,573.908 1263.71,572.75C1266.08,570.219 1270.1,570.062 1272.65,572.4C1273.95,573.58 1274.69,575.254 1274.69,577.007C1274.69,578.59 1274.08,580.115 1273,581.27Z" style="fill:white;fill-rule:nonzero;"/>
        </g>
        <g transform="matrix(1,0,0,1,-1180,-360.888)">
            <path d="M1303.2,528.07L1294.71,537.36C1293.02,539.117 1292.09,541.472 1292.12,543.91C1292.15,546.909 1294.62,549.363 1297.62,549.363C1297.68,549.363 1297.73,549.362 1297.79,549.36C1300.35,549.254 1302.75,548.086 1304.41,546.14L1312.9,536.85C1314.59,535.089 1315.53,532.732 1315.5,530.29C1315.45,528.77 1314.8,527.329 1313.69,526.29C1311,523.87 1306.31,524.67 1303.2,528.07ZM1302.2,544.07C1300.2,546.22 1297.37,546.95 1295.94,545.66C1295.42,545.147 1295.13,544.449 1295.12,543.72C1295.13,542.082 1295.78,540.511 1296.93,539.34L1302.87,532.83L1308.13,537.57L1302.2,544.07ZM1310.68,534.78L1310.15,535.36L1304.89,530.61L1305.41,530.05C1306.52,528.743 1308.12,527.939 1309.83,527.82C1309.89,527.816 1309.94,527.814 1310,527.814C1311.37,527.814 1312.5,528.943 1312.5,530.314C1312.5,530.339 1312.5,530.365 1312.5,530.39C1312.5,532.05 1311.84,533.645 1310.68,534.83L1310.68,534.78Z" style="fill:white;fill-rule:nonzero;"/>
        </g>
        <g transform="matrix(1,0,0,1,-1180,-360.888)">
            <path d="M1414.94,462.81C1414.51,451.213 1409.43,440.263 1400.86,432.44C1383.12,416.21 1355.22,417.302 1338.8,434.87C1332.52,441.582 1328.54,450.125 1327.45,459.25C1325.45,461.647 1323.77,464.296 1322.45,467.13C1321.59,469.018 1320.89,470.979 1320.37,472.99C1320.12,474.341 1320.03,475.718 1320.12,477.09C1320.49,484.57 1318.74,492.004 1315.06,498.53L1315,498.63C1314.82,498.93 1314.64,499.23 1314.51,499.48C1312.52,502.84 1310.2,505.993 1307.58,508.89C1301.19,516.02 1280.84,535.79 1264.49,551.68C1259.49,556.55 1254.79,561.1 1250.95,564.86C1247.03,568.679 1244.88,573.969 1245.03,579.44C1245.17,585.319 1247.73,590.887 1252.1,594.82C1256.07,598.4 1261.23,600.388 1266.57,600.4C1267.1,600.4 1267.64,600.4 1268.18,600.34C1273.65,599.956 1278.72,597.327 1282.18,593.08C1285.54,588.95 1289.6,583.94 1293.95,578.56C1308.33,560.79 1326.22,538.68 1332.76,531.66C1334.92,529.317 1337.26,527.147 1339.76,525.17L1340.76,525.17L1340.76,524.48L1341.42,524.02C1347.83,519.32 1355.48,516.613 1363.42,516.24C1364.8,516.204 1366.17,515.989 1367.5,515.6L1367.62,515.6C1369.54,514.897 1371.39,514.034 1373.17,513.02C1375.9,511.427 1378.41,509.477 1380.62,507.22C1389.35,505.315 1397.29,500.776 1403.36,494.22C1411.28,485.733 1415.45,474.405 1414.94,462.81ZM1330.53,529.62C1323.92,536.71 1305.98,558.87 1291.53,576.62C1287.18,582 1283.12,587.01 1279.76,591.13C1276.82,594.743 1272.5,596.975 1267.85,597.29C1262.79,597.664 1257.78,595.951 1254.01,592.55C1250.25,589.17 1248.05,584.384 1247.93,579.33C1247.8,574.689 1249.61,570.197 1252.93,566.95C1256.78,563.19 1261.45,558.65 1266.47,553.78C1282.85,537.86 1303.25,518.05 1309.7,510.84C1310.7,509.68 1311.7,508.51 1312.61,507.34C1312.56,512.96 1314.61,518.81 1317.72,521.97C1321.35,525.398 1326.17,527.288 1331.16,527.24C1331.72,527.24 1332.28,527.24 1332.84,527.16C1332.1,528 1331.31,528.78 1330.53,529.62ZM1371.61,510.32C1369.98,511.253 1368.27,512.045 1366.51,512.69L1366.39,512.69C1365.31,512.958 1364.21,513.112 1363.1,513.15C1354.25,513.575 1345.74,516.718 1338.74,522.15L1338.66,522.21L1338.4,522.4C1332.51,525.88 1324.07,524.13 1319.92,519.9C1315.77,515.67 1313.92,505.9 1317.48,500.22L1317.59,500.05C1321.55,493.056 1323.45,485.08 1323.07,477.05C1323.01,475.917 1323.06,474.781 1323.24,473.66C1324.05,470.488 1325.36,467.469 1327.14,464.72L1327.14,466.22C1327.49,475.683 1330.95,484.772 1336.97,492.08L1334.35,494.91L1326.61,503.39C1324.95,505.117 1324.05,507.428 1324.08,509.82C1324.12,511.36 1324.78,512.82 1325.91,513.87C1326.98,514.807 1328.36,515.31 1329.78,515.28C1332.29,515.191 1334.66,514.064 1336.31,512.17L1344.05,503.69L1346.65,500.82C1353.87,505.613 1362.35,508.167 1371.02,508.16C1372.37,508.16 1373.72,508.09 1375.02,507.96C1373.94,508.822 1372.8,509.61 1371.61,510.32ZM1335.19,498.48L1336.59,496.94L1338.28,495.12L1343.52,499.84L1341.86,501.68L1340.45,503.22L1335.19,498.48ZM1338.42,505.48L1334.12,510.19C1332.2,512.3 1329.37,512.98 1327.94,511.69C1327.39,511.169 1327.09,510.444 1327.1,509.69C1327.11,508.094 1327.74,506.562 1328.85,505.42L1333.17,500.69L1338.42,505.48ZM1401.11,492.16C1385.81,508.531 1359.8,509.547 1343.27,494.42C1334.9,486.752 1330.13,475.909 1330.13,464.559C1330.13,454.316 1334.02,444.444 1341,436.95C1356.3,420.581 1382.3,419.564 1398.83,434.69C1407.2,442.359 1411.97,453.204 1411.97,464.556C1411.97,474.796 1408.09,484.665 1401.11,492.16Z" style="fill:white;fill-rule:nonzero;"/>
        </g>
        <g transform="matrix(1,0,0,1,-1180,-360.888)">
            <path d="M1364.1,458.12C1362.48,459.857 1361.58,462.144 1361.58,464.517C1361.58,467.148 1362.69,469.662 1364.63,471.44C1368.45,474.936 1374.47,474.697 1378,470.91C1379.62,469.171 1380.52,466.883 1380.52,464.509C1380.52,461.88 1379.41,459.369 1377.48,457.59C1373.65,454.093 1367.64,454.331 1364.1,458.12ZM1375.81,468.87C1373.39,471.46 1369.28,471.622 1366.66,469.23C1365.34,468.02 1364.59,466.308 1364.59,464.517C1364.59,462.9 1365.2,461.342 1366.3,460.16C1367.52,458.832 1369.25,458.076 1371.06,458.076C1374.5,458.076 1377.37,460.822 1377.52,464.26C1377.59,465.963 1376.97,467.624 1375.81,468.87Z" style="fill:white;fill-rule:nonzero;"/>
        </g>
        <g transform="matrix(1,0,0,1,-1180,-360.888)">
            <path d="M1354.72,449.5C1350.92,453.573 1348.8,458.943 1348.8,464.517C1348.8,470.694 1351.4,476.594 1355.96,480.76C1364.94,488.989 1379.07,488.436 1387.38,479.53C1391.19,475.456 1393.31,470.084 1393.31,464.508C1393.31,458.334 1390.71,452.436 1386.15,448.27C1377.17,440.045 1363.03,440.598 1354.72,449.5ZM1385.19,477.5C1378,485.201 1365.77,485.682 1357.99,478.57C1354.05,474.972 1351.8,469.876 1351.8,464.541C1351.8,459.727 1353.63,455.088 1356.92,451.57C1364.11,443.866 1376.35,443.39 1384.12,450.51C1388.06,454.108 1390.31,459.204 1390.31,464.539C1390.31,469.353 1388.48,473.992 1385.19,477.51L1385.19,477.5Z" style="fill:white;fill-rule:nonzero;"/>
        </g>
        <g transform="matrix(1,0,0,1,-1180,-360.888)">
            <path d="M1360.7,538.8C1361.77,538.068 1362.88,537.4 1364.03,536.8C1364.56,536.556 1364.9,536.022 1364.9,535.437C1364.9,534.615 1364.23,533.937 1363.4,533.937C1363.14,533.937 1362.88,534.007 1362.65,534.14C1361.4,534.794 1360.18,535.518 1359.01,536.31C1358.6,536.589 1358.35,537.054 1358.35,537.55C1358.35,538.373 1359.03,539.05 1359.85,539.05C1359.86,539.05 1359.86,539.05 1359.86,539.05C1360.16,539.05 1360.45,538.963 1360.7,538.8Z" style="fill:white;fill-rule:nonzero;"/>
        </g>
        <g transform="matrix(1,0,0,1,-1180,-360.888)">
            <path d="M1365.05,594.71C1363.88,594.156 1362.75,593.531 1361.65,592.84C1361.41,592.689 1361.13,592.609 1360.85,592.609C1360.03,592.609 1359.35,593.287 1359.35,594.11C1359.35,594.625 1359.61,595.105 1360.05,595.38C1361.25,596.12 1362.48,596.788 1363.76,597.38C1363.96,597.474 1364.18,597.522 1364.4,597.52C1365.22,597.518 1365.9,596.841 1365.9,596.02C1365.9,595.446 1365.57,594.92 1365.05,594.67L1365.05,594.71Z" style="fill:white;fill-rule:nonzero;"/>
        </g>
        <g transform="matrix(1,0,0,1,-1180,-360.888)">
            <path d="M1357,589.25C1356.04,588.377 1355.14,587.446 1354.3,586.46C1354.02,586.127 1353.6,585.935 1353.16,585.935C1352.34,585.935 1351.66,586.612 1351.66,587.435C1351.66,587.792 1351.79,588.138 1352.02,588.41C1352.96,589.489 1353.96,590.511 1355.02,591.47L1356.09,590.42L1355.09,591.52C1355.36,591.774 1355.72,591.917 1356.09,591.92C1356.51,591.919 1356.9,591.749 1357.19,591.45C1357.75,590.847 1357.71,589.895 1357.12,589.33L1357,589.25Z" style="fill:white;fill-rule:nonzero;"/>
        </g>
        <g transform="matrix(1,0,0,1,-1180,-360.888)">
            <path d="M1353.61,545.36C1354.1,544.75 1354.61,544.15 1355.16,543.57C1355.5,543.2 1355.85,542.84 1356.16,542.48C1356.47,542.196 1356.64,541.796 1356.64,541.378C1356.64,540.555 1355.96,539.878 1355.14,539.878C1354.73,539.878 1354.33,540.049 1354.05,540.35C1353.67,540.73 1353.28,541.12 1352.91,541.53C1352.32,542.16 1351.75,542.82 1351.22,543.53C1351.01,543.796 1350.89,544.128 1350.89,544.47C1350.89,545.293 1351.57,545.971 1352.39,545.971C1352.85,545.971 1353.28,545.764 1353.56,545.41L1353.61,545.36Z" style="fill:white;fill-rule:nonzero;"/>
        </g>
        <g transform="matrix(1,0,0,1,-1180,-360.888)">
            <path d="M1409.24,553.6C1409.71,554.802 1410.12,556.031 1410.45,557.28C1410.62,557.937 1411.22,558.4 1411.9,558.4C1412.03,558.414 1412.15,558.414 1412.28,558.4C1413.08,558.191 1413.56,557.365 1413.35,556.57C1412.99,555.211 1412.55,553.876 1412.03,552.57C1411.8,552 1411.25,551.624 1410.63,551.624C1409.81,551.624 1409.13,552.301 1409.13,553.125C1409.13,553.315 1409.17,553.503 1409.24,553.68L1409.24,553.6Z" style="fill:white;fill-rule:nonzero;"/>
        </g>
        <g transform="matrix(1,0,0,1,-1180,-360.888)">
            <path d="M1349.16,578.27C1348.92,577.72 1348.38,577.362 1347.78,577.362C1346.96,577.362 1346.28,578.041 1346.28,578.865C1346.28,579.07 1346.32,579.272 1346.4,579.46C1346.96,580.757 1347.6,582.019 1348.31,583.24C1348.58,583.704 1349.07,583.99 1349.61,583.99C1349.88,583.99 1350.13,583.918 1350.36,583.78C1351.05,583.371 1351.29,582.479 1350.9,581.78C1350.25,580.645 1349.67,579.473 1349.16,578.27Z" style="fill:white;fill-rule:nonzero;"/>
        </g>
        <g transform="matrix(1,0,0,1,-1180,-360.888)">
            <path d="M1346.82,554.55C1346.99,554.625 1347.17,554.662 1347.36,554.66C1347.98,554.662 1348.53,554.284 1348.76,553.71C1349.23,552.508 1349.78,551.336 1350.39,550.2C1350.54,549.96 1350.62,549.683 1350.62,549.399C1350.62,548.576 1349.94,547.899 1349.12,547.899C1348.54,547.899 1348.01,548.24 1347.76,548.77C1347.09,550.012 1346.49,551.294 1345.97,552.61C1345.67,553.375 1346.06,554.25 1346.82,554.55Z" style="fill:white;fill-rule:nonzero;"/>
        </g>
        <g transform="matrix(1,0,0,1,-1180,-360.888)">
            <path d="M1369.41,534.62C1370.64,534.237 1371.9,533.93 1373.17,533.7C1373.89,533.572 1374.43,532.936 1374.43,532.2C1374.43,531.364 1373.74,530.677 1372.9,530.677C1372.82,530.677 1372.73,530.685 1372.64,530.7C1371.25,530.952 1369.88,531.286 1368.53,531.7C1367.91,531.897 1367.48,532.478 1367.48,533.13C1367.48,533.948 1368.15,534.623 1368.97,534.63C1369.12,534.646 1369.26,534.642 1369.41,534.62Z" style="fill:white;fill-rule:nonzero;"/>
        </g>
        <g transform="matrix(1,0,0,1,-1180,-360.888)">
            <path d="M1345,564.51L1345.11,564.51C1345.89,564.512 1346.55,563.901 1346.61,563.12C1346.7,561.831 1346.87,560.549 1347.12,559.28C1347.13,559.207 1347.14,559.133 1347.14,559.059C1347.14,558.236 1346.46,557.559 1345.64,557.559C1344.95,557.559 1344.35,558.032 1344.18,558.7C1343.91,560.088 1343.72,561.49 1343.61,562.9C1343.61,562.938 1343.61,562.976 1343.61,563.014C1343.61,563.797 1344.22,564.455 1345,564.51Z" style="fill:white;fill-rule:nonzero;"/>
        </g>
        <g transform="matrix(1,0,0,1,-1180,-360.888)">
            <path d="M1347.35,572.75C1347.06,571.49 1346.85,570.215 1346.71,568.93C1346.63,568.167 1345.98,567.581 1345.21,567.581C1344.38,567.581 1343.7,568.262 1343.7,569.09C1343.7,569.143 1343.7,569.197 1343.71,569.25C1343.86,570.653 1344.09,572.046 1344.41,573.42C1344.56,574.101 1345.17,574.588 1345.87,574.59C1345.98,574.604 1346.1,574.604 1346.21,574.59C1346.9,574.443 1347.4,573.828 1347.4,573.123C1347.4,572.997 1347.38,572.872 1347.35,572.75Z" style="fill:white;fill-rule:nonzero;"/>
        </g>
        <g transform="matrix(1,0,0,1,-1180,-360.888)">
            <path d="M1384,597.47C1382.72,597.66 1381.43,597.78 1380.14,597.83C1379.33,597.844 1378.66,598.516 1378.66,599.33C1378.66,600.153 1379.34,600.83 1380.16,600.83C1380.17,600.83 1380.18,600.83 1380.19,600.83C1381.6,600.78 1383.01,600.65 1384.4,600.44C1385.14,600.329 1385.69,599.687 1385.69,598.94C1385.69,598.108 1385.01,597.423 1384.17,597.423C1384.1,597.423 1384.02,597.429 1383.95,597.44L1384,597.47Z" style="fill:white;fill-rule:nonzero;"/>
        </g>
        <g transform="matrix(1,0,0,1,-1180,-360.888)">
            <path d="M1409.25,581.08C1408.55,580.695 1407.66,580.941 1407.25,581.63C1406.6,582.75 1405.89,583.829 1405.11,584.86C1404.91,585.12 1404.81,585.436 1404.81,585.76C1404.81,586.583 1405.49,587.26 1406.31,587.26C1406.78,587.257 1407.23,587.035 1407.51,586.66C1408.36,585.531 1409.13,584.352 1409.84,583.13C1409.97,582.906 1410.03,582.653 1410.03,582.397C1410.03,581.849 1409.73,581.343 1409.25,581.08Z" style="fill:white;fill-rule:nonzero;"/>
        </g>
        <g transform="matrix(1,0,0,1,-1180,-360.888)">
            <path d="M1407.89,549.12C1408.17,549.121 1408.44,549.041 1408.68,548.89C1409.12,548.619 1409.39,548.138 1409.39,547.622C1409.39,547.342 1409.31,547.067 1409.16,546.83C1408.4,545.635 1407.58,544.483 1406.7,543.38C1406.41,543.027 1405.98,542.821 1405.53,542.821C1404.7,542.821 1404.03,543.5 1404.03,544.325C1404.03,544.669 1404.14,545.003 1404.36,545.27C1405.18,546.271 1405.93,547.323 1406.61,548.42C1406.89,548.856 1407.37,549.12 1407.89,549.12Z" style="fill:white;fill-rule:nonzero;"/>
        </g>
        <g transform="matrix(1,0,0,1,-1180,-360.888)">
            <path d="M1412.51,571.51C1412.4,571.485 1412.29,571.472 1412.17,571.472C1411.48,571.472 1410.87,571.96 1410.72,572.64C1410.44,573.901 1410.08,575.143 1409.64,576.36C1409.58,576.522 1409.55,576.694 1409.55,576.866C1409.55,577.5 1409.95,578.068 1410.55,578.28C1410.71,578.332 1410.88,578.359 1411.05,578.36C1411.68,578.361 1412.25,577.958 1412.46,577.36C1412.93,576.028 1413.33,574.669 1413.65,573.29C1413.82,572.49 1413.31,571.688 1412.51,571.51Z" style="fill:white;fill-rule:nonzero;"/>
        </g>
        <g transform="matrix(1,0,0,1,-1180,-360.888)">
            <path d="M1414.41,562.78C1414.35,562 1413.69,561.391 1412.91,561.391C1412.09,561.391 1411.41,562.07 1411.41,562.895C1411.41,562.933 1411.41,562.972 1411.41,563.01C1411.47,563.84 1411.5,564.69 1411.5,565.52L1411.5,566.88C1411.5,566.904 1411.5,566.928 1411.5,566.952C1411.5,567.749 1412.13,568.414 1412.93,568.45L1413,568.45C1413.8,568.445 1414.46,567.806 1414.49,567.01L1414.49,565.52C1414.51,564.61 1414.48,563.69 1414.41,562.78Z" style="fill:white;fill-rule:nonzero;"/>
        </g>
        <g transform="matrix(1,0,0,1,-1180,-360.888)">
            <path d="M1401.17,589.17C1400.22,590.053 1399.22,590.878 1398.17,591.64C1397.79,591.922 1397.56,592.372 1397.56,592.85C1397.56,593.673 1398.23,594.35 1399.06,594.35C1399.06,594.35 1399.06,594.35 1399.06,594.35C1399.38,594.352 1399.69,594.25 1399.94,594.06C1401.08,593.23 1402.17,592.332 1403.21,591.37C1403.44,591.1 1403.56,590.758 1403.56,590.405C1403.56,589.582 1402.88,588.905 1402.06,588.905C1401.76,588.905 1401.46,588.997 1401.21,589.17L1401.17,589.17Z" style="fill:white;fill-rule:nonzero;"/>
        </g>
        <g transform="matrix(1,0,0,1,-1180,-360.888)">
            <path d="M1401.3,541.45C1401.73,541.454 1402.15,541.267 1402.43,540.94C1402.67,540.668 1402.8,540.317 1402.8,539.954C1402.8,539.518 1402.61,539.103 1402.28,538.82C1401.21,537.898 1400.09,537.04 1398.92,536.25C1398.66,536.051 1398.34,535.944 1398.01,535.944C1397.19,535.944 1396.51,536.621 1396.51,537.444C1396.51,537.97 1396.79,538.459 1397.24,538.73C1398.31,539.456 1399.34,540.244 1400.32,541.09C1400.59,541.323 1400.94,541.451 1401.3,541.45Z" style="fill:white;fill-rule:nonzero;"/>
        </g>
        <g transform="matrix(1,0,0,1,-1180,-360.888)">
            <path d="M1374.29,597.5C1373.01,597.315 1371.75,597.055 1370.5,596.72C1370.34,596.666 1370.18,596.639 1370.01,596.639C1369.19,596.639 1368.51,597.316 1368.51,598.139C1368.51,598.851 1369.02,599.47 1369.72,599.61C1371.08,599.982 1372.46,600.269 1373.86,600.47L1374.08,600.47C1374.12,600.472 1374.15,600.474 1374.18,600.474C1375.01,600.474 1375.69,599.795 1375.69,598.97C1375.69,598.185 1375.07,597.525 1374.29,597.47L1374.29,597.5Z" style="fill:white;fill-rule:nonzero;"/>
        </g>
        <g transform="matrix(1,0,0,1,-1180,-360.888)">
            <path d="M1392.76,536.05C1393.35,536.055 1393.89,535.704 1394.13,535.16C1394.22,534.963 1394.27,534.75 1394.27,534.534C1394.27,533.939 1393.91,533.399 1393.37,533.16C1392.07,532.59 1390.73,532.099 1389.37,531.69C1389.24,531.654 1389.11,531.636 1388.97,531.636C1388.15,531.636 1387.47,532.314 1387.47,533.136C1387.47,533.781 1387.89,534.357 1388.5,534.56C1389.74,534.938 1390.95,535.389 1392.14,535.91C1392.34,535.998 1392.55,536.046 1392.76,536.05Z" style="fill:white;fill-rule:nonzero;"/>
        </g>
        <g transform="matrix(1,0,0,1,-1180,-360.888)">
            <path d="M1382.83,533.4L1383.01,533.4C1383.04,533.402 1383.07,533.402 1383.1,533.402C1383.92,533.402 1384.6,532.724 1384.6,531.9C1384.6,531.108 1383.97,530.445 1383.18,530.4C1381.8,530.24 1380.42,530.16 1379.03,530.16L1379,530.16C1378.19,530.16 1377.53,530.824 1377.53,531.63C1377.53,531.64 1377.53,531.65 1377.53,531.66C1377.55,532.49 1378.24,533.16 1379.07,533.16C1380.33,533.166 1381.58,533.246 1382.83,533.4Z" style="fill:white;fill-rule:nonzero;"/>
        </g>
        <g transform="matrix(1,0,0,1,-1180,-360.888)">
            <path d="M1393.19,594.62C1392.02,595.178 1390.82,595.668 1389.6,596.09C1388.99,596.296 1388.58,596.869 1388.58,597.51C1388.58,598.333 1389.26,599.01 1390.08,599.01C1390.09,599.01 1390.09,599.01 1390.09,599.01C1390.25,599.008 1390.41,598.981 1390.57,598.93C1391.91,598.472 1393.22,597.934 1394.49,597.32C1394.97,597.058 1395.28,596.551 1395.28,596.001C1395.28,595.178 1394.6,594.501 1393.78,594.501C1393.58,594.501 1393.38,594.541 1393.19,594.62Z" style="fill:white;fill-rule:nonzero;"/>
        </g>
        <g transform="matrix(1,0,0,1,-1180,-360.888)">
            <path d="M1408.41,564.36C1408.13,556.59 1404.73,549.251 1399,544C1387.13,533.124 1368.43,533.857 1357.45,545.63C1352.42,551.027 1349.62,558.135 1349.62,565.511C1349.62,573.682 1353.06,581.488 1359.08,587.01C1370.95,597.9 1389.65,597.171 1400.64,585.39C1405.94,579.707 1408.74,572.125 1408.41,564.36ZM1398.41,583.36C1388.55,593.944 1371.75,594.605 1361.08,584.83C1355.68,579.87 1352.6,572.863 1352.6,565.53C1352.6,558.913 1355.11,552.536 1359.61,547.69C1369.48,537.115 1386.27,536.458 1396.94,546.23C1402.34,551.188 1405.42,558.193 1405.42,565.525C1405.42,572.14 1402.91,578.516 1398.41,583.36Z" style="fill:white;fill-rule:nonzero;"/>
        </g>
        <g transform="matrix(1,0,0,1,-1180,-360.888)">
            <path d="M1373.72,560.62C1372.49,561.949 1371.81,563.694 1371.81,565.505C1371.81,567.512 1372.64,569.429 1374.12,570.79C1375.45,572.027 1377.2,572.714 1379.02,572.714C1382.98,572.714 1386.23,569.46 1386.23,565.504C1386.23,561.549 1382.98,558.294 1379.02,558.294C1377.01,558.294 1375.09,559.138 1373.72,560.62ZM1382.12,568.35C1381.32,569.22 1380.2,569.716 1379.02,569.716C1376.71,569.716 1374.81,567.816 1374.81,565.506C1374.81,563.197 1376.71,561.296 1379.02,561.296C1380.08,561.296 1381.11,561.702 1381.89,562.43C1382.75,563.219 1383.24,564.336 1383.24,565.504C1383.24,566.56 1382.84,567.578 1382.12,568.35Z" style="fill:white;fill-rule:nonzero;"/>
        </g>
        <g transform="matrix(1,0,0,1,-1180,-360.888)">
            <path d="M1367,554.43C1364.2,557.439 1362.64,561.402 1362.64,565.514C1362.64,570.069 1364.55,574.422 1367.91,577.5C1374.53,583.559 1384.95,583.15 1391.07,576.59C1393.87,573.581 1395.42,569.621 1395.42,565.512C1395.42,560.954 1393.51,556.6 1390.15,553.52C1383.53,547.462 1373.12,547.871 1367,554.43ZM1388.87,574.55C1383.87,579.917 1375.35,580.25 1369.94,575.29C1367.2,572.778 1365.64,569.228 1365.64,565.513C1365.64,562.158 1366.91,558.925 1369.2,556.47C1374.2,551.104 1382.72,550.771 1388.12,555.73C1390.86,558.244 1392.42,561.796 1392.42,565.513C1392.42,568.864 1391.15,572.094 1388.87,574.55Z" style="fill:white;fill-rule:nonzero;"/>
        </g>
    </g>
</svg>
