<?xml version="1.0" encoding="UTF-8" standalone="no"?>
<!DOCTYPE svg PUBLIC "-//W3C//DTD SVG 1.1//EN" "http://www.w3.org/Graphics/SVG/1.1/DTD/svg11.dtd">
<svg width="100%" height="100%" viewBox="0 0 300 300" version="1.1" xmlns="http://www.w3.org/2000/svg" xmlns:xlink="http://www.w3.org/1999/xlink" xml:space="preserve" xmlns:serif="http://www.serif.com/" style="fill-rule:evenodd;clip-rule:evenodd;stroke-linejoin:round;stroke-miterlimit:2;">
    <g>
        <g transform="matrix(-0.000930822,1.48083,1.48083,0.000930822,-2615.96,-3463.93)">
            <path d="M2493.22,1815.58C2491.87,1814.45 2490.16,1813.83 2488.4,1813.83C2486.15,1813.83 2484.01,1814.84 2482.58,1816.58C2479.95,1819.78 2480.4,1824.58 2483.58,1827.24C2484.93,1828.37 2486.64,1829 2488.4,1829C2488.63,1829.02 2488.87,1829.02 2489.1,1829C2491.1,1828.83 2492.94,1827.86 2494.22,1826.31C2495.36,1824.94 2495.99,1823.22 2495.99,1821.44C2495.99,1819.17 2494.97,1817.02 2493.22,1815.58ZM2491.88,1824.32C2491.11,1825.26 2490,1825.84 2488.79,1825.95C2488.66,1825.96 2488.52,1825.97 2488.39,1825.97C2485.88,1825.97 2483.82,1823.9 2483.82,1821.4C2483.82,1820.32 2484.2,1819.28 2484.89,1818.46C2485.66,1817.53 2486.77,1816.94 2487.97,1816.84C2488.11,1816.83 2488.25,1816.83 2488.39,1816.84C2489.45,1816.84 2490.49,1817.22 2491.3,1817.9C2493.2,1819.51 2493.46,1822.39 2491.88,1824.32Z" style="fill:white;fill-rule:nonzero;"/>
        </g>
        <g transform="matrix(-0.000930822,1.48083,1.48083,0.000930822,-2615.96,-3463.93)">
            <path d="M2499.43,1808.1C2496.33,1805.51 2492.42,1804.09 2488.38,1804.09C2483.26,1804.09 2478.4,1806.37 2475.13,1810.31C2469.09,1817.61 2470.08,1828.58 2477.34,1834.68C2480.42,1837.27 2484.32,1838.68 2488.34,1838.68C2488.87,1838.68 2489.4,1838.68 2489.93,1838.61C2494.49,1838.2 2498.71,1835.98 2501.63,1832.45C2507.66,1825.15 2506.67,1814.2 2499.43,1808.1ZM2499.33,1830.55C2496.63,1833.81 2492.62,1835.7 2488.39,1835.7C2485.05,1835.7 2481.82,1834.52 2479.26,1832.38C2473.26,1827.34 2472.44,1818.27 2477.44,1812.23C2479.85,1809.31 2483.33,1807.48 2487.1,1807.14C2487.54,1807.14 2487.97,1807.08 2488.41,1807.08C2491.74,1807.08 2494.96,1808.26 2497.51,1810.4C2503.51,1815.44 2504.33,1824.51 2499.33,1830.55Z" style="fill:white;fill-rule:nonzero;"/>
        </g>
        <g transform="matrix(-0.000930822,1.48083,1.48083,0.000930822,-2615.96,-3463.93)">
            <path d="M2510,1795.41C2503.95,1790.35 2496.3,1787.57 2488.42,1787.57C2478.41,1787.57 2468.91,1792.04 2462.52,1799.74C2450.7,1814.01 2452.65,1835.45 2466.83,1847.37C2472.85,1852.44 2480.48,1855.23 2488.36,1855.22C2489.36,1855.22 2490.42,1855.22 2491.45,1855.08C2500.37,1854.3 2508.61,1849.98 2514.31,1843.08C2526.15,1828.8 2524.21,1807.33 2510,1795.41ZM2512,1841.13C2506.19,1848.15 2497.53,1852.22 2488.42,1852.22C2481.23,1852.22 2474.27,1849.68 2468.76,1845.07C2455.83,1834.21 2454.06,1814.67 2464.83,1801.66C2470.01,1795.36 2477.52,1791.39 2485.65,1790.66C2486.59,1790.58 2487.53,1790.54 2488.47,1790.54C2495.64,1790.53 2502.59,1793.06 2508.07,1797.68C2521.02,1808.55 2522.79,1828.12 2512,1841.13Z" style="fill:white;fill-rule:nonzero;"/>
        </g>
        <g transform="matrix(-0.000930822,1.48083,1.48083,0.000930822,-2615.96,-3463.93)">
            <path d="M2514.58,1789.85C2507.23,1783.73 2497.96,1780.37 2488.39,1780.37C2470.6,1780.37 2454.76,1791.98 2449.39,1808.94C2446.81,1817.08 2440.13,1828.94 2431.57,1835.82C2397.52,1863.08 2372.12,1893.82 2351.65,1932.58C2348.88,1937.44 2348.54,1943.32 2350.72,1948.46C2353.08,1953.54 2357.64,1957.28 2363.09,1958.58C2366.76,1959.52 2370.53,1959.99 2374.32,1959.98C2382.88,1959.98 2391.06,1957.66 2395.13,1953.6C2398.63,1950.11 2401.95,1946.44 2405.07,1942.6C2417.02,1927.96 2422.35,1915.27 2427.07,1904.08C2430.89,1894.99 2434.5,1886.4 2441.07,1877.73C2444.55,1873.16 2448.53,1868.99 2452.92,1865.28C2458.92,1860.22 2470.69,1861.16 2481.09,1861.99L2485.62,1862.33C2486.51,1862.39 2487.39,1862.42 2488.28,1862.42C2510.8,1862.42 2529.33,1843.89 2529.33,1821.37C2529.33,1809.19 2523.91,1797.62 2514.56,1789.83L2514.58,1789.85ZM2363.86,1955.68C2357.12,1954.29 2352.25,1948.31 2352.25,1941.43C2352.25,1938.81 2352.96,1936.23 2354.3,1933.98C2356.3,1930.14 2358.42,1926.4 2360.55,1922.72C2368.66,1935.14 2380.4,1944.77 2394.17,1950.29C2393.79,1950.69 2393.41,1951.09 2393.02,1951.47C2387.9,1956.56 2374.55,1958.49 2363.86,1955.68ZM2438.7,1875.93C2431.87,1884.93 2428.19,1893.67 2424.29,1902.93C2419.44,1914.47 2414.42,1926.41 2402.74,1940.72C2400.74,1943.2 2398.59,1945.62 2396.38,1947.98C2382.23,1942.57 2370.23,1932.67 2362.23,1919.81C2376.74,1895.1 2394.83,1872.67 2415.91,1853.26C2421.91,1862.34 2430.41,1869.49 2440.37,1873.87C2439.81,1874.56 2439.23,1875.24 2438.69,1875.95L2438.7,1875.93ZM2517.51,1845.77C2509.74,1855.09 2497.95,1860.15 2485.84,1859.36L2481.35,1859.02C2470.35,1858.14 2457.91,1857.15 2450.99,1863.02C2447.93,1865.62 2445.06,1868.44 2442.41,1871.46C2432.48,1867.29 2424.03,1860.23 2418.18,1851.19C2423.07,1846.75 2428.18,1842.41 2433.45,1838.19C2442.5,1830.94 2449.54,1818.43 2452.25,1809.86C2456.86,1795.32 2469.79,1784.91 2484.98,1783.51C2486.15,1783.4 2487.31,1783.35 2488.46,1783.35C2497.31,1783.34 2505.89,1786.47 2512.66,1792.17C2528.61,1805.59 2530.79,1829.71 2517.51,1845.77Z" style="fill:white;fill-rule:nonzero;"/>
        </g>
        <g transform="matrix(-0.000930822,1.48083,1.48083,0.000930822,-2615.96,-3463.93)">
            <path d="M2441.9,1845.91C2439.9,1845.91 2437.4,1847.28 2435.31,1849.46C2432.05,1852.86 2431.09,1856.86 2433.07,1858.77C2433.75,1859.4 2434.65,1859.74 2435.57,1859.71L2435.67,1859.71C2437.67,1859.71 2440.16,1858.34 2442.26,1856.15C2445.51,1852.75 2446.47,1848.75 2444.5,1846.85C2443.79,1846.21 2442.86,1845.87 2441.9,1845.91ZM2440.09,1854.08C2438.37,1855.86 2436.6,1856.69 2435.61,1856.71C2435.45,1856.72 2435.29,1856.69 2435.15,1856.61C2434.75,1856.22 2435.21,1853.9 2437.47,1851.54C2439.19,1849.75 2440.96,1848.93 2441.95,1848.91C2442.11,1848.89 2442.27,1848.92 2442.41,1849.01C2442.82,1849.39 2442.35,1851.71 2440.09,1854.08Z" style="fill:white;fill-rule:nonzero;"/>
        </g>
    </g>
</svg>
