<?xml version="1.0" encoding="UTF-8" standalone="no"?>
<!DOCTYPE svg PUBLIC "-//W3C//DTD SVG 1.1//EN" "http://www.w3.org/Graphics/SVG/1.1/DTD/svg11.dtd">
<svg width="100%" height="100%" viewBox="0 0 300 300" version="1.1" xmlns="http://www.w3.org/2000/svg" xmlns:xlink="http://www.w3.org/1999/xlink" xml:space="preserve" xmlns:serif="http://www.serif.com/" style="fill-rule:evenodd;clip-rule:evenodd;stroke-linejoin:round;stroke-miterlimit:2;">
    <g>
        <g transform="matrix(1,0,0,1,-2016.81,-43.0391)">
            <path d="M2147.38,228.63C2139.38,222.63 2121.19,237.01 2113.7,246.38C2106.7,255.13 2108.26,263.09 2109.81,267.05C2110.47,268.951 2111.57,270.666 2113.03,272.05C2114.67,273.29 2120.66,277.47 2127.1,277.47C2131.36,277.482 2135.37,275.454 2137.89,272.02C2144.28,264.02 2152.34,246.31 2150.96,235.59C2150.55,232.44 2149.35,230.1 2147.38,228.63ZM2135.54,270.15C2128.34,279.15 2117.03,271.32 2114.85,269.67C2113.85,268.603 2113.09,267.339 2112.61,265.96C2111.29,262.6 2109.98,255.82 2116.04,248.25C2124.62,237.52 2140.49,227.25 2145.59,231.04C2146.88,232.04 2147.68,233.66 2147.98,235.97C2149.15,245 2142.25,261.76 2135.54,270.15Z" style="fill:white;fill-rule:nonzero;"/>
        </g>
        <g transform="matrix(1,0,0,1,-2016.81,-43.0391)">
            <path d="M2234.38,237C2229.38,230.76 2223.56,227.55 2216.8,223.82C2210.48,220.564 2204.54,216.638 2199.06,212.11C2198.57,211.691 2197.85,211.638 2197.3,211.98L2195.38,213.15C2192.05,210.15 2187.25,204.29 2181.47,196.68C2188.47,186.13 2195.47,174.9 2203.55,161.93C2206.43,157.317 2209.43,152.527 2212.55,147.56C2221.34,133.56 2223.29,123.03 2225.01,113.76C2225.57,110.424 2226.3,107.12 2227.2,103.86C2227.24,103.724 2227.26,103.583 2227.26,103.442C2227.26,102.619 2226.58,101.942 2225.76,101.942C2225.31,101.942 2224.89,102.143 2224.6,102.49C2212.45,117.63 2197.32,138.65 2182.68,158.97C2177.63,165.97 2172.85,172.59 2168.32,178.83C2165.72,175.24 2163.04,171.51 2160.32,167.69C2145.14,146.58 2127.93,122.69 2111.18,102.47C2110.89,102.128 2110.47,101.929 2110.03,101.929C2109.2,101.929 2108.53,102.606 2108.53,103.429C2108.53,103.575 2108.55,103.72 2108.59,103.86C2109.43,106.67 2110.09,109.65 2110.79,112.86C2112.89,122.27 2115.5,133.98 2124.65,148.55C2129.73,156.65 2134.31,164.08 2138.73,171.27C2144.48,180.6 2149.73,189.09 2154.84,197.06C2145.43,209.36 2141.97,212.59 2140.71,213.37L2138.49,212.02C2137.94,211.678 2137.22,211.731 2136.73,212.15C2131.26,216.674 2125.31,220.596 2119,223.85C2112.24,227.58 2106.41,230.79 2101.42,237.03C2093.1,247.43 2092.35,257.57 2093.18,264.25C2094.18,272.3 2098.18,280.07 2103.47,284.05C2108.76,288.03 2118.01,292.61 2127.72,292.61C2135.48,292.61 2143.57,289.71 2150.25,281.36C2161.03,267.88 2165.45,243.58 2163.48,227.87C2163.43,227.414 2163.16,227.007 2162.77,226.77L2160.94,225.66C2163.27,222.66 2165.58,219.66 2167.94,216.38C2170.2,219.52 2172.5,222.6 2174.94,225.66L2173.11,226.77C2172.72,227.007 2172.45,227.414 2172.4,227.87C2170.4,243.58 2174.85,267.87 2185.63,281.36C2192.31,289.72 2200.4,292.61 2208.16,292.61C2217.87,292.61 2227.07,288.09 2232.4,284.05C2237.73,280.01 2241.7,272.3 2242.7,264.25C2243.45,257.57 2242.7,247.43 2234.38,237ZM2185.11,160.72C2198.11,142.72 2211.44,124.17 2222.73,109.72C2222.5,110.87 2222.29,112.05 2222.06,113.24C2220.39,122.24 2218.5,132.47 2210.06,145.99C2206.93,150.99 2203.94,155.76 2201.06,160.38C2193.21,172.96 2186.36,183.91 2179.62,194.17C2176.69,190.27 2173.54,185.98 2170.23,181.41C2174.91,174.943 2179.87,168.057 2185.11,160.75L2185.11,160.72ZM2147.87,279.46C2134.29,296.46 2114.05,288.3 2105.25,281.63C2101.72,278.96 2097.25,272.7 2096.12,263.85C2095.36,257.74 2096.06,248.45 2103.72,238.85C2108.34,233.07 2113.93,229.99 2120.4,226.42C2126.57,223.229 2132.41,219.426 2137.82,215.07L2160.55,229C2162.17,243.76 2157.86,267 2147.87,279.49L2147.87,279.46ZM2158.32,224.06L2143.41,215C2145.66,213.12 2149.41,208.94 2156.54,199.7C2159.7,204.56 2162.85,209.24 2166.07,213.79C2163.44,217.43 2160.89,220.82 2158.32,224.09L2158.32,224.06ZM2177.43,224.06C2164.82,207.93 2154.43,190.98 2141.26,169.65C2136.83,162.46 2132.26,155.03 2127.16,146.92C2118.28,132.79 2115.84,121.83 2113.69,112.16C2113.5,111.3 2113.31,110.45 2113.12,109.61C2128.44,128.55 2143.99,150.17 2157.86,169.44C2173.17,190.73 2185.49,207.87 2192.71,214.77L2189,217L2177.43,224.06ZM2239.64,263.85C2238.54,272.7 2234.04,278.96 2230.51,281.63C2221.71,288.3 2201.51,296.44 2187.89,279.46C2177.89,266.97 2173.59,243.73 2175.21,228.93L2197.94,215.1C2203.35,219.454 2209.18,223.256 2215.35,226.45C2221.83,230.02 2227.42,233.1 2232.04,238.88C2239.7,248.48 2240.4,257.77 2239.64,263.88L2239.64,263.85Z" style="fill:white;fill-rule:nonzero;"/>
        </g>
        <g transform="matrix(1,0,0,1,-2016.81,-43.0391)">
            <path d="M2188.38,228.63C2186.38,230.1 2185.21,232.44 2184.8,235.63C2183.42,246.35 2191.48,264.07 2197.87,272.06C2200.39,275.494 2204.4,277.522 2208.66,277.51C2215.1,277.51 2221.09,273.33 2222.73,272.09C2224.19,270.707 2225.29,268.992 2225.94,267.09C2227.5,263.09 2229.06,255.17 2222.06,246.42C2214.57,237 2196.41,222.67 2188.38,228.63ZM2223.15,266C2222.67,267.375 2221.91,268.635 2220.92,269.7C2218.73,271.36 2207.42,279.2 2200.21,270.19C2193.51,261.8 2186.61,245.04 2187.78,236.01C2188.08,233.7 2188.88,232.01 2190.17,231.08C2191.01,230.514 2192,230.233 2193.01,230.28C2199.72,230.28 2212.38,239.12 2219.72,248.28C2225.77,255.82 2224.47,262.6 2223.15,266Z" style="fill:white;fill-rule:nonzero;"/>
        </g>
        <g transform="matrix(1,0,0,1,-2016.81,-43.0391)">
            <path d="M2166,192.25C2164.61,192.764 2163.49,193.813 2162.88,195.16C2162.29,196.47 2162.26,197.965 2162.79,199.3C2163.64,201.414 2165.7,202.802 2167.98,202.79C2168.66,202.795 2169.34,202.677 2169.98,202.44C2171.37,201.935 2172.49,200.887 2173.09,199.54C2173.69,198.229 2173.72,196.729 2173.19,195.39C2172.06,192.577 2168.83,191.169 2166,192.25ZM2170.32,198.31C2170.04,198.924 2169.53,199.4 2168.89,199.63C2167.59,200.124 2166.12,199.491 2165.58,198.21C2165.34,197.625 2165.34,196.965 2165.58,196.38C2165.86,195.769 2166.38,195.296 2167.01,195.07C2167.3,194.955 2167.62,194.897 2167.93,194.9C2168.98,194.886 2169.93,195.52 2170.32,196.49C2170.56,197.073 2170.56,197.73 2170.31,198.31L2170.32,198.31Z" style="fill:white;fill-rule:nonzero;"/>
        </g>
    </g>
</svg>
