<?xml version="1.0" encoding="UTF-8" standalone="no"?>
<!DOCTYPE svg PUBLIC "-//W3C//DTD SVG 1.1//EN" "http://www.w3.org/Graphics/SVG/1.1/DTD/svg11.dtd">
<svg width="100%" height="100%" viewBox="0 0 300 300" version="1.1" xmlns="http://www.w3.org/2000/svg" xmlns:xlink="http://www.w3.org/1999/xlink" xml:space="preserve" xmlns:serif="http://www.serif.com/" style="fill-rule:evenodd;clip-rule:evenodd;stroke-linejoin:round;stroke-miterlimit:2;">
    <g>
        <g transform="matrix(1,0,0,1,-2289.29,-1047.81)">
            <path d="M2492,1197.81L2516.63,1154.7C2516.9,1154.24 2516.9,1153.66 2516.63,1153.2C2516.37,1152.74 2515.87,1152.45 2515.34,1152.45L2465.68,1152.21L2440.68,1109.34C2440.41,1108.88 2439.92,1108.6 2439.39,1108.6C2438.85,1108.6 2438.36,1108.88 2438.09,1109.34L2413.09,1152.21L2363.43,1152.45C2362.89,1152.45 2362.4,1152.74 2362.13,1153.2C2361.87,1153.67 2361.87,1154.23 2362.13,1154.7L2386.76,1197.81L2362,1240.92C2361.87,1241.15 2361.8,1241.4 2361.8,1241.66C2361.8,1242.48 2362.48,1243.16 2363.3,1243.16L2412.96,1243.4L2437.96,1286.27C2438.22,1286.74 2438.72,1287.02 2439.26,1287.02C2439.79,1287.02 2440.28,1286.74 2440.55,1286.27L2465.55,1243.4L2515.21,1243.16C2516.03,1243.16 2516.7,1242.48 2516.7,1241.66C2516.7,1241.4 2516.64,1241.15 2516.51,1240.92L2492,1197.81ZM2489.4,1196.31L2441.94,1196.31L2458.86,1167.01L2465.67,1155.21L2512.75,1155.44L2489.4,1196.31ZM2439.34,1113.07L2463.07,1153.71L2439.34,1194.81L2415.6,1153.71L2439.34,1113.07ZM2413,1155.21L2419.81,1167.01L2436.73,1196.31L2389.26,1196.31L2365.92,1155.44L2413,1155.21ZM2389.26,1199.31L2436.73,1199.31L2419.89,1228.47L2413,1240.4L2365.92,1240.17L2389.26,1199.31ZM2439.33,1282.54L2415.59,1241.9L2439.33,1200.81L2463,1241.9L2439.33,1282.54ZM2465.66,1240.4L2458.77,1228.47L2441.93,1199.31L2489.39,1199.31L2512.74,1240.17L2465.66,1240.4Z" style="fill:white;fill-rule:nonzero;"/>
        </g>
        <g transform="matrix(1,0,0,1,-2289.29,-1047.81)">
            <path d="M2532.82,1102.81L2345.76,1102.81C2344.94,1102.81 2344.26,1103.49 2344.26,1104.31L2344.26,1291.31C2344.26,1292.13 2344.94,1292.81 2345.76,1292.81L2532.82,1292.81C2533.64,1292.81 2534.32,1292.13 2534.32,1291.31L2534.32,1104.31C2534.32,1103.49 2533.64,1102.81 2532.82,1102.81ZM2531.32,1289.81L2347.26,1289.81L2347.26,1105.81L2531.32,1105.81L2531.32,1289.81Z" style="fill:white;fill-rule:nonzero;"/>
        </g>
        <g transform="matrix(1,0,0,1,-2289.29,-1047.81)">
            <path d="M2423.41,1209.4C2421.4,1209.4 2419.74,1207.74 2419.74,1205.73C2419.74,1203.72 2421.4,1202.06 2423.41,1202.06C2425.42,1202.06 2427.08,1203.72 2427.08,1205.73L2427.08,1205.74C2427.08,1207.75 2425.43,1209.4 2423.42,1209.4C2423.42,1209.4 2423.41,1209.4 2423.41,1209.4Z" style="fill:white;fill-rule:nonzero;"/>
        </g>
        <g transform="matrix(1,0,0,1,-2289.29,-1047.81)">
            <path d="M2415.67,1222.65C2413.66,1222.65 2412,1220.99 2412,1218.98C2412,1216.97 2413.66,1215.31 2415.67,1215.31C2417.68,1215.31 2419.34,1216.97 2419.34,1218.98L2419.34,1218.99C2419.34,1221 2417.69,1222.65 2415.68,1222.65C2415.68,1222.65 2415.67,1222.65 2415.67,1222.65Z" style="fill:white;fill-rule:nonzero;"/>
        </g>
        <g transform="matrix(1,0,0,1,-2289.29,-1047.81)">
            <path d="M2387.06,1222.65C2385.05,1222.65 2383.39,1220.99 2383.39,1218.98C2383.39,1216.97 2385.05,1215.31 2387.06,1215.31C2389.07,1215.31 2390.73,1216.97 2390.73,1218.98L2390.73,1218.99C2390.73,1221 2389.08,1222.65 2387.07,1222.65C2387.07,1222.65 2387.06,1222.65 2387.06,1222.65Z" style="fill:white;fill-rule:nonzero;"/>
        </g>
        <g transform="matrix(1,0,0,1,-2289.29,-1047.81)">
            <path d="M2394.9,1209.4C2392.89,1209.4 2391.23,1207.74 2391.23,1205.73C2391.23,1203.72 2392.89,1202.06 2394.9,1202.06C2396.91,1202.06 2398.57,1203.72 2398.57,1205.73L2398.57,1205.74C2398.57,1207.75 2396.92,1209.4 2394.91,1209.4C2394.91,1209.4 2394.9,1209.4 2394.9,1209.4Z" style="fill:white;fill-rule:nonzero;"/>
        </g>
        <g transform="matrix(1,0,0,1,-2289.29,-1047.81)">
            <path d="M2407.25,1237.43C2405.24,1237.43 2403.59,1235.78 2403.59,1233.77C2403.59,1231.76 2405.24,1230.11 2407.25,1230.11C2409.26,1230.11 2410.91,1231.76 2410.91,1233.77C2410.91,1235.78 2409.26,1237.43 2407.25,1237.43Z" style="fill:white;fill-rule:nonzero;"/>
        </g>
        <g transform="matrix(1,0,0,1,-2289.29,-1047.81)">
            <path d="M2378.64,1237.43C2376.63,1237.43 2374.98,1235.78 2374.98,1233.77C2374.98,1231.76 2376.63,1230.11 2378.64,1230.11C2380.65,1230.11 2382.3,1231.76 2382.3,1233.77C2382.3,1235.78 2380.65,1237.43 2378.64,1237.43Z" style="fill:white;fill-rule:nonzero;"/>
        </g>
        <g transform="matrix(1,0,0,1,-2289.29,-1047.81)">
            <path d="M2400.81,1222.65C2400.81,1222.65 2400.8,1222.65 2400.8,1222.65C2398.79,1222.65 2397.13,1220.99 2397.13,1218.98C2397.13,1216.97 2398.79,1215.31 2400.8,1215.31C2402.81,1215.31 2404.47,1216.97 2404.47,1218.98C2404.47,1218.98 2404.47,1218.99 2404.47,1218.99C2404.47,1221 2402.82,1222.65 2400.81,1222.65Z" style="fill:white;fill-rule:nonzero;"/>
        </g>
        <g transform="matrix(1,0,0,1,-2289.29,-1047.81)">
            <path d="M2408.65,1209.4C2408.65,1209.4 2408.64,1209.4 2408.64,1209.4C2406.63,1209.4 2404.97,1207.74 2404.97,1205.73C2404.97,1203.72 2406.63,1202.06 2408.64,1202.06C2410.65,1202.06 2412.31,1203.72 2412.31,1205.73C2412.31,1205.73 2412.31,1205.74 2412.31,1205.74C2412.31,1207.75 2410.66,1209.4 2408.65,1209.4Z" style="fill:white;fill-rule:nonzero;"/>
        </g>
        <g transform="matrix(1,0,0,1,-2289.29,-1047.81)">
            <path d="M2392.38,1237.43C2390.37,1237.43 2388.72,1235.78 2388.72,1233.77C2388.72,1231.76 2390.37,1230.11 2392.38,1230.11C2394.39,1230.11 2396.04,1231.76 2396.04,1233.77C2396.04,1235.78 2394.39,1237.43 2392.38,1237.43Z" style="fill:white;fill-rule:nonzero;"/>
        </g>
        <g transform="matrix(1,0,0,1,-2289.29,-1047.81)">
            <path d="M2455.16,1209.4C2455.16,1209.4 2455.17,1209.4 2455.17,1209.4C2457.18,1209.4 2458.84,1207.74 2458.84,1205.73C2458.84,1203.72 2457.18,1202.06 2455.17,1202.06C2453.16,1202.06 2451.5,1203.72 2451.5,1205.73C2451.5,1205.73 2451.5,1205.74 2451.5,1205.74C2451.5,1207.75 2453.15,1209.4 2455.16,1209.4Z" style="fill:white;fill-rule:nonzero;"/>
        </g>
        <g transform="matrix(1,0,0,1,-2289.29,-1047.81)">
            <path d="M2462.9,1222.65C2462.9,1222.65 2462.91,1222.65 2462.91,1222.65C2464.92,1222.65 2466.58,1220.99 2466.58,1218.98C2466.58,1216.97 2464.92,1215.31 2462.91,1215.31C2460.9,1215.31 2459.24,1216.97 2459.24,1218.98C2459.24,1218.98 2459.24,1218.99 2459.24,1218.99C2459.24,1221 2460.89,1222.65 2462.9,1222.65Z" style="fill:white;fill-rule:nonzero;"/>
        </g>
        <g transform="matrix(1,0,0,1,-2289.29,-1047.81)">
            <path d="M2491.51,1222.65C2491.51,1222.65 2491.52,1222.65 2491.52,1222.65C2493.53,1222.65 2495.19,1220.99 2495.19,1218.98C2495.19,1216.97 2493.53,1215.31 2491.52,1215.31C2489.51,1215.31 2487.85,1216.97 2487.85,1218.98C2487.85,1218.98 2487.85,1218.99 2487.85,1218.99C2487.85,1221 2489.5,1222.65 2491.51,1222.65Z" style="fill:white;fill-rule:nonzero;"/>
        </g>
        <g transform="matrix(1,0,0,1,-2289.29,-1047.81)">
            <path d="M2483.67,1209.4C2483.67,1209.4 2483.68,1209.4 2483.68,1209.4C2485.69,1209.4 2487.35,1207.74 2487.35,1205.73C2487.35,1203.72 2485.69,1202.06 2483.68,1202.06C2481.67,1202.06 2480.01,1203.72 2480.01,1205.73C2480.01,1205.73 2480.01,1205.74 2480.01,1205.74C2480.01,1207.75 2481.66,1209.4 2483.67,1209.4Z" style="fill:white;fill-rule:nonzero;"/>
        </g>
        <g transform="matrix(1,0,0,1,-2289.29,-1047.81)">
            <path d="M2471.33,1237.43C2473.34,1237.43 2474.99,1235.78 2474.99,1233.77C2474.99,1231.76 2473.34,1230.11 2471.33,1230.11C2469.32,1230.11 2467.67,1231.76 2467.67,1233.77C2467.67,1235.78 2469.32,1237.43 2471.33,1237.43Z" style="fill:white;fill-rule:nonzero;"/>
        </g>
        <g transform="matrix(1,0,0,1,-2289.29,-1047.81)">
            <path d="M2499.94,1237.43C2501.95,1237.43 2503.6,1235.78 2503.6,1233.77C2503.6,1231.76 2501.95,1230.11 2499.94,1230.11C2497.93,1230.11 2496.28,1231.76 2496.28,1233.77C2496.28,1235.78 2497.93,1237.43 2499.94,1237.43Z" style="fill:white;fill-rule:nonzero;"/>
        </g>
        <g transform="matrix(1,0,0,1,-2289.29,-1047.81)">
            <path d="M2477.77,1222.65C2477.77,1222.65 2477.78,1222.65 2477.78,1222.65C2479.79,1222.65 2481.45,1220.99 2481.45,1218.98C2481.45,1216.97 2479.79,1215.31 2477.78,1215.31C2475.77,1215.31 2474.11,1216.97 2474.11,1218.98C2474.11,1218.98 2474.11,1218.99 2474.11,1218.99C2474.11,1221 2475.76,1222.65 2477.77,1222.65Z" style="fill:white;fill-rule:nonzero;"/>
        </g>
        <g transform="matrix(1,0,0,1,-2289.29,-1047.81)">
            <path d="M2469.93,1209.4C2469.93,1209.4 2469.94,1209.4 2469.94,1209.4C2471.95,1209.4 2473.61,1207.74 2473.61,1205.73C2473.61,1203.72 2471.95,1202.06 2469.94,1202.06C2467.93,1202.06 2466.27,1203.72 2466.27,1205.73C2466.27,1205.73 2466.27,1205.74 2466.27,1205.74C2466.27,1207.75 2467.92,1209.4 2469.93,1209.4Z" style="fill:white;fill-rule:nonzero;"/>
        </g>
        <g transform="matrix(1,0,0,1,-2289.29,-1047.81)">
            <circle cx="2486.2" cy="1233.77" r="3.66" style="fill:white;"/>
        </g>
        <g transform="matrix(1,0,0,1,-2289.29,-1047.81)">
            <path d="M2442.29,1178.26C2441.64,1177.13 2440.43,1176.43 2439.12,1176.43C2437.11,1176.43 2435.46,1178.08 2435.46,1180.09C2435.46,1182.1 2437.11,1183.75 2439.12,1183.75C2439.76,1183.75 2440.39,1183.58 2440.95,1183.26C2442.08,1182.61 2442.78,1181.4 2442.78,1180.09C2442.78,1179.45 2442.61,1178.82 2442.29,1178.26Z" style="fill:white;fill-rule:nonzero;"/>
        </g>
        <g transform="matrix(1,0,0,1,-2289.29,-1047.81)">
            <path d="M2449.9,1164.93C2449.25,1163.79 2448.03,1163.08 2446.71,1163.08C2444.7,1163.08 2443.04,1164.74 2443.04,1166.75C2443.04,1168.77 2444.7,1170.42 2446.71,1170.42C2447.36,1170.42 2447.99,1170.25 2448.55,1169.93C2450.28,1168.92 2450.89,1166.67 2449.9,1164.93Z" style="fill:white;fill-rule:nonzero;"/>
        </g>
        <g transform="matrix(1,0,0,1,-2289.29,-1047.81)">
            <path d="M2435.59,1140.16C2434.94,1139.03 2433.73,1138.33 2432.42,1138.33C2430.41,1138.33 2428.76,1139.98 2428.76,1141.99C2428.76,1144 2430.41,1145.65 2432.42,1145.65C2433.06,1145.65 2433.69,1145.48 2434.25,1145.16C2435.38,1144.51 2436.08,1143.3 2436.08,1141.99C2436.08,1141.35 2435.91,1140.72 2435.59,1140.16Z" style="fill:white;fill-rule:nonzero;"/>
        </g>
        <g transform="matrix(1,0,0,1,-2289.29,-1047.81)">
            <path d="M2428,1153.57C2427.35,1152.44 2426.14,1151.74 2424.83,1151.74C2422.82,1151.74 2421.17,1153.39 2421.17,1155.4C2421.17,1157.4 2422.82,1159.06 2424.83,1159.06C2425.47,1159.06 2426.1,1158.89 2426.65,1158.57C2428.38,1157.56 2428.99,1155.31 2428,1153.57Z" style="fill:white;fill-rule:nonzero;"/>
        </g>
        <g transform="matrix(1,0,0,1,-2289.29,-1047.81)">
            <path d="M2458.48,1150.24C2457.83,1149.11 2456.62,1148.41 2455.31,1148.41C2453.3,1148.41 2451.65,1150.06 2451.65,1152.07C2451.65,1154.08 2453.3,1155.73 2455.31,1155.73C2455.95,1155.73 2456.58,1155.56 2457.14,1155.24C2458.27,1154.59 2458.97,1153.38 2458.97,1152.07C2458.97,1151.43 2458.8,1150.8 2458.48,1150.24Z" style="fill:white;fill-rule:nonzero;"/>
        </g>
        <g transform="matrix(1,0,0,1,-2289.29,-1047.81)">
            <path d="M2444.18,1125.47C2443.53,1124.34 2442.32,1123.64 2441.01,1123.64C2439,1123.64 2437.35,1125.29 2437.35,1127.3C2437.35,1129.31 2439,1130.96 2441.01,1130.96C2441.65,1130.96 2442.28,1130.79 2442.84,1130.47C2443.97,1129.82 2444.68,1128.61 2444.68,1127.31C2444.68,1126.66 2444.51,1126.03 2444.18,1125.47Z" style="fill:white;fill-rule:nonzero;"/>
        </g>
        <g transform="matrix(1,0,0,1,-2289.29,-1047.81)">
            <path d="M2442.46,1152.06C2441.81,1150.93 2440.6,1150.23 2439.29,1150.23C2437.28,1150.23 2435.63,1151.88 2435.63,1153.89C2435.63,1155.9 2437.28,1157.55 2439.29,1157.55C2439.93,1157.55 2440.56,1157.38 2441.12,1157.06C2442.25,1156.41 2442.95,1155.2 2442.95,1153.89C2442.95,1153.25 2442.78,1152.62 2442.46,1152.06Z" style="fill:white;fill-rule:nonzero;"/>
        </g>
        <g transform="matrix(1,0,0,1,-2289.29,-1047.81)">
            <path d="M2434.91,1165.47C2434.26,1164.33 2433.04,1163.63 2431.73,1163.63C2429.71,1163.63 2428.06,1165.28 2428.06,1167.3C2428.06,1169.31 2429.71,1170.97 2431.73,1170.97C2432.37,1170.97 2433.01,1170.8 2433.57,1170.47C2435.3,1169.46 2435.91,1167.21 2434.91,1165.47Z" style="fill:white;fill-rule:nonzero;"/>
        </g>
        <g transform="matrix(1,0,0,1,-2289.29,-1047.81)">
            <path d="M2451.05,1137.37C2450.4,1136.24 2449.19,1135.54 2447.88,1135.54C2445.87,1135.54 2444.22,1137.19 2444.22,1139.2C2444.22,1141.21 2445.87,1142.86 2447.88,1142.86C2448.52,1142.86 2449.15,1142.69 2449.71,1142.37C2450.84,1141.72 2451.54,1140.51 2451.54,1139.2C2451.54,1138.56 2451.37,1137.93 2451.05,1137.37Z" style="fill:white;fill-rule:nonzero;"/>
        </g>
    </g>
</svg>
